SplineFontDB: 3.2
FontName: Parseltongue
FullName: Parseltongue
FamilyName: Parseltongue
Weight: Book
Copyright: CarpeSaponem Fonts     October 2000     http://www.geocities.com/carpesaponem/  
Version: Macromedia Fontographer 4.1 10/4/00
ItalicAngle: 0
UnderlinePosition: -143
UnderlineWidth: 20
Ascent: 800
Descent: 200
InvalidEm: 0
sfntRevision: 0x00010000
LayerCount: 2
Layer: 0 1 "Arri+AOgA-re" 1
Layer: 1 1 "Avant" 0
XUID: [1021 324 -804837662 3625264]
StyleMap: 0x0040
FSType: 1
OS2Version: 1
OS2_WeightWidthSlopeOnly: 0
OS2_UseTypoMetrics: 0
CreationTime: 970655593
ModificationTime: 1647465749
PfmFamily: 81
TTFWeight: 400
TTFWidth: 5
LineGap: 0
VLineGap: 0
Panose: 0 0 4 0 0 0 0 0 0 0
OS2TypoAscent: 971
OS2TypoAOffset: 0
OS2TypoDescent: -221
OS2TypoDOffset: 0
OS2TypoLinegap: 0
OS2WinAscent: 971
OS2WinAOffset: 0
OS2WinDescent: 221
OS2WinDOffset: 0
HheadAscent: 971
HheadAOffset: 0
HheadDescent: -221
HheadDOffset: 0
OS2SubXSize: 700
OS2SubYSize: 650
OS2SubXOff: 0
OS2SubYOff: 143
OS2SupXSize: 700
OS2SupYSize: 650
OS2SupXOff: 0
OS2SupYOff: 453
OS2StrikeYSize: 50
OS2StrikeYPos: 259
OS2Vendor: 'Alts'
OS2CodePages: 00000001.00000000
OS2UnicodeRanges: 00000000.00000000.00000000.00000000
Lookup: 258 0 0 "'kern' Horizontal Kerning in Latin lookup 0" { "'kern' Horizontal Kerning in Latin lookup 0 subtable"  } ['kern' ('latn' <'dflt' > ) ]
DEI: 91125
TtTable: prep
NPUSHB
 15
 10
 10
 9
 9
 8
 8
 7
 7
 2
 2
 1
 1
 0
 0
 1
SCANTYPE
PUSHW_1
 511
SCANCTRL
RCVT
ROUND[Grey]
WCVTP
RCVT
ROUND[Grey]
WCVTP
RCVT
ROUND[Grey]
WCVTP
RCVT
ROUND[Grey]
WCVTP
RCVT
ROUND[Grey]
WCVTP
RCVT
ROUND[Grey]
WCVTP
RCVT
ROUND[Grey]
WCVTP
PUSHB_4
 4
 3
 70
 0
CALL
PUSHB_4
 6
 5
 70
 0
CALL
PUSHB_2
 3
 3
RCVT
ROUND[Grey]
WCVTP
PUSHB_2
 5
 5
RCVT
ROUND[Grey]
WCVTP
EndTTInstrs
TtTable: fpgm
NPUSHB
 1
 0
FDEF
SROUND
RCVT
DUP
PUSHB_1
 3
CINDEX
RCVT
SWAP
SUB
ROUND[Grey]
RTG
SWAP
ROUND[Grey]
ADD
WCVTP
ENDF
EndTTInstrs
ShortTable: cvt  276
  -210
  -4
  753
  59
  77
  30
  41
  24
  56
  392
  246
  28226

StartChar: .notdef
Encoding: 65536 -1 0
Width: 500
Flags: W
LayerCount: 2
Fore
SplineSet
63 0 m 1,0,-1
 63 800 l 1,1,-1
 438 800 l 1,2,-1
 438 0 l 1,3,-1
 63 0 l 1,0,-1
125 63 m 1,4,-1
 375 63 l 1,5,-1
 375 738 l 1,6,-1
 125 738 l 1,7,-1
 125 63 l 1,4,-1
EndSplineSet
Validated: 1
EndChar

StartChar: exclam
Encoding: 33 33 4
Width: 178
GlyphClass: 2
Flags: W
LayerCount: 2
Fore
SplineSet
57 17 m 256,0,1
 57 33 57 33 68.5 44.5 c 128,-1,2
 80 56 80 56 96 56 c 256,3,4
 112 56 112 56 123.5 44.5 c 128,-1,5
 135 33 135 33 135 17 c 256,6,7
 135 1 135 1 123.5 -10.5 c 128,-1,8
 112 -22 112 -22 96 -22 c 256,9,10
 80 -22 80 -22 68.5 -10.5 c 128,-1,11
 57 1 57 1 57 17 c 256,0,1
89 778 m 0,12,13
 136 780 136 780 136 682 c 0,14,15
 136 634 136 634 125 559 c 0,16,17
 102 402 102 402 102 331 c 0,18,19
 102 282 102 282 112 244 c 0,20,21
 114 236 114 236 114 223 c 0,22,23
 114 183 114 183 98 114 c 1,24,25
 105 136 105 136 105 163 c 0,26,27
 105 206 105 206 86 242 c 0,28,29
 53 305 53 305 48 663 c 0,30,31
 46 775 46 775 89 778 c 0,12,13
EndSplineSet
Validated: 37
EndChar

StartChar: quotedbl
Encoding: 34 34 5
Width: 224
GlyphClass: 2
Flags: W
LayerCount: 2
Fore
SplineSet
27 717 m 0,0,1
 27 733 27 733 38.5 744.5 c 128,-1,2
 50 756 50 756 66 756 c 256,3,4
 82 756 82 756 93.5 744.5 c 128,-1,5
 105 733 105 733 105 717 c 0,6,7
 105 695 105 695 86 669 c 0,8,9
 63 636 63 636 23 627 c 1,10,11
 28 633 28 633 34 639 c 0,12,13
 54 656 54 656 54 669 c 0,14,15
 54 681 54 681 40.5 690.5 c 128,-1,16
 27 700 27 700 27 717 c 0,0,1
127 717 m 0,17,18
 127 733 127 733 138.5 744.5 c 128,-1,19
 150 756 150 756 166 756 c 256,20,21
 182 756 182 756 193.5 744.5 c 128,-1,22
 205 733 205 733 205 717 c 0,23,24
 205 695 205 695 186 669 c 0,25,26
 163 636 163 636 123 627 c 1,27,28
 128 633 128 633 134 639 c 0,29,30
 154 656 154 656 154 669 c 0,31,32
 154 681 154 681 140.5 690.5 c 128,-1,33
 127 700 127 700 127 717 c 0,17,18
EndSplineSet
Validated: 1
EndChar

StartChar: numbersign
Encoding: 35 35 6
Width: 514
GlyphClass: 2
Flags: W
LayerCount: 2
Fore
SplineSet
216 463 m 1,0,1
 208 432 208 432 210 382 c 1,2,3
 289 380 289 380 292 381 c 0,4,5
 300 412 300 412 299 465 c 1,6,7
 228 465 228 465 216 463 c 1,0,1
162 343 m 1,8,9
 121 344 121 344 88 345 c 0,10,11
 52 346 52 346 31 332 c 1,12,13
 33 340 33 340 41 357 c 0,14,15
 47 365 47 365 54 374 c 0,16,17
 66 385 66 385 85 385 c 0,18,19
 106 384 106 384 161 383 c 1,20,21
 161 421 161 421 161 463 c 1,22,23
 92 466 92 466 57 463 c 256,24,25
 22 460 22 460 3 437 c 1,26,27
 3 447 3 447 7.5 468 c 128,-1,28
 12 489 12 489 55 506 c 0,29,30
 76 514 76 514 164 512 c 1,31,32
 166 518 166 518 170 543 c 0,33,34
 172 559 172 559 164 600.5 c 128,-1,35
 156 642 156 642 144 664 c 1,36,37
 171 664 171 664 205 621 c 0,38,39
 216 607 216 607 222 506 c 1,40,-1
 297 505 l 1,41,42
 292 570 292 570 280 642 c 1,43,44
 176 665 176 665 125 694 c 1,45,46
 129 701 129 701 133 708 c 1,47,48
 194 693 194 693 314 627 c 1,49,50
 341 605 341 605 347 545 c 0,51,52
 348 539 348 539 348 504 c 1,53,-1
 420 503 l 2,54,55
 455 503 455 503 476 517 c 1,56,57
 475 509 475 509 467 492 c 0,58,59
 461 483 461 483 454 475 c 0,60,61
 443 463 443 463 423 463 c 0,62,63
 349 463 349 463 349 463 c 1,64,65
 349 424 349 424 347 380 c 1,66,67
 416 376 416 376 451 379 c 0,68,69
 487 381 487 381 506 404 c 1,70,71
 506 394 506 394 501 373 c 128,-1,72
 496 352 496 352 452 336 c 0,73,74
 431 328 431 328 343 331 c 1,75,76
 342 326 342 326 337 301 c 0,77,78
 334 284 334 284 341 244 c 0,79,80
 349 201 349 201 361 179 c 1,81,82
 334 180 334 180 301 223 c 0,83,84
 289 238 289 238 286 338 c 1,85,86
 269 340 269 340 213 342 c 1,87,88
 219 276 219 276 233 203 c 1,89,90
 217 209 217 209 199 217 c 1,91,92
 171 239 171 239 164 298 c 0,93,94
 163 308 163 308 162 342 c 2,95,-1
 162 343 l 1,8,9
EndSplineSet
Validated: 33
EndChar

StartChar: dollar
Encoding: 36 36 7
Width: 311
GlyphClass: 2
Flags: W
LayerCount: 2
Fore
SplineSet
172 532 m 1024,0,-1
187 485 m 1,1,2
 229 448 229 448 229 393 c 0,3,4
 229 364 229 364 216 337 c 1,5,6
 207 384 207 384 189 472 c 0,7,8
 188 475 188 475 187 485 c 1,1,2
135 278 m 0,9,10
 135 284 135 284 130 383 c 0,11,12
 124 488 124 488 123 530 c 1,13,14
 139 521 139 521 171 499 c 1,15,16
 173 474 173 474 186 393 c 0,17,18
 199 316 199 316 199 316 c 1,19,20
 190 300 190 300 162.5 287 c 128,-1,21
 135 274 135 274 135 278 c 0,9,10
48 311 m 0,22,23
 47 323 47 323 54 331 c 128,-1,24
 61 339 61 339 67 346 c 1,25,26
 48 348 48 348 30 334 c 128,-1,27
 12 320 12 320 12 308 c 0,28,29
 12 295 12 295 42.5 280 c 128,-1,30
 73 265 73 265 107 261 c 1,31,32
 104 231 104 231 95 210 c 0,33,34
 89 200 89 200 84 190 c 0,35,36
 82 182 82 182 89.5 171.5 c 128,-1,37
 97 161 97 161 106 161 c 0,38,39
 114 161 114 161 125 204 c 0,40,41
 135 244 135 244 135 257 c 1,42,43
 162 261 162 261 196 282 c 1,44,45
 197 253 197 253 186 235 c 0,46,47
 179 226 179 226 172 218 c 0,48,49
 170 214 170 214 182 209 c 128,-1,50
 194 204 194 204 203 204 c 0,51,52
 213 204 213 204 217 225 c 0,53,54
 221 247 221 247 217 293 c 1,55,56
 248 317 248 317 269 353 c 0,57,58
 287 384 287 384 287 402 c 0,59,60
 287 454 287 454 255 484 c 0,61,62
 244 494 244 494 187 526 c 1,63,64
 188 584 188 584 216 598 c 0,65,66
 222 601 222 601 222 606 c 0,67,68
 222 618 222 618 206 618 c 0,69,70
 196 618 196 618 183 599.5 c 128,-1,71
 170 581 170 581 171 574 c 0,72,73
 171 562 171 562 172 531 c 1,74,75
 138 545 138 545 120 559 c 1,76,77
 120 576 120 576 118 598 c 0,78,79
 116 616 116 616 117 619 c 0,80,81
 118 631 118 631 118 703 c 1,82,83
 133 713 133 713 144 713 c 0,84,85
 148 713 148 713 155 712 c 128,-1,86
 162 711 162 711 166 711 c 0,87,88
 186 711 186 711 186 724 c 1,89,90
 173 733 173 733 153 733 c 0,91,92
 139 733 139 733 118 725 c 1,93,94
 119 754 119 754 128 763 c 128,-1,95
 137 772 137 772 137 779 c 0,96,97
 137 790 137 790 123 790 c 0,98,99
 115 790 115 790 110 780 c 0,100,101
 103 766 103 766 102 765 c 128,-1,102
 101 764 101 764 101 718 c 1,103,104
 34 684 34 684 34 607 c 0,105,106
 34 589 34 589 55 574 c 2,107,108
 55 574 55 574 104 544 c 1,109,-1
 111 334 l 2,110,111
 111 303 111 303 110 277 c 1,112,113
 51 284 51 284 48 311 c 0,22,23
217 293 m 1024,114,-1
175 496 m 1024,115,-1
104 534 m 1024,116,-1
104 575 m 1,117,118
 93 578 93 578 85 626 c 0,119,120
 84 630 84 630 87 648 c 0,121,122
 92 671 92 671 101 687 c 1,123,124
 102 657 102 657 104 575 c 1,117,118
117 560 m 1024,125,-1
172 531 m 1024,126,-1
EndSplineSet
Validated: 41
EndChar

StartChar: percent
Encoding: 37 37 8
Width: 637
GlyphClass: 2
Flags: W
LayerCount: 2
Fore
SplineSet
391 398 m 2,0,1
 419 474 419 474 444 514 c 0,2,3
 464 546 464 546 492 567 c 128,-1,4
 520 588 520 588 549 608 c 1,5,6
 497 606 497 606 442 553 c 0,7,8
 395 509 395 509 382 471 c 2,9,-1
 262 145 l 2,10,11
 223 38 223 38 187 -2 c 0,12,13
 179 -11 179 -11 107 -64 c 1,14,15
 159 -62 159 -62 215 -9 c 0,16,17
 262 36 262 36 275 73 c 2,18,-1
 391 398 l 2,0,1
27 406 m 0,19,20
 27 451 27 451 73 483 c 128,-1,21
 119 515 119 515 184 515 c 0,22,23
 250 515 250 515 296 483 c 128,-1,24
 342 451 342 451 342 406 c 0,25,26
 342 362 342 362 296 330 c 128,-1,27
 250 298 250 298 184 298 c 0,28,29
 119 298 119 298 73 330 c 128,-1,30
 27 362 27 362 27 406 c 0,19,20
67 410 m 0,31,32
 67 370 67 370 100.5 341.5 c 128,-1,33
 134 313 134 313 182 313 c 0,34,35
 229 313 229 313 262.5 341.5 c 128,-1,36
 296 370 296 370 296 410 c 0,37,38
 296 451 296 451 262.5 479.5 c 128,-1,39
 229 508 229 508 182 508 c 0,40,41
 134 508 134 508 100.5 479.5 c 128,-1,42
 67 451 67 451 67 410 c 0,31,32
309 120 m 256,43,44
 309 165 309 165 355.5 196.5 c 128,-1,45
 402 228 402 228 467 228 c 0,46,47
 533 228 533 228 579 196.5 c 128,-1,48
 625 165 625 165 625 120 c 256,49,50
 625 75 625 75 579 43.5 c 128,-1,51
 533 12 533 12 467 12 c 0,52,53
 402 12 402 12 355.5 43.5 c 128,-1,54
 309 75 309 75 309 120 c 256,43,44
352 124 m 256,55,56
 352 84 352 84 385.5 55 c 128,-1,57
 419 26 419 26 466 26 c 0,58,59
 514 26 514 26 546.5 54 c 128,-1,60
 579 82 579 82 579 122 c 0,61,62
 579 163 579 163 545.5 191.5 c 128,-1,63
 512 220 512 220 465 220 c 0,64,65
 417 220 417 220 384.5 192 c 128,-1,66
 352 164 352 164 352 124 c 256,55,56
EndSplineSet
Validated: 9
EndChar

StartChar: ampersand
Encoding: 38 38 9
Width: 557
GlyphClass: 2
Flags: W
LayerCount: 2
Fore
SplineSet
74 174 m 0,0,1
 74 263 74 263 139 307 c 0,2,3
 191 342 191 342 269 342 c 0,4,5
 290 342 290 342 309 339 c 1,6,7
 309 347 309 347 287 352 c 0,8,9
 125 392 125 392 125 503 c 0,10,11
 125 524 125 524 143 545 c 128,-1,12
 161 566 161 566 180 564 c 0,13,14
 197 563 197 563 210 550 c 128,-1,15
 223 537 223 537 224 537 c 0,16,17
 241 537 241 537 241 551 c 0,18,19
 241 568 241 568 206 582 c 0,20,21
 179 592 179 592 164 592 c 0,22,23
 131 592 131 592 99 563 c 0,24,25
 64 533 64 533 64 498 c 0,26,27
 64 450 64 450 99.5 411.5 c 128,-1,28
 135 373 135 373 193 361 c 1,29,30
 119 352 119 352 63 287 c 0,31,32
 13 228 13 228 13 179 c 0,33,34
 13 99 13 99 80.5 38 c 128,-1,35
 148 -23 148 -23 230 -23 c 0,36,37
 327 -23 327 -23 378 68 c 1,38,39
 397 121 397 121 443 121 c 0,40,41
 462 121 462 121 486.5 112.5 c 128,-1,42
 511 104 511 104 527 19 c 1,43,44
 530 96 530 96 504 128 c 0,45,46
 485 150 485 150 445 152 c 0,47,48
 391 156 391 156 391 156 c 2,49,50
 383 158 383 158 364.5 194.5 c 128,-1,51
 346 231 346 231 317 250 c 0,52,53
 299 261 299 261 238 255 c 1,54,55
 256 253 256 253 271 249 c 0,56,57
 306 241 306 241 316 228 c 0,58,59
 357 182 357 182 357 117 c 0,60,61
 357 85 357 85 345 59 c 128,-1,62
 333 33 333 33 297.5 15 c 128,-1,63
 262 -3 262 -3 221 -3 c 0,64,65
 160 -3 160 -3 120 36 c 0,66,67
 74 83 74 83 74 174 c 0,0,1
EndSplineSet
Validated: 41
EndChar

StartChar: quotesingle
Encoding: 39 39 10
Width: 178
GlyphClass: 2
Flags: W
LayerCount: 2
Fore
SplineSet
47 717 m 0,0,1
 47 733 47 733 58.5 744.5 c 128,-1,2
 70 756 70 756 86 756 c 256,3,4
 102 756 102 756 113.5 744.5 c 128,-1,5
 125 733 125 733 125 717 c 0,6,7
 125 695 125 695 106 669 c 0,8,9
 83 636 83 636 43 627 c 1,10,11
 48 633 48 633 54 639 c 0,12,13
 74 656 74 656 74 669 c 0,14,15
 74 681 74 681 60.5 690.5 c 128,-1,16
 47 700 47 700 47 717 c 0,0,1
EndSplineSet
Validated: 1
EndChar

StartChar: parenleft
Encoding: 40 40 11
Width: 185
GlyphClass: 2
Flags: W
LayerCount: 2
Fore
SplineSet
96 579 m 2,0,1
 96 697 96 697 113 766 c 0,2,3
 127 824 127 824 161 873 c 128,-1,4
 195 922 195 922 231 971 c 1,5,6
 146 925 146 925 86 814 c 0,7,8
 35 721 35 721 37 664 c 2,9,-1
 36 88 l 2,10,11
 35 30 35 30 86 -64 c 0,12,13
 146 -175 146 -175 231 -221 c 1,14,15
 195 -172 195 -172 161 -123.5 c 128,-1,16
 127 -75 127 -75 114 -19 c 0,17,18
 97 50 97 50 97 168 c 2,19,-1
 96 579 l 2,0,1
EndSplineSet
Validated: 41
EndChar

StartChar: parenright
Encoding: 41 41 12
Width: 185
GlyphClass: 2
Flags: W
LayerCount: 2
Fore
SplineSet
61 579 m 2,0,1
 61 697 61 697 44 766 c 0,2,3
 30 824 30 824 -4 873 c 128,-1,4
 -38 922 -38 922 -74 971 c 1,5,6
 11 925 11 925 71 814 c 0,7,8
 121 721 121 721 120 664 c 2,9,-1
 121 88 l 2,10,11
 122 30 122 30 71 -64 c 0,12,13
 11 -175 11 -175 -74 -221 c 1,14,15
 -39 -172 -39 -172 -3 -124 c 0,16,17
 29 -75 29 -75 43 -19 c 0,18,19
 60 50 60 50 60 168 c 2,20,-1
 61 579 l 2,0,1
EndSplineSet
Validated: 33
EndChar

StartChar: asterisk
Encoding: 42 42 13
Width: 445
GlyphClass: 2
Flags: W
LayerCount: 2
Fore
SplineSet
421 657 m 1,0,1
 384 631 384 631 358 589 c 0,2,3
 342 562 342 562 326 535 c 1,4,5
 285 533 285 533 285 560 c 0,6,7
 285 573 285 573 295 594 c 1,8,9
 308 589 308 589 329 589 c 0,10,11
 345 589 345 589 368 613 c 0,12,13
 398 645 398 645 421 657 c 1,0,1
252 617 m 1,14,15
 238 582 238 582 223 582 c 0,16,17
 207 582 207 582 189 617 c 1,18,19
 195 628 195 628 195 642 c 0,20,21
 195 658 195 658 182.5 696.5 c 128,-1,22
 170 735 170 735 168 759 c 1,23,24
 179 709 179 709 210 665 c 0,25,26
 231 641 231 641 252 617 c 1,14,15
397 360 m 1,27,28
 369 381 369 381 322 398 c 0,29,30
 267 419 267 419 256 426 c 1,31,32
 254 437 254 437 254 446 c 0,33,34
 254 476 254 476 274 476 c 0,35,36
 287 476 287 476 307 465 c 1,37,38
 312 437 312 437 339.5 411 c 128,-1,39
 367 385 367 385 397 360 c 1,27,28
150 586 m 1,40,41
 161 565 161 565 161 552 c 0,42,43
 161 525 161 525 119 527 c 1,44,45
 109 541 109 541 64 544 c 0,46,47
 -8 548 -8 548 -32 553 c 1,48,49
 0 550 0 550 53.5 565.5 c 128,-1,50
 107 581 107 581 117 581 c 0,51,52
 137 581 137 581 150 586 c 1,40,41
189 426 m 1,53,54
 168 415 168 415 153.5 377.5 c 128,-1,55
 139 340 139 340 125 303 c 1,56,57
 136 334 136 334 135 384 c 0,58,59
 133 448 133 448 135 465 c 1,60,61
 162 483 162 483 176 483 c 0,62,63
 193 483 193 483 193 457 c 0,64,65
 193 444 193 444 189 426 c 1,53,54
EndSplineSet
Validated: 33
EndChar

StartChar: plus
Encoding: 43 43 14
Width: 423
GlyphClass: 2
Flags: W
LayerCount: 2
Fore
SplineSet
190 473 m 0,0,1
 187 454 187 454 184 442 c 1,2,3
 96 444 96 444 75 436 c 0,4,5
 32 419 32 419 26 398 c 0,6,7
 23 388 23 388 23 367 c 1,8,9
 28 374 28 374 36 379 c 0,10,11
 53 391 53 391 77 393 c 0,12,13
 112 396 112 396 181 393 c 1,14,15
 181 369 181 369 184 318 c 0,16,17
 191 255 191 255 226 232 c 0,18,19
 245 219 245 219 253 223 c 1,20,21
 230 283 230 283 230 341 c 0,22,23
 230 369 230 369 236 393 c 1,24,25
 236 393 236 393 343 393 c 0,26,27
 363 393 363 393 374 405 c 0,28,29
 381 413 381 413 387 421 c 128,-1,30
 393 429 393 429 396 447 c 1,31,32
 375 433 375 433 340 433 c 0,33,34
 313 433 313 433 242 436 c 1,35,36
 240 465 240 465 238 488 c 0,37,38
 233 542 233 542 225 551 c 0,39,40
 191 594 191 594 164 594 c 1,41,42
 176 572 176 572 184 530.5 c 128,-1,43
 192 489 192 489 190 473 c 0,0,1
EndSplineSet
Validated: 41
EndChar

StartChar: comma
Encoding: 44 44 15
Width: 178
GlyphClass: 2
Flags: W
LayerCount: 2
Fore
SplineSet
47 17 m 4,0,1
 47 33 47 33 58.5 44.5 c 132,-1,2
 70 56 70 56 86 56 c 260,3,4
 102 56 102 56 113.5 44.5 c 132,-1,5
 125 33 125 33 125 17 c 4,6,7
 125 -5 125 -5 107 -31 c 4,8,9
 83 -64 83 -64 43 -73 c 5,10,11
 48 -67 48 -67 54 -61 c 4,12,13
 74 -44 74 -44 74 -31 c 4,14,15
 74 -19 74 -19 60.5 -9.5 c 132,-1,16
 47 0 47 0 47 17 c 4,0,1
EndSplineSet
Validated: 1
EndChar

StartChar: hyphen
Encoding: 45 45 16
AltUni2: 002010.ffffffff.0
Width: 299
GlyphClass: 2
Flags: W
LayerCount: 2
Fore
SplineSet
20 344 m 0,0,1
 15 340 15 340 15 323 c 1,2,3
 74 334 74 334 136 334 c 0,4,5
 201 334 201 334 283 321 c 1,6,7
 274 331 274 331 277 347 c 0,8,9
 279 356 279 356 281 365 c 0,10,11
 279 366 279 366 276 367 c 0,12,13
 242 356 242 356 170 356 c 0,14,15
 111 356 111 356 18 364 c 1,16,17
 26 349 26 349 20 344 c 0,0,1
EndSplineSet
Validated: 9
EndChar

StartChar: period
Encoding: 46 46 17
Width: 178
GlyphClass: 2
Flags: W
LayerCount: 2
Fore
SplineSet
47 17 m 256,0,1
 47 33 47 33 58.5 44.5 c 128,-1,2
 70 56 70 56 86 56 c 256,3,4
 102 56 102 56 113.5 44.5 c 128,-1,5
 125 33 125 33 125 17 c 256,6,7
 125 1 125 1 113.5 -10.5 c 128,-1,8
 102 -22 102 -22 86 -22 c 256,9,10
 70 -22 70 -22 58.5 -10.5 c 128,-1,11
 47 1 47 1 47 17 c 256,0,1
EndSplineSet
Validated: 1
EndChar

StartChar: slash
Encoding: 47 47 18
Width: 285
GlyphClass: 2
Flags: W
LayerCount: 2
Fore
SplineSet
269 608 m 2,0,1
 314 728 314 728 353 790 c 0,2,3
 385 841 385 841 430 874 c 128,-1,4
 475 907 475 907 521 939 c 1,5,6
 439 934 439 934 351 852 c 0,7,8
 276 783 276 783 256 724 c 2,9,-1
 65 212 l 2,10,11
 20 92 20 92 -18 31 c 0,12,13
 -49 -20 -49 -20 -93 -52.5 c 128,-1,14
 -137 -85 -137 -85 -182 -117 c 1,15,16
 -99 -113 -99 -113 -11 -30 c 0,17,18
 64 40 64 40 85 99 c 2,19,-1
 269 608 l 2,0,1
EndSplineSet
Validated: 9
EndChar

StartChar: zero
Encoding: 48 48 19
Width: 524
GlyphClass: 2
Flags: W
LayerCount: 2
Fore
SplineSet
512 142 m 0,0,1
 512 66 512 66 435 26 c 0,2,3
 368 -10 368 -10 260 -10 c 0,4,5
 200 -10 200 -10 146 10 c 1,6,-1
 129 -14 l 2,7,8
 104 -50 104 -50 70 -117 c 1,9,10
 63 -54 63 -54 87 -15 c 0,11,12
 95 -2 95 -2 110 24 c 1,13,14
 10 75 10 75 9 160 c 0,15,16
 8 243 8 243 82 288 c 0,17,18
 150 330 150 330 260 330 c 0,19,20
 297 330 297 330 329 324 c 1,21,22
 384 384 384 384 442 435 c 0,23,24
 454 441 454 441 471 441 c 0,25,26
 513 441 513 441 513 426 c 0,27,28
 513 423 513 423 508 420 c 0,29,30
 449 389 449 389 377 312 c 1,31,32
 435 290 435 290 472 247 c 0,33,34
 512 201 512 201 512 142 c 0,0,1
131 51 m 1,35,36
 183 133 183 133 254 230 c 0,37,38
 280 265 280 265 315 305 c 1,39,40
 287 313 287 313 256 313 c 0,41,42
 174 313 174 313 123 276 c 0,43,44
 67 234 67 234 74 160 c 0,45,46
 80 95 80 95 131 51 c 1,47,-1
 131 51 l 1,35,36
434 160 m 0,48,49
 425 245 425 245 357 286 c 1,50,51
 289 208 289 208 163 30 c 1,52,53
 207 7 207 7 252 7 c 0,54,55
 333 7 333 7 386.5 52 c 128,-1,56
 440 97 440 97 434 160 c 0,48,49
EndSplineSet
Validated: 37
EndChar

StartChar: one
Encoding: 49 49 20
Width: 249
GlyphClass: 2
Flags: W
LayerCount: 2
Fore
SplineSet
191 2 m 1,0,1
 184 1 184 1 158 3 c 0,2,3
 128 5 128 5 126 5 c 0,4,5
 115 5 115 5 87 2 c 0,6,7
 65 0 65 0 62 2 c 0,8,9
 63 10 63 10 79 18.5 c 128,-1,10
 95 27 95 27 98 39 c 0,11,12
 114 113 114 113 114 227 c 0,13,14
 114 273 114 273 110.5 364 c 128,-1,15
 107 455 107 455 107 498 c 0,16,17
 107 520 107 520 102 521 c 0,18,19
 94 522 94 522 87.5 514 c 128,-1,20
 81 506 81 506 75 498 c 1,21,22
 72 516 72 516 95 541 c 0,23,24
 129 579 129 579 132 583 c 0,25,26
 145 589 145 589 152 583 c 1,27,-1
 152 35 l 2,28,29
 154 30 154 30 170.5 21 c 128,-1,30
 187 12 187 12 191 2 c 1,0,1
EndSplineSet
Validated: 33
EndChar

StartChar: two
Encoding: 50 50 21
Width: 400
GlyphClass: 2
Flags: W
LayerCount: 2
Fore
SplineSet
57 29 m 1,0,1
 136 78 136 78 214 191 c 0,2,3
 296 311 296 311 296 390 c 0,4,5
 296 471 296 471 200 471 c 0,6,7
 163 471 163 471 111 458 c 0,8,9
 80 450 80 450 80 420 c 0,10,11
 80 399 80 399 101 399 c 0,12,13
 109 399 109 399 119 403 c 1,14,15
 144 443 144 443 182 443 c 0,16,17
 210 443 210 443 228 419 c 128,-1,18
 246 395 246 395 241 356 c 0,19,20
 232 279 232 279 204 232 c 0,21,22
 155 147 155 147 2 14 c 1,23,24
 -46 -51 -46 -51 -41 -87 c 1,25,26
 -30 -41 -30 -41 46 -13 c 0,27,28
 112 12 112 12 193 12 c 0,29,30
 316 12 316 12 316 -38 c 0,31,32
 316 -51 316 -51 304 -67 c 1,33,34
 319 -67 319 -67 353 -15 c 0,35,36
 357 -6 357 -6 388 46 c 0,37,38
 407 79 407 79 407 94 c 0,39,40
 407 100 407 100 404 104 c 1,41,42
 385 74 385 74 367 45 c 0,43,44
 340 11 340 11 299 16 c 1,45,46
 221 35 221 35 131 35 c 0,47,48
 84 35 84 35 57 29 c 1,0,1
EndSplineSet
Validated: 41
EndChar

StartChar: three
Encoding: 51 51 22
Width: 389
GlyphClass: 2
Flags: W
LayerCount: 2
Fore
SplineSet
378 179 m 0,0,1
 378 98 378 98 302 34 c 0,2,3
 231 -26 231 -26 157 -26 c 0,4,5
 113 -26 113 -26 71 -8 c 0,6,7
 13 18 13 18 13 66 c 0,8,9
 13 80 13 80 23 95 c 128,-1,10
 33 110 33 110 46 110 c 0,11,12
 51 110 51 110 55 108 c 1,13,14
 50 107 50 107 43 99 c 128,-1,15
 36 91 36 91 36 85 c 0,16,17
 36 47 36 47 72 23 c 128,-1,18
 108 -1 108 -1 157 -1 c 0,19,20
 222 -1 222 -1 265 39 c 0,21,22
 316 87 316 87 316 174 c 0,23,24
 316 324 316 324 140 324 c 0,25,26
 111 324 111 324 81 319 c 1,27,28
 81 327 81 327 103 332 c 0,29,30
 169 348 169 348 213 390 c 0,31,32
 265 439 265 439 265 503 c 0,33,34
 265 524 265 524 247 545 c 128,-1,35
 229 566 229 566 210 564 c 0,36,37
 193 563 193 563 180 550 c 128,-1,38
 167 537 167 537 166 537 c 0,39,40
 149 537 149 537 149 551 c 0,41,42
 149 568 149 568 184 582 c 0,43,44
 211 592 211 592 226 592 c 0,45,46
 259 592 259 592 292.5 562.5 c 128,-1,47
 326 533 326 533 326 498 c 0,48,49
 326 448 326 448 291 402 c 0,50,51
 253 353 253 353 197 341 c 1,52,53
 272 332 272 332 327 277 c 0,54,55
 378 226 378 226 378 179 c 0,0,1
EndSplineSet
Validated: 33
EndChar

StartChar: four
Encoding: 52 52 23
Width: 261
GlyphClass: 2
Flags: W
LayerCount: 2
Fore
SplineSet
287 295 m 0,0,1
 287 292 287 292 290.5 276 c 128,-1,2
 294 260 294 260 294 256 c 0,3,4
 294 253 294 253 293 253 c 0,5,6
 291 253 291 253 283 266 c 1,7,8
 258 282 258 282 224 288 c 1,9,10
 220 103 220 103 241 25 c 1,11,12
 259 9 259 9 259 7 c 1,13,14
 259 10 259 10 247 -1 c 1,15,16
 216 0 216 0 199 0 c 0,17,18
 192 0 192 0 175.5 -2.5 c 128,-1,19
 159 -5 159 -5 154 -5 c 0,20,21
 145 -5 145 -5 148 0 c 0,22,23
 146 2 146 2 162 15.5 c 128,-1,24
 178 29 178 29 179 46 c 2,25,-1
 175 293 l 1,26,27
 81 292 81 292 3 114 c 1,28,29
 -5 129 -5 129 -8 188 c 0,30,31
 -10 245 -10 245 -5 273 c 0,32,33
 14 362 14 362 47 420 c 0,34,35
 102 517 102 517 115 547 c 1,36,37
 109 553 109 553 103 553 c 0,38,39
 89 553 89 553 79 525 c 1,40,-1
 79 542 l 2,41,42
 79 558 79 558 96 571 c 128,-1,43
 113 584 113 584 122 580 c 0,44,45
 141 572 141 572 141 552 c 0,46,47
 141 530 141 530 108 466 c 0,48,49
 64 379 64 379 48 334 c 0,50,51
 15 244 15 244 14 161 c 1,52,53
 26 209 26 209 64 266 c 0,54,55
 113 340 113 340 161 340 c 0,56,57
 168 340 168 340 174 338 c 1,58,-1
 173 463 l 2,59,60
 173 507 173 507 202 586 c 0,61,62
 229 662 229 662 243 666 c 1,63,64
 217 566 217 566 220 471 c 2,65,-1
 225 336 l 1,66,67
 266 330 266 330 273 326 c 0,68,69
 285 319 285 319 287 295 c 0,0,1
EndSplineSet
Validated: 37
EndChar

StartChar: five
Encoding: 53 53 24
Width: 360
GlyphClass: 2
Flags: W
LayerCount: 2
Fore
SplineSet
39 463 m 5,0,1
 37 451 37 451 47.5 439 c 132,-1,2
 58 427 58 427 58 423 c 6,3,-1
 58 259 l 5,4,5
 82 276 82 276 105 294 c 4,6,7
 134 312 134 312 166 312 c 4,8,9
 227 312 227 312 263 275 c 4,10,11
 296 241 296 241 296 187 c 4,12,13
 296 89 296 89 249 36 c 4,14,15
 208 -9 208 -9 149 -9 c 4,16,17
 105 -9 105 -9 73 16.5 c 132,-1,18
 41 42 41 42 41 83 c 4,19,20
 41 103 41 103 55 115 c 4,21,22
 72 131 72 131 90 147 c 5,23,24
 89 147 89 147 83.5 149 c 132,-1,25
 78 151 78 151 74 151 c 4,26,27
 50 151 50 151 28 120 c 132,-1,28
 6 89 6 89 6 65 c 4,29,30
 6 42 6 42 36.5 10.5 c 132,-1,31
 67 -21 67 -21 96 -27 c 4,32,33
 119 -31 119 -31 142 -31 c 4,34,35
 230 -31 230 -31 289 33 c 132,-1,36
 348 97 348 97 348 193 c 4,37,38
 348 270 348 270 306 314 c 4,39,40
 268 354 268 354 207 354 c 4,41,42
 140 354 140 354 79 307 c 5,43,-1
 84 428 l 5,44,45
 107 429 107 429 142 431 c 4,46,47
 174 433 174 433 187 433 c 4,48,49
 230 433 230 433 258 415 c 4,50,51
 290 395 290 395 336 335 c 5,52,53
 338 339 338 339 338 345 c 4,54,55
 338 360 338 360 316 395 c 4,56,57
 284 446 284 446 278 459 c 4,58,59
 252 512 252 512 229 511 c 5,60,61
 249 488 249 488 249 474 c 4,62,63
 249 458 249 458 219 458 c 4,64,65
 107 456 107 456 39 463 c 5,0,1
EndSplineSet
Validated: 41
EndChar

StartChar: six
Encoding: 54 54 25
Width: 429
GlyphClass: 2
Flags: W
LayerCount: 2
Fore
SplineSet
417 178 m 0,0,1
 417 96 417 96 361.5 47 c 128,-1,2
 306 -2 306 -2 218 -6 c 0,3,4
 111 -8 111 -8 50 91 c 0,5,6
 0 171 0 171 0 269 c 0,7,8
 0 360 0 360 32 436 c 0,9,10
 75 538 75 538 168 581 c 0,11,12
 184 586 184 586 195 586 c 0,13,14
 229 586 229 586 229 540 c 0,15,16
 229 531 229 531 214 516 c 1,17,18
 205 527 205 527 196 537.5 c 128,-1,19
 187 548 187 548 164 548 c 0,20,21
 118 548 118 548 77 451 c 0,22,23
 39 358 39 358 41 273 c 0,24,25
 44 139 44 139 134 67 c 0,26,27
 217 2 217 2 300 33 c 0,28,29
 387 67 387 67 384 188 c 0,30,31
 380 316 380 316 269 316 c 0,32,33
 211 316 211 316 159 279 c 128,-1,34
 107 242 107 242 107 197 c 0,35,36
 107 174 107 174 131 162 c 0,37,38
 137 159 137 159 143.5 160.5 c 128,-1,39
 150 162 150 162 151 160 c 0,40,41
 143 153 143 153 129 153 c 0,42,43
 100 153 100 153 91 174 c 0,44,45
 87 184 87 184 85 224 c 0,46,47
 82 275 82 275 142.5 319 c 128,-1,48
 203 363 203 363 272 363 c 0,49,50
 335 363 335 363 373 322 c 0,51,52
 417 274 417 274 417 178 c 0,0,1
EndSplineSet
Validated: 33
EndChar

StartChar: seven
Encoding: 55 55 26
Width: 345
GlyphClass: 2
Flags: W
LayerCount: 2
Fore
SplineSet
344 580 m 0,0,1
 366 582 366 582 366 565 c 0,2,3
 366 561 366 561 363 550 c 1,4,5
 363 550 363 550 307 491 c 0,6,7
 243 422 243 422 207 348 c 0,8,9
 155 241 155 241 161 122 c 0,10,11
 164 72 164 72 167 37 c 0,12,13
 169 12 169 12 169 1 c 0,14,15
 169 -7 169 -7 159 -17 c 128,-1,16
 149 -27 149 -27 140 -27 c 0,17,18
 116 -27 116 -27 107 5 c 0,19,20
 104 18 104 18 99 68 c 0,21,22
 97 88 97 88 97 107 c 0,23,24
 97 297 97 297 299 534 c 1,25,26
 218 534 218 534 187 531 c 0,27,28
 172 532 172 532 159 532 c 0,29,30
 107 532 107 532 74 514 c 0,31,32
 50 500 50 500 30 473 c 0,33,34
 16 450 16 450 1 428 c 1,35,36
 -1 432 -1 432 -1 438 c 0,37,38
 -1 455 -1 455 20 494 c 0,39,40
 39 529 39 529 57 563 c 0,41,42
 83 615 83 615 106 615 c 1,43,44
 86 591 86 591 86 577 c 0,45,46
 86 562 86 562 116 561 c 0,47,48
 145 561 145 561 195 561 c 1,49,50
 251 568 251 568 344 580 c 0,0,1
EndSplineSet
Validated: 33
EndChar

StartChar: eight
Encoding: 56 56 27
Width: 354
GlyphClass: 2
Flags: W
LayerCount: 2
Fore
SplineSet
359 158 m 0,0,1
 359 85 359 85 284 33 c 0,2,3
 213 -15 213 -15 130 -15 c 0,4,5
 73 -15 73 -15 37 12 c 0,6,7
 -2 42 -2 42 -2 100 c 0,8,9
 -2 178 -2 178 62 252 c 0,10,11
 74 266 74 266 180 362 c 0,12,13
 243 420 243 420 243 459 c 0,14,15
 243 505 243 505 224 534 c 0,16,17
 202 568 202 568 160 568 c 0,18,19
 145 568 145 568 128 564 c 0,20,21
 104 558 104 558 89.5 530.5 c 128,-1,22
 75 503 75 503 75 469 c 0,23,24
 75 434 75 434 91 410 c 128,-1,25
 107 386 107 386 137 386 c 0,26,27
 149 386 149 386 163 390 c 0,28,29
 170 393 170 393 170 403 c 0,30,31
 170 417 170 417 157 448 c 1,32,33
 189 421 189 421 189 400 c 0,34,35
 189 376 189 376 169 360 c 128,-1,36
 149 344 149 344 123 344 c 0,37,38
 27 344 27 344 27 425 c 0,39,40
 27 475 27 475 61 526.5 c 128,-1,41
 95 578 95 578 136 591 c 0,42,43
 155 597 155 597 174 597 c 0,44,45
 224 597 224 597 258.5 563 c 128,-1,46
 293 529 293 529 293 482 c 0,47,48
 293 438 293 438 232 374 c 0,49,50
 175 319 175 319 118 263 c 0,51,52
 57 197 57 197 57 146 c 0,53,54
 57 90 57 90 95 55 c 0,55,56
 129 25 129 25 185 18 c 0,57,58
 225 17 225 17 258 61 c 0,59,60
 286 100 286 100 286 135 c 0,61,62
 286 269 286 269 192 279 c 1,63,64
 168 273 168 273 168 260 c 0,65,66
 168 255 168 255 186 224 c 1,67,68
 170 224 170 224 157 239 c 128,-1,69
 144 254 144 254 144 271 c 0,70,71
 144 310 144 310 208 310 c 0,72,73
 271 310 271 310 318 254 c 0,74,75
 359 205 359 205 359 158 c 0,0,1
EndSplineSet
Validated: 33
EndChar

StartChar: nine
Encoding: 57 57 28
Width: 348
GlyphClass: 2
Flags: W
LayerCount: 2
Fore
SplineSet
171 585 m 0,0,1
 263 578 263 578 307 497 c 0,2,3
 342 433 342 433 342 338 c 0,4,5
 342 314 342 314 339 291 c 0,6,7
 329 198 329 198 290 125 c 0,8,9
 236 25 236 25 138 -12 c 1,10,11
 122 -1 122 -1 112 -6 c 1,12,13
 96 -3 96 -3 88.5 11 c 128,-1,14
 81 25 81 25 82 35 c 0,15,16
 83 44 83 44 99 57 c 1,17,18
 107 45 107 45 115 34 c 128,-1,19
 123 23 123 23 145 20 c 0,20,21
 196 15 196 15 239 123 c 0,22,23
 279 227 279 227 279 347 c 0,24,25
 279 436 279 436 253 490 c 0,26,27
 223 552 223 552 164 556 c 0,28,29
 121 559 121 559 92 502 c 0,30,31
 67 449 67 449 67 380 c 0,32,33
 67 328 67 328 84 293 c 0,34,35
 102 255 102 255 137 252 c 0,36,37
 187 247 187 247 216 282 c 0,38,39
 240 312 240 312 240 352 c 0,40,41
 240 393 240 393 216 396 c 0,42,43
 203 397 203 397 199 405 c 1,44,45
 213 415 213 415 222 410 c 0,46,47
 265 385 265 385 265 342 c 0,48,49
 265 297 265 297 221 255.5 c 128,-1,50
 177 214 177 214 130 214 c 0,51,52
 109 214 109 214 92 224 c 1,53,54
 51 232 51 232 26 281 c 0,55,56
 3 327 3 327 3 389 c 0,57,58
 3 473 3 473 43 528 c 0,59,60
 89 591 89 591 171 585 c 0,0,1
EndSplineSet
Validated: 33
EndChar

StartChar: colon
Encoding: 58 58 29
Width: 178
GlyphClass: 2
Flags: W
LayerCount: 2
Fore
SplineSet
47 17 m 256,0,1
 47 33 47 33 58.5 44.5 c 128,-1,2
 70 56 70 56 86 56 c 256,3,4
 102 56 102 56 113.5 44.5 c 128,-1,5
 125 33 125 33 125 17 c 256,6,7
 125 1 125 1 113.5 -10.5 c 128,-1,8
 102 -22 102 -22 86 -22 c 256,9,10
 70 -22 70 -22 58.5 -10.5 c 128,-1,11
 47 1 47 1 47 17 c 256,0,1
47 318 m 256,12,13
 47 334 47 334 58.5 345.5 c 128,-1,14
 70 357 70 357 86 357 c 256,15,16
 102 357 102 357 113.5 345.5 c 128,-1,17
 125 334 125 334 125 318 c 256,18,19
 125 302 125 302 113.5 290.5 c 128,-1,20
 102 279 102 279 86 279 c 256,21,22
 70 279 70 279 58.5 290.5 c 128,-1,23
 47 302 47 302 47 318 c 256,12,13
EndSplineSet
Validated: 1
EndChar

StartChar: semicolon
Encoding: 59 59 30
Width: 178
GlyphClass: 2
Flags: W
LayerCount: 2
Fore
SplineSet
47 17 m 0,0,1
 47 33 47 33 58.5 44.5 c 128,-1,2
 70 56 70 56 86 56 c 256,3,4
 102 56 102 56 113.5 44.5 c 128,-1,5
 125 33 125 33 125 17 c 0,6,7
 125 -5 125 -5 107 -31 c 0,8,9
 83 -64 83 -64 43 -73 c 1,10,11
 48 -67 48 -67 54 -61 c 0,12,13
 74 -44 74 -44 74 -31 c 0,14,15
 74 -19 74 -19 60.5 -9.5 c 128,-1,16
 47 0 47 0 47 17 c 0,0,1
47 318 m 256,17,18
 47 334 47 334 58.5 345.5 c 128,-1,19
 70 357 70 357 86 357 c 256,20,21
 102 357 102 357 113.5 345.5 c 128,-1,22
 125 334 125 334 125 318 c 256,23,24
 125 302 125 302 113.5 290.5 c 128,-1,25
 102 279 102 279 86 279 c 256,26,27
 70 279 70 279 58.5 290.5 c 128,-1,28
 47 302 47 302 47 318 c 256,17,18
EndSplineSet
Validated: 1
EndChar

StartChar: less
Encoding: 60 60 31
Width: 559
GlyphClass: 2
Flags: W
LayerCount: 2
Fore
SplineSet
222 553 m 1,0,1
 329 643 329 643 426 708 c 0,2,3
 518 770 518 770 564 809 c 1,4,5
 440 769 440 769 304 693 c 128,-1,6
 168 617 168 617 116 560 c 2,7,-1
 -21 409 l 1,8,-1
 143 260 l 2,9,10
 218 191 218 191 365 109 c 0,11,12
 483 42 483 42 591 -4 c 1,13,14
 496 65 496 65 402 134 c 0,15,16
 296 213 296 213 255 259 c 0,17,18
 111 413 111 413 112 417 c 256,19,20
 113 421 113 421 222 553 c 1,0,1
EndSplineSet
Validated: 41
EndChar

StartChar: equal
Encoding: 61 61 32
Width: 437
GlyphClass: 2
Flags: W
LayerCount: 2
Fore
SplineSet
22 151 m 4,0,1
 17 147 17 147 17 130 c 5,2,3
 102 128 102 128 418 130 c 5,4,5
 406 138 406 138 409 154 c 4,6,7
 411 166 411 166 414 172 c 260,8,9
 417 178 417 178 417 171 c 4,10,11
 417 162 417 162 234 162 c 4,12,13
 90 162 90 162 20 171 c 5,14,15
 28 156 28 156 22 151 c 4,0,1
22 21 m 0,16,17
 17 17 17 17 17 0 c 1,18,19
 102 -2 102 -2 418 0 c 1,20,21
 406 8 406 8 409 24 c 0,22,23
 411 36 411 36 414 42 c 256,24,25
 417 48 417 48 417 41 c 0,26,27
 417 32 417 32 234 32 c 0,28,29
 90 32 90 32 20 41 c 1,30,31
 28 26 28 26 22 21 c 0,16,17
EndSplineSet
Validated: 37
EndChar

StartChar: greater
Encoding: 62 62 33
Width: 559
GlyphClass: 2
Flags: W
LayerCount: 2
Fore
SplineSet
340 241 m 1,0,1
 233 151 233 151 136 86 c 0,2,3
 44 24 44 24 -2 -15 c 1,4,5
 122 25 122 25 258 101 c 128,-1,6
 394 177 394 177 446 234 c 2,7,-1
 583 385 l 1,8,-1
 419 534 l 2,9,10
 344 603 344 603 197 685 c 0,11,12
 79 752 79 752 -29 798 c 1,13,14
 66 729 66 729 160 660 c 0,15,16
 266 581 266 581 307 535 c 0,17,18
 451 381 451 381 450 377 c 256,19,20
 449 373 449 373 340 241 c 1,0,1
EndSplineSet
Validated: 41
EndChar

StartChar: question
Encoding: 63 63 34
Width: 321
GlyphClass: 2
Flags: W
LayerCount: 2
Fore
SplineSet
127 17 m 256,0,1
 127 33 127 33 138.5 44.5 c 128,-1,2
 150 56 150 56 166 56 c 256,3,4
 182 56 182 56 193.5 44.5 c 128,-1,5
 205 33 205 33 205 17 c 256,6,7
 205 1 205 1 193.5 -10.5 c 128,-1,8
 182 -22 182 -22 166 -22 c 256,9,10
 150 -22 150 -22 138.5 -10.5 c 128,-1,11
 127 1 127 1 127 17 c 256,0,1
173 144 m 4,13,14
 193 144 193 144 216.5 162.5 c 132,-1,15
 240 181 240 181 240 201 c 4,16,17
 240 229 240 229 225 246 c 4,18,19
 212 256 212 256 200 267 c 4,20,21
 184 281 184 281 184 292 c 260,22,23
 184 303 184 303 195 311 c 5,24,25
 188 310 188 310 183 301 c 132,-1,26
 178 292 178 292 178 288 c 4,27,28
 178 271 178 271 200 251 c 132,-1,29
 222 231 222 231 222 208 c 4,30,31
 222 187 222 187 205.5 174.5 c 132,-1,32
 189 162 189 162 169 164 c 4,33,34
 110 171 110 171 110 252 c 4,35,36
 110 280 110 280 141.5 339.5 c 132,-1,37
 173 399 173 399 203 427 c 4,38,39
 271 490 271 490 288 553 c 4,40,41
 299 596 299 596 299 599 c 4,42,43
 299 631 299 631 286 659 c 132,-1,44
 273 687 273 687 214 707 c 4,45,46
 207 710 207 710 189 706 c 4,47,48
 166 702 166 702 160 701 c 4,49,50
 148 701 148 701 133.5 702 c 132,-1,51
 119 703 119 703 121 703 c 5,52,53
 101 703 101 703 87 693 c 4,54,55
 86 693 86 693 77 687 c 4,56,57
 75 686 75 686 72 685 c 4,58,59
 60 682 60 682 36 672 c 4,60,61
 20 666 20 666 11 650 c 5,62,63
 25 664 25 664 31 663 c 4,64,65
 34 662 34 662 33.5 655 c 132,-1,66
 33 648 33 648 35 646 c 5,67,68
 30 653 30 653 41 666 c 132,-1,69
 52 679 52 679 69 679 c 4,70,71
 72 679 72 679 74 678 c 4,72,73
 77 674 77 674 88 668.5 c 132,-1,74
 99 663 99 663 103 664 c 4,75,76
 110 666 110 666 118 666 c 4,77,78
 146 666 146 666 176 645 c 132,-1,79
 206 624 206 624 219 596 c 4,80,81
 225 582 225 582 225 565 c 4,82,83
 225 523 225 523 153.5 413.5 c 132,-1,84
 82 304 82 304 82 245 c 4,85,86
 82 207 82 207 103 175.5 c 132,-1,12
 124 144 124 144 173 144 c 4,13,14
EndSplineSet
Validated: 37
EndChar

StartChar: at
Encoding: 64 64 35
Width: 612
GlyphClass: 2
Flags: W
LayerCount: 2
Fore
SplineSet
-22 57 m 0,0,1
 -4 30 -4 30 71 6 c 0,2,3
 158 -23 158 -23 259 -23 c 0,4,5
 361 -23 361 -23 456 8 c 0,6,7
 649 70 649 70 645 260 c 0,8,9
 644 321 644 321 585 380 c 0,10,11
 581 385 581 385 469 446 c 0,12,13
 367 502 367 502 367 521 c 0,14,15
 367 542 367 542 387 557 c 1,16,17
 375 556 375 556 364.5 538.5 c 128,-1,18
 354 521 354 521 354 514 c 0,19,20
 354 486 354 486 415 449 c 0,21,22
 532 378 532 378 533 377 c 0,23,24
 599 328 599 328 609 273 c 0,25,26
 611 261 611 261 611 249 c 0,27,28
 611 162 611 162 508 93 c 0,29,30
 412 29 412 29 306 27 c 0,31,32
 111 23 111 23 35 75 c 0,33,34
 -17 111 -17 111 -17 182 c 0,35,36
 -17 192 -17 192 -16 209.5 c 128,-1,37
 -15 227 -15 227 -15 233 c 0,38,39
 -15 276 -15 276 46 331 c 0,40,41
 94 371 94 371 142 410 c 0,42,43
 177 442 177 442 213 473 c 1,44,45
 256 517 256 517 266 553 c 0,46,47
 272 573 272 573 272 609 c 0,48,49
 272 639 272 639 258 668 c 0,50,51
 237 712 237 712 202 723 c 0,52,53
 200 724 200 724 145 723 c 0,54,55
 131 723 131 723 114.5 724 c 128,-1,56
 98 725 98 725 99 725 c 1,57,58
 77 725 77 725 61 713 c 0,59,60
 59 713 59 713 49 707 c 0,61,62
 48 704 48 704 46 701 c 0,63,64
 28 697 28 697 14 696.5 c 128,-1,65
 0 696 0 696 -6 695 c 0,66,67
 -17 693 -17 693 -24 687 c 1,68,69
 -3 696 -3 696 3 692 c 0,70,71
 5 690 5 690 2 683 c 128,-1,72
 -1 676 -1 676 0 673 c 1,73,74
 -3 685 -3 685 10 692 c 0,75,76
 21 696 21 696 36 696 c 0,77,78
 48 696 48 696 48 696 c 1,79,80
 50 692 50 692 61 683 c 1,81,82
 74 679 74 679 79 680 c 256,83,84
 84 681 84 681 89 681 c 0,85,86
 120 681 120 681 152 642.5 c 128,-1,87
 184 604 184 604 184 577 c 0,88,89
 184 532 184 532 119 464 c 0,90,91
 58 402 58 402 -3 340 c 1,92,93
 -68 260 -68 260 -68 187 c 0,94,95
 -68 124 -68 124 -22 57 c 0,0,1
465 100 m 0,96,97
 390 104 390 104 358 128 c 0,98,99
 319 157 319 157 319 228 c 0,100,101
 319 241 319 241 320 256 c 2,102,-1
 327 337 l 1,103,104
 301 350 301 350 272 350 c 0,105,106
 215 350 215 350 146 298 c 0,107,108
 100 263 100 263 100 221 c 0,109,110
 100 185 100 185 131 157 c 128,-1,111
 162 129 162 129 198 129 c 0,112,113
 244 129 244 129 269 179 c 1,114,115
 269 138 269 138 231 116 c 0,116,117
 200 99 200 99 155 99 c 0,118,119
 93 99 93 99 60 128 c 0,120,121
 34 150 34 150 31 184 c 0,122,123
 23 277 23 277 138 329 c 0,124,125
 226 369 226 369 330 369 c 1,126,127
 330 385 330 385 294 385 c 0,128,129
 293 385 293 385 286.5 388.5 c 128,-1,130
 280 392 280 392 278 392 c 2,131,-1
 269 408 l 1,132,133
 420 379 420 379 503 375 c 1,134,-1
 507 353 l 1,135,136
 490 353 490 353 466 356.5 c 128,-1,137
 442 360 442 360 435 360 c 0,138,139
 397 360 397 360 394 346 c 0,140,141
 370 239 370 239 370 208 c 0,142,143
 370 113 370 113 451 115 c 0,144,145
 470 116 470 116 485 131 c 128,-1,146
 500 146 500 146 503 144 c 256,147,148
 506 142 506 142 506 135 c 0,149,150
 506 122 506 122 497 112 c 0,151,152
 485 99 485 99 465 100 c 0,96,97
EndSplineSet
Validated: 37
EndChar

StartChar: A
Encoding: 65 65 36
Width: 374
GlyphClass: 2
Flags: W
LayerCount: 2
Fore
SplineSet
180 448 m 5,0,1
 172 505 172 505 152 587 c 5,2,3
 144 543 144 543 128 448 c 5,4,-1
 180 448 l 5,0,1
342 0 m 5,5,6
 333 3 333 3 291 5 c 4,7,8
 280 5 280 5 251 1 c 4,9,10
 233 -1 233 -1 229 2 c 4,11,12
 221 10 221 10 238 14 c 4,13,14
 253 15 253 15 255 21 c 4,15,16
 256 24 256 24 256 28 c 4,17,18
 256 40 256 40 223.5 220 c 132,-1,19
 191 400 191 400 185 421 c 5,20,-1
 123 421 l 5,21,22
 110 354 110 354 86 199 c 4,23,24
 61 33 61 33 65 27 c 4,25,26
 75 20 75 20 83.5 18.5 c 132,-1,27
 92 17 92 17 95.5 14.5 c 132,-1,28
 99 12 99 12 99 7 c 4,29,30
 99 1 99 1 95 0 c 4,31,32
 48 5 48 5 50 5 c 4,33,34
 56 5 56 5 6 0 c 4,35,36
 1 0 1 0 0 4 c 4,37,38
 -1 9 -1 9 3 13 c 4,39,40
 8 14 8 14 14 16 c 4,41,42
 24 19 24 19 28 28 c 4,43,44
 71 278 71 278 138 638 c 4,45,46
 142 649 142 649 141 652 c 4,47,48
 135 653 135 653 133 651 c 4,49,50
 121 636 121 636 109 622 c 4,51,52
 73 563 73 563 73 536 c 4,53,54
 73 516 73 516 82.5 494.5 c 132,-1,55
 92 473 92 473 92 463 c 4,56,57
 92 446 92 446 77 425 c 4,58,59
 72 420 72 420 69 420 c 4,60,61
 68 422 68 422 67 424 c 4,62,63
 67 426 67 426 73 433 c 132,-1,64
 79 440 79 440 79 448 c 4,65,66
 79 451 79 451 78 455 c 4,67,68
 72 474 72 474 52 506 c 4,69,70
 35 533 35 533 35 549 c 4,71,72
 35 569 35 569 65 606 c 4,73,74
 106 656 106 656 125 694 c 4,75,76
 137 718 137 718 141 724 c 4,77,78
 152 742 152 742 166 744 c 4,79,80
 174 744 174 744 181 729 c 5,81,82
 204 559 204 559 243 362 c 4,83,84
 276 195 276 195 310 28 c 4,85,86
 314 18 314 18 339 12 c 5,87,88
 347 5 347 5 342 0 c 5,5,6
EndSplineSet
Validated: 37
EndChar

StartChar: B
Encoding: 66 66 37
Width: 289
GlyphClass: 2
Flags: W
LayerCount: 2
Fore
SplineSet
12 35 m 2,0,1
 13 29 13 29 3 13 c 1,2,3
 -9 2 -9 2 5 0 c 0,4,5
 142 0 142 0 170.5 2.5 c 128,-1,6
 199 5 199 5 225 19 c 0,7,8
 239 25 239 25 251.5 65.5 c 128,-1,9
 264 106 264 106 264 152 c 0,10,11
 264 273 264 273 179 293 c 1,12,13
 231 313 231 313 242.5 324.5 c 128,-1,14
 254 336 254 336 265 380 c 1,15,16
 272 444 272 444 272 493 c 0,17,18
 272 747 272 747 116 745 c 2,19,-1
 38 742 l 2,20,21
 20 739 20 739 -3 692 c 0,22,23
 -23 653 -23 653 -64 608 c 0,24,25
 -93 577 -93 577 -93 548 c 0,26,27
 -93 532 -93 532 -76 505 c 0,28,29
 -55 473 -55 473 -50 454 c 0,30,31
 -49 450 -49 450 -49 446 c 0,32,33
 -49 439 -49 439 -55 432 c 128,-1,34
 -61 425 -61 425 -61 423 c 0,35,36
 -60 421 -60 421 -59 418 c 0,37,38
 -56 418 -56 418 -51 423 c 0,39,40
 -36 444 -36 444 -36 461 c 0,41,42
 -36 471 -36 471 -45.5 493 c 128,-1,43
 -55 515 -55 515 -55 535 c 0,44,45
 -55 562 -55 562 -19 621 c 1,46,47
 1 640 1 640 5 650 c 0,48,49
 6 653 6 653 9 653 c 0,50,51
 13 653 13 653 12 644 c 2,52,-1
 12 35 l 2,0,1
208 363 m 1,53,54
 187 314 187 314 143 305 c 1,55,56
 107 302 107 302 70 299 c 1,57,-1
 69 716 l 1,58,59
 75 719 75 719 99 722 c 0,60,61
 216 732 216 732 216 491 c 0,62,63
 216 426 216 426 208 363 c 1,53,54
209 128 m 0,64,65
 209 20 209 20 116 20 c 0,66,67
 95 20 95 20 68 26 c 1,68,-1
 68 276 l 1,69,70
 84 279 84 279 99 279 c 0,71,72
 209 279 209 279 209 128 c 0,64,65
EndSplineSet
Validated: 41
EndChar

StartChar: C
Encoding: 67 67 38
Width: 345
GlyphClass: 2
Flags: W
LayerCount: 2
Fore
SplineSet
233 771 m 4,0,1
 234 773 234 773 234 775 c 4,2,3
 234 783 234 783 222.5 791.5 c 132,-1,4
 211 800 211 800 198 800 c 4,5,6
 86 800 86 800 30 612 c 4,7,8
 -2 504 -2 504 -2 403 c 4,9,10
 -2 278 -2 278 45 178 c 4,11,12
 131 -6 131 -6 282 -100 c 4,13,14
 404 -176 404 -176 505 -200 c 5,15,-1
 519 -200 l 6,16,17
 534 -200 534 -200 534 -197 c 4,18,19
 534 -190 534 -190 466 -175 c 5,20,21
 252 -70 252 -70 156 64 c 4,22,23
 88 161 88 161 70 297 c 4,24,25
 59 385 59 385 59 465 c 4,26,27
 59 698 59 698 153 762 c 4,28,29
 159 765 159 765 164 767 c 4,30,31
 183 773 183 773 197 771 c 4,32,33
 209 769 209 769 221 767 c 4,34,35
 229 765 229 765 233 771 c 4,0,1
EndSplineSet
Validated: 41
EndChar

StartChar: D
Encoding: 68 68 39
Width: 286
GlyphClass: 2
Flags: W
LayerCount: 2
Fore
SplineSet
2 2 m 2,0,1
 -12 4 -12 4 0 15 c 0,2,3
 6 22 6 22 7 26 c 0,4,5
 7 34 7 34 9 37 c 2,6,-1
 9 646 l 2,7,8
 10 655 10 655 6 655 c 0,9,10
 1 656 1 656 0 653 c 0,11,12
 -7 641 -7 641 -23 623 c 1,13,14
 -58 564 -58 564 -58 537 c 0,15,16
 -58 517 -58 517 -48.5 495 c 128,-1,17
 -39 473 -39 473 -39 464 c 0,18,19
 -39 447 -39 447 -55 425 c 0,20,21
 -60 420 -60 420 -62 420 c 0,22,23
 -64 423 -64 423 -65 425 c 0,24,25
 -64 427 -64 427 -58 434 c 128,-1,26
 -52 441 -52 441 -52 448 c 0,27,28
 -52 452 -52 452 -53 456 c 0,29,30
 -59 475 -59 475 -79 507 c 0,31,32
 -97 534 -97 534 -97 550 c 0,33,34
 -97 579 -97 579 -68 610 c 0,35,36
 -26 655 -26 655 -6 695 c 0,37,38
 5 718 5 718 9 725 c 0,39,40
 21 742 21 742 34 745 c 0,41,42
 75 749 75 749 125 739 c 128,-1,43
 175 729 175 729 211 706 c 0,44,45
 258 676 258 676 262 636 c 0,46,47
 270 557 270 557 270 387 c 0,48,49
 270 147 270 147 253 77 c 0,50,51
 241 26 241 26 179 9 c 0,52,53
 146 0 146 0 81 0 c 2,54,-1
 2 2 l 2,0,1
62 721 m 1,55,-1
 62 30 l 1,56,57
 81 25 81 25 102 25 c 0,58,59
 184 25 184 25 199 104.5 c 128,-1,60
 214 184 214 184 214 402 c 0,61,62
 214 605 214 605 201 655 c 0,63,64
 184 721 184 721 62 721 c 1,55,-1
2 2 m 1024,65,-1
EndSplineSet
Validated: 33
EndChar

StartChar: E
Encoding: 69 69 40
Width: 295
GlyphClass: 2
Flags: W
LayerCount: 2
Fore
SplineSet
28 695 m 256,0,1
 36 695 36 695 40.5 685 c 128,-1,2
 45 675 45 675 44 665 c 2,3,-1
 44 46 l 1,4,5
 33 20 33 20 19 20 c 1,6,7
 6 15 6 15 6 4 c 0,8,9
 6 0 6 0 10 0 c 2,10,-1
 189 0 l 2,11,12
 219 -1 219 -1 219 -16 c 0,13,14
 219 -30 219 -30 199 -54 c 1,15,16
 222 -54 222 -54 248 -2 c 0,17,18
 252 7 252 7 283 59 c 0,19,20
 302 92 302 92 302 107 c 0,21,22
 302 113 302 113 299 117 c 1,23,24
 278 86 278 86 258 54 c 1,25,26
 226 18 226 18 168 18 c 0,27,28
 138 18 138 18 100 27 c 1,29,-1
 100 487 l 1,30,31
 130 493 130 493 146 463 c 0,32,33
 159 440 159 440 159 407 c 0,34,35
 159 386 159 386 139 361 c 1,36,37
 173 367 173 367 173 404 c 0,38,39
 173 421 173 421 164 457 c 128,-1,40
 155 493 155 493 157 503 c 0,41,42
 159 512 159 512 168 525 c 128,-1,43
 177 538 177 538 179 546 c 0,44,45
 184 562 184 562 175 585 c 1,46,47
 174 572 174 572 163 541 c 1,48,49
 144 508 144 508 122 508 c 0,50,51
 118 508 118 508 102 510 c 1,52,53
 101 552 101 552 101 737 c 1,54,55
 138 745 138 745 209 736 c 0,56,57
 226 734 226 734 228.5 695 c 128,-1,58
 231 656 231 656 240 656 c 1,59,60
 244 745 244 745 237 756 c 1,61,62
 215 754 215 754 40 757 c 0,63,64
 25 754 25 754 0 705 c 0,65,66
 -19 665 -19 665 -61 621 c 0,67,68
 -90 590 -90 590 -90 560 c 0,69,70
 -90 545 -90 545 -73 518 c 0,71,72
 -52 485 -52 485 -47 467 c 0,73,74
 -45 462 -45 462 -45 459 c 0,75,76
 -45 452 -45 452 -51 444.5 c 128,-1,77
 -57 437 -57 437 -58 436 c 0,78,79
 -57 433 -57 433 -56 431 c 0,80,81
 -53 431 -53 431 -48 436 c 0,82,83
 -32 457 -32 457 -32 474 c 0,84,85
 -32 485 -32 485 -41 506.5 c 128,-1,86
 -50 528 -50 528 -52 547 c 0,87,88
 -54 579 -54 579 -41.5 597 c 128,-1,89
 -29 615 -29 615 -16 633 c 1,90,-1
 -26 617 l 1,91,-1
 -26 617 l 1,92,93
 -25 620 -25 620 -15 636 c 0,94,95
 20 695 20 695 28 695 c 256,0,1
EndSplineSet
Validated: 37
EndChar

StartChar: F
Encoding: 70 70 41
Width: 301
GlyphClass: 2
Flags: W
LayerCount: 2
Fore
SplineSet
257 756 m 1,0,1
 264 745 264 745 260 656 c 1,2,3
 251 656 251 656 248.5 695 c 128,-1,4
 246 734 246 734 229 736 c 0,5,6
 158 745 158 745 121 737 c 1,7,8
 121 540 121 540 122 510 c 1,9,10
 138 508 138 508 142 508 c 0,11,12
 164 508 164 508 183 541 c 0,13,14
 192 558 192 558 195 585 c 1,15,16
 204 562 204 562 199 546 c 1,17,18
 189 533 189 533 177 503 c 0,19,20
 175 493 175 493 184 457 c 128,-1,21
 193 421 193 421 193 404 c 0,22,23
 193 367 193 367 159 361 c 1,24,25
 179 386 179 386 179 407 c 0,26,27
 179 440 179 440 166 463 c 0,28,29
 150 493 150 493 120 487 c 1,30,-1
 120 47 l 2,31,32
 123 41 123 41 127 34.5 c 128,-1,33
 131 28 131 28 158 24 c 1,34,35
 166 13 166 13 166 7 c 0,36,37
 166 0 166 0 159 0 c 2,38,-1
 30 0 l 2,39,40
 26 0 26 0 26 4 c 0,41,42
 26 15 26 15 39 20 c 1,43,44
 53 20 53 20 64 46 c 1,45,-1
 64 665 l 2,46,47
 65 675 65 675 60.5 685 c 128,-1,48
 56 695 56 695 48 695 c 256,49,50
 40 695 40 695 5 636 c 0,51,52
 -3 623 -3 623 -6 617 c 1,53,-1
 -6 617 l 1,54,-1
 4 633 l 1,55,56
 -9 615 -9 615 -21.5 597 c 128,-1,57
 -34 579 -34 579 -32 547 c 0,58,59
 -30 528 -30 528 -21 506.5 c 128,-1,60
 -12 485 -12 485 -12 474 c 0,61,62
 -12 457 -12 457 -28 436 c 0,63,64
 -33 431 -33 431 -36 431 c 0,65,66
 -37 433 -37 433 -38 436 c 0,67,68
 -37 437 -37 437 -31 444.5 c 128,-1,69
 -25 452 -25 452 -25 459 c 0,70,71
 -25 462 -25 462 -27 467 c 0,72,73
 -32 485 -32 485 -53 518 c 0,74,75
 -70 545 -70 545 -70 560 c 0,76,77
 -70 590 -70 590 -41 621 c 0,78,79
 1 665 1 665 20 705 c 0,80,81
 35 736 35 736 36 736 c 0,82,83
 47 755 47 755 60 757 c 0,84,85
 235 754 235 754 257 756 c 1,0,1
EndSplineSet
Validated: 37
EndChar

StartChar: G
Encoding: 71 71 42
Width: 455
GlyphClass: 2
Flags: W
LayerCount: 2
Fore
SplineSet
459 -202 m 0,0,1
 428 -195 428 -195 329 -113 c 0,2,3
 256 -53 256 -53 206 -5 c 0,4,5
 139 59 139 59 82 171 c 0,6,7
 20 291 20 291 20 374 c 0,8,9
 20 378 20 378 18.5 408.5 c 128,-1,10
 17 439 17 439 17 463 c 0,11,12
 17 715 17 715 190 791 c 0,13,14
 199 795 199 795 210 795 c 0,15,16
 245 795 245 795 245 770 c 0,17,18
 245 766 245 766 243 763 c 0,19,20
 218 756 218 756 205 766 c 1,21,22
 70 712 70 712 70 503 c 0,23,24
 70 322 70 322 166 131 c 0,25,26
 265 -66 265 -66 396 -125 c 1,27,28
 396 -104 396 -104 401.5 -59.5 c 128,-1,29
 407 -15 407 -15 407 6 c 0,30,31
 407 52 407 52 385 75 c 0,32,33
 314 151 314 151 314 210 c 0,34,35
 314 261 314 261 366 300 c 1,36,37
 327 264 327 264 327 230 c 0,38,39
 327 200 327 200 363 157 c 0,40,41
 418 91 418 91 426 78 c 0,42,43
 449 40 449 40 442 -84 c 0,44,45
 441 -95 441 -95 451 -141.5 c 128,-1,46
 461 -188 461 -188 461 -197 c 0,47,48
 461 -202 461 -202 459 -202 c 0,0,1
EndSplineSet
Validated: 33
EndChar

StartChar: H
Encoding: 72 72 43
Width: 388
GlyphClass: 2
Flags: W
LayerCount: 2
Fore
SplineSet
107 736 m 0,0,1
 162 737 162 737 166 736 c 0,2,3
 170 729 170 729 170 723 c 0,4,5
 170 713 170 713 160 707 c 0,6,7
 153 707 153 707 140 703 c 0,8,9
 139 702 139 702 136 697 c 2,10,-1
 136 510 l 1,11,12
 148 509 148 509 202 508 c 0,13,14
 258 508 258 508 264 510 c 1,15,16
 264 558 264 558 263 673 c 1,17,18
 278 777 278 777 309.5 831.5 c 128,-1,19
 341 886 341 886 417 940 c 1,20,21
 353 849 353 849 339 795 c 0,22,23
 322 730 322 730 322 548 c 2,24,-1
 322 46 l 1,25,26
 333 20 333 20 346 20 c 1,27,28
 359 15 359 15 359 4 c 0,29,30
 359 0 359 0 355 0 c 0,31,32
 315 4 315 4 307 4 c 0,33,34
 302 4 302 4 247 0 c 1,35,36
 239 10 239 10 251 13 c 0,37,38
 257 15 257 15 260 20 c 128,-1,39
 263 25 263 25 266 27 c 2,40,-1
 266 487 l 1,41,42
 200 487 200 487 134 487 c 1,43,-1
 134 37 l 2,44,45
 137 31 137 31 140 27 c 0,46,47
 149 16 149 16 161 15 c 0,48,49
 169 14 169 14 163 0 c 1,50,-1
 44 0 l 2,51,52
 40 0 40 0 40 4 c 0,53,54
 40 15 40 15 53 20 c 1,55,56
 67 20 67 20 78 46 c 1,57,-1
 78 665 l 2,58,59
 79 675 79 675 58 675 c 0,60,61
 50 675 50 675 15 616 c 0,62,63
 7 603 7 603 4 597 c 1,64,-1
 4 597 l 1,65,-1
 14 613 l 1,66,67
 1 595 1 595 -11.5 577 c 128,-1,68
 -24 559 -24 559 -22 527 c 0,69,70
 -20 508 -20 508 -11 486.5 c 128,-1,71
 -2 465 -2 465 -2 454 c 0,72,73
 -2 437 -2 437 -18 416 c 0,74,75
 -23 411 -23 411 -26 411 c 0,76,77
 -27 413 -27 413 -28 416 c 0,78,79
 -27 417 -27 417 -21 424.5 c 128,-1,80
 -15 432 -15 432 -15 439 c 0,81,82
 -15 442 -15 442 -17 447 c 0,83,84
 -22 465 -22 465 -43 498 c 0,85,86
 -60 525 -60 525 -60 540 c 0,87,88
 -60 570 -60 570 -31 601 c 0,89,90
 11 645 11 645 30 685 c 0,91,92
 45 716 45 716 46 716 c 0,93,94
 57 735 57 735 70 737 c 0,95,96
 75 737 75 737 85 736 c 0,97,98
 94 736 94 736 107 736 c 0,0,1
EndSplineSet
Validated: 37
EndChar

StartChar: I
Encoding: 73 73 44
Width: 176
GlyphClass: 2
Flags: W
LayerCount: 2
Fore
SplineSet
87 736 m 0,0,1
 142 737 142 737 146 736 c 0,2,3
 150 733 150 733 150 729 c 0,4,5
 150 723 150 723 140 717 c 0,6,7
 124 711 124 711 121.5 707 c 128,-1,8
 119 703 119 703 116 697 c 2,9,-1
 116 39 l 2,10,11
 118 33 118 33 121 28 c 0,12,13
 129 16 129 16 141 15 c 0,14,15
 149 14 149 14 143 0 c 1,16,-1
 24 0 l 2,17,18
 20 0 20 0 20 4 c 0,19,20
 20 15 20 15 33 20 c 1,21,22
 47 20 47 20 58 46 c 1,23,-1
 58 665 l 2,24,25
 61 685 61 685 38 685 c 0,26,27
 30 685 30 685 -5 626 c 0,28,29
 -13 613 -13 613 -16 607 c 1,30,-1
 -16 607 l 1,31,-1
 -6 623 l 1,32,33
 -19 605 -19 605 -31.5 587 c 128,-1,34
 -44 569 -44 569 -42 537 c 0,35,36
 -40 518 -40 518 -31 496.5 c 128,-1,37
 -22 475 -22 475 -22 464 c 0,38,39
 -22 447 -22 447 -38 426 c 0,40,41
 -43 421 -43 421 -46 421 c 0,42,43
 -47 423 -47 423 -48 426 c 0,44,45
 -47 427 -47 427 -41 434.5 c 128,-1,46
 -35 442 -35 442 -35 449 c 0,47,48
 -35 452 -35 452 -37 457 c 0,49,50
 -42 475 -42 475 -63 508 c 0,51,52
 -80 535 -80 535 -80 550 c 0,53,54
 -80 580 -80 580 -51 611 c 0,55,56
 -9 655 -9 655 10 695 c 0,57,58
 21 716 21 716 23 719 c 0,59,60
 31 731 31 731 44 733 c 0,61,62
 50 733 50 733 62.5 734.5 c 128,-1,63
 75 736 75 736 87 736 c 0,0,1
EndSplineSet
Validated: 37
EndChar

StartChar: J
Encoding: 74 74 45
Width: 214
GlyphClass: 2
Flags: W
LayerCount: 2
Fore
SplineSet
88 163 m 2,0,1
 86 -16 86 -16 69 -78 c 0,2,3
 56 -124 56 -124 -9 -217 c 1,4,5
 67 -163 67 -163 99.5 -105 c 128,-1,6
 132 -47 132 -47 146 58 c 1,7,-1
 145 695 l 1,8,9
 149 700 149 700 152 706 c 0,10,11
 154 709 154 709 170 715 c 0,12,13
 180 721 180 721 180 727 c 0,14,15
 180 731 180 731 176 734 c 0,16,17
 171 734 171 734 117 734 c 0,18,19
 104 734 104 734 97 734 c 0,20,21
 89 735 89 735 84 735 c 0,22,23
 63 731 63 731 40 685 c 0,24,25
 21 645 21 645 -21 601 c 0,26,27
 -50 570 -50 570 -50 540 c 0,28,29
 -50 525 -50 525 -33 498 c 0,30,31
 -12 465 -12 465 -7 447 c 0,32,33
 -5 442 -5 442 -5 439 c 0,34,35
 -5 432 -5 432 -11 424.5 c 128,-1,36
 -17 417 -17 417 -18 416 c 0,37,38
 -17 413 -17 413 -16 411 c 0,39,40
 -13 411 -13 411 -8 416 c 0,41,42
 8 437 8 437 8 454 c 0,43,44
 8 465 8 465 -1 486.5 c 128,-1,45
 -10 508 -10 508 -12 527 c 0,46,47
 -14 559 -14 559 -1.5 577 c 128,-1,48
 11 595 11 595 24 613 c 1,49,-1
 14 597 l 1,50,-1
 14 597 l 1,51,52
 15 600 15 600 25 616 c 0,53,54
 60 675 60 675 68 675 c 0,55,56
 91 675 91 675 89 663 c 2,57,-1
 88 163 l 2,0,1
EndSplineSet
Validated: 37
EndChar

StartChar: K
Encoding: 75 75 46
Width: 388
GlyphClass: 2
Flags: W
LayerCount: 2
Fore
SplineSet
77 735 m 0,0,1
 139 735 139 735 137 736 c 1,2,3
 141 733 141 733 141 729 c 0,4,5
 141 723 141 723 131 717 c 0,6,7
 115 710 115 710 113 708 c 0,8,9
 110 702 110 702 107 697 c 2,10,-1
 107 370 l 1,11,12
 169 382 169 382 250 573 c 0,13,14
 333 769 333 769 333 917 c 0,15,16
 333 933 333 933 332 948 c 1,17,18
 359 884 359 884 359 812 c 0,19,20
 359 732 359 732 326 641 c 0,21,22
 315 609 315 609 276 527 c 0,23,24
 248 470 248 470 207 413 c 0,25,26
 178 376 178 376 150 338 c 1,27,28
 236 175 236 175 320 56 c 0,29,30
 343 27 343 27 349 21.5 c 128,-1,31
 355 16 355 16 368 15 c 0,32,33
 376 14 376 14 370 0 c 1,34,-1
 231 0 l 2,35,36
 227 0 227 0 227 3 c 0,37,38
 227 14 227 14 240 20 c 1,39,40
 252 20 252 20 255 27 c 128,-1,41
 258 34 258 34 261 42 c 0,42,43
 261 50 261 50 194 169 c 128,-1,44
 127 288 127 288 118 292 c 2,45,-1
 105 297 l 1,46,-1
 105 37 l 2,47,48
 108 31 108 31 111 26 c 0,49,50
 120 16 120 16 132 15 c 0,51,52
 140 14 140 14 134 0 c 1,53,-1
 15 0 l 2,54,55
 11 0 11 0 11 3 c 0,56,57
 11 14 11 14 24 20 c 1,58,59
 38 20 38 20 49 46 c 1,60,-1
 49 625 l 2,61,62
 51 636 51 636 49 653 c 0,63,64
 46 675 46 675 38 675 c 256,65,66
 30 675 30 675 -5 616 c 0,67,68
 -13 603 -13 603 -16 597 c 1,69,-1
 -16 597 l 1,70,-1
 -6 613 l 1,71,72
 -19 595 -19 595 -31.5 577 c 128,-1,73
 -44 559 -44 559 -42 527 c 0,74,75
 -40 508 -40 508 -31 486.5 c 128,-1,76
 -22 465 -22 465 -22 454 c 0,77,78
 -22 437 -22 437 -38 416 c 0,79,80
 -43 411 -43 411 -46 411 c 0,81,82
 -47 413 -47 413 -48 416 c 0,83,84
 -47 417 -47 417 -41 424.5 c 128,-1,85
 -35 432 -35 432 -35 439 c 0,86,87
 -35 442 -35 442 -37 447 c 0,88,89
 -42 465 -42 465 -63 498 c 0,90,91
 -80 525 -80 525 -80 540 c 0,92,93
 -80 570 -80 570 -51 601 c 0,94,95
 -9 645 -9 645 10 685 c 0,96,97
 20 705 20 705 27 714 c 0,98,99
 40 732 40 732 53 734 c 0,100,101
 59 734 59 734 62 734 c 0,102,103
 65 735 65 735 77 735 c 0,0,1
EndSplineSet
Validated: 37
EndChar

StartChar: L
Encoding: 76 76 47
Width: 320
GlyphClass: 2
Flags: W
LayerCount: 2
Fore
SplineSet
121 756 m 1,0,1
 126 748 126 748 126 745 c 0,2,3
 126 740 126 740 113 733 c 1,4,-1
 100 713 l 1,5,-1
 100 27 l 1,6,7
 138 18 138 18 168 18 c 0,8,9
 226 18 226 18 258 54 c 1,10,11
 278 86 278 86 299 117 c 1,12,13
 302 113 302 113 302 107 c 0,14,15
 302 92 302 92 283 59 c 0,16,17
 252 7 252 7 248 -2 c 0,18,19
 222 -54 222 -54 199 -54 c 1,20,21
 219 -30 219 -30 219 -16 c 0,22,23
 219 -1 219 -1 189 0 c 0,24,25
 188 0 188 0 10 0 c 0,26,27
 6 0 6 0 6 4 c 0,28,29
 6 15 6 15 19 20 c 1,30,31
 33 20 33 20 44 46 c 1,32,-1
 44 665 l 2,33,34
 45 675 45 675 40.5 685 c 128,-1,35
 36 695 36 695 28 695 c 256,36,37
 20 695 20 695 -15 636 c 0,38,39
 -23 623 -23 623 -26 617 c 1,40,-1
 -26 617 l 1,41,-1
 -16 633 l 1,42,43
 -29 615 -29 615 -41.5 597 c 128,-1,44
 -54 579 -54 579 -52 547 c 0,45,46
 -50 528 -50 528 -41 506.5 c 128,-1,47
 -32 485 -32 485 -32 474 c 0,48,49
 -32 457 -32 457 -48 436 c 0,50,51
 -53 431 -53 431 -56 431 c 0,52,53
 -57 433 -57 433 -58 436 c 0,54,55
 -57 437 -57 437 -51 444.5 c 128,-1,56
 -45 452 -45 452 -45 459 c 0,57,58
 -45 462 -45 462 -47 467 c 0,59,60
 -52 485 -52 485 -73 518 c 0,61,62
 -90 545 -90 545 -90 560 c 0,63,64
 -90 590 -90 590 -61 621 c 0,65,66
 -19 665 -19 665 0 705 c 0,67,68
 15 736 15 736 16 736 c 0,69,70
 27 755 27 755 40 757 c 0,71,72
 99 754 99 754 121 756 c 1,0,1
EndSplineSet
Validated: 37
EndChar

StartChar: M
Encoding: 77 77 48
Width: 417
GlyphClass: 2
Flags: W
LayerCount: 2
Fore
SplineSet
42 46 m 1,0,1
 36 20 36 20 29 20 c 0,2,3
 26 17 26 17 24 9 c 0,4,5
 21 0 21 0 25 0 c 2,6,-1
 84 0 l 1,7,8
 87 14 87 14 83 15 c 0,9,10
 74 17 74 17 71 39 c 2,11,-1
 71 513 l 2,12,13
 71 548 71 548 197 -200 c 1,14,-1
 311 513 l 1,15,-1
 311 23 l 2,16,17
 309 18 309 18 297 9 c 1,18,19
 283 6 283 6 293 -4 c 1,20,21
 347 0 347 0 353 0 c 0,22,23
 361 0 361 0 401 -4 c 0,24,25
 405 -4 405 -4 405 0 c 0,26,27
 405 11 405 11 392 16 c 1,28,29
 378 16 378 16 367 42 c 1,30,-1
 368 544 l 2,31,32
 368 726 368 726 385 791 c 0,33,34
 399 845 399 845 463 936 c 1,35,36
 386 882 386 882 354.5 828 c 128,-1,37
 323 774 323 774 309 669 c 2,38,-1
 206 0 l 1,39,-1
 81 711 l 1,40,-1
 56 736 l 1,41,42
 50 736 50 736 48 736 c 0,43,44
 47 737 47 737 44 737 c 0,45,46
 24 733 24 733 0 685 c 0,47,48
 -19 645 -19 645 -61 601 c 0,49,50
 -90 570 -90 570 -90 540 c 0,51,52
 -90 525 -90 525 -73 498 c 0,53,54
 -52 465 -52 465 -47 447 c 0,55,56
 -45 442 -45 442 -45 439 c 0,57,58
 -45 432 -45 432 -51 424.5 c 128,-1,59
 -57 417 -57 417 -58 416 c 0,60,61
 -57 413 -57 413 -56 411 c 0,62,63
 -53 411 -53 411 -48 416 c 0,64,65
 -32 437 -32 437 -32 454 c 0,66,67
 -32 465 -32 465 -41 486.5 c 128,-1,68
 -50 508 -50 508 -52 527 c 0,69,70
 -54 559 -54 559 -41.5 577 c 128,-1,71
 -29 595 -29 595 -16 613 c 1,72,-1
 -26 597 l 1,73,-1
 -26 597 l 1,74,75
 -25 600 -25 600 -15 616 c 0,76,77
 20 675 20 675 28 675 c 0,78,79
 44 675 44 675 41 651 c 2,80,-1
 42 46 l 1,0,1
EndSplineSet
Validated: 37
EndChar

StartChar: N
Encoding: 78 78 49
Width: 349
GlyphClass: 2
Flags: W
LayerCount: 2
Fore
SplineSet
48 46 m 1,0,1
 42 20 42 20 36 20 c 0,2,3
 32 17 32 17 30 9 c 0,4,5
 28 0 28 0 31 0 c 2,6,-1
 90 0 l 1,7,8
 93 14 93 14 89 15 c 0,9,10
 80 17 80 17 77 39 c 2,11,-1
 76 555 l 1,12,13
 88 504 88 504 163 293 c 0,14,15
 231 101 231 101 249 0 c 0,16,17
 275 -133 275 -133 334 -206 c 1,18,19
 312 -112 312 -112 308 -46 c 0,20,21
 307 -27 307 -27 307 84 c 2,22,-1
 306 539 l 2,23,24
 306 720 306 720 323 786 c 0,25,26
 337 839 337 839 401 931 c 1,27,28
 318 886 318 886 276 774 c 0,29,30
 245 693 245 693 247 624 c 2,31,-1
 246 189 l 1,32,-1
 87 711 l 1,33,-1
 62 736 l 1,34,35
 56 736 56 736 50 736 c 0,36,37
 44 737 44 737 41 737 c 0,38,39
 25 734 25 734 0 685 c 0,40,41
 -19 645 -19 645 -61 601 c 0,42,43
 -90 570 -90 570 -90 540 c 0,44,45
 -90 525 -90 525 -73 498 c 0,46,47
 -52 465 -52 465 -47 447 c 0,48,49
 -45 442 -45 442 -45 439 c 0,50,51
 -45 432 -45 432 -51 424.5 c 128,-1,52
 -57 417 -57 417 -58 416 c 0,53,54
 -57 413 -57 413 -56 411 c 0,55,56
 -53 411 -53 411 -48 416 c 0,57,58
 -32 437 -32 437 -32 454 c 0,59,60
 -32 465 -32 465 -41 486.5 c 128,-1,61
 -50 508 -50 508 -52 527 c 0,62,63
 -54 559 -54 559 -41.5 577 c 128,-1,64
 -29 595 -29 595 -16 613 c 1,65,-1
 -26 597 l 1,66,-1
 -26 597 l 1,67,68
 -25 600 -25 600 -15 616 c 0,69,70
 20 675 20 675 28 675 c 0,71,72
 51 675 51 675 48 654 c 2,73,-1
 48 46 l 1,0,1
EndSplineSet
Validated: 37
EndChar

StartChar: O
Encoding: 79 79 50
Width: 328
GlyphClass: 2
Flags: W
LayerCount: 2
Fore
SplineSet
53 379 m 4,0,1
 53 203 53 203 69 121 c 4,2,3
 90 14 90 14 143 12 c 4,4,5
 209 10 209 10 225 119 c 4,6,7
 234 172 234 172 234 379 c 4,8,9
 234 405 234 405 234 454 c 4,10,11
 235 502 235 502 235 524 c 4,12,13
 235 638 235 638 220 685 c 4,14,15
 199 748 199 748 143 746 c 4,16,17
 89 743 89 743 69 637 c 4,18,19
 53 556 53 556 53 379 c 4,0,1
27 379 m 4,20,21
 27 565 27 565 50 650 c 4,22,23
 80 762 80 762 160 764 c 4,24,25
 239 767 239 767 270 653 c 4,26,27
 293 567 293 567 293 379 c 4,28,29
 293 161 293 161 281 105 c 4,30,31
 256 -8 256 -8 160 -6 c 4,32,33
 82 -4 82 -4 51 108 c 4,34,35
 27 195 27 195 27 379 c 4,20,21
EndSplineSet
Validated: 33
EndChar

StartChar: P
Encoding: 80 80 51
Width: 325
GlyphClass: 2
Flags: W
LayerCount: 2
Fore
SplineSet
78 742 m 2,0,-1
 156 745 l 2,1,2
 312 747 312 747 312 493 c 0,3,4
 312 444 312 444 305 380 c 1,5,6
 293 333 293 333 282 320 c 0,7,8
 268 302 268 302 219 283 c 1,9,10
 185 278 185 278 149 270 c 1,11,12
 136 260 136 260 141 240 c 0,13,14
 147 217 147 217 184 217 c 1,15,16
 180 216 180 216 169.5 213.5 c 128,-1,17
 159 211 159 211 153 211 c 0,18,19
 139 211 139 211 127 226 c 0,20,21
 120 235 120 235 120 250 c 0,22,23
 120 271 120 271 129 288 c 1,24,-1
 129 287 l 1,25,26
 125 275 125 275 125 277 c 1,27,-1
 125 277 l 1,28,29
 132 288 132 288 153 301 c 1,30,31
 195 307 195 307 205 311 c 0,32,33
 231 323 231 323 248 363 c 1,34,35
 258 439 258 439 258 503 c 0,36,37
 258 731 258 731 139 722 c 0,38,39
 137 722 137 722 109 716 c 1,40,-1
 110 299 l 2,41,42
 110 295 110 295 110 282 c 0,43,44
 109 267 109 267 109 226 c 1,45,46
 109 270 109 270 109 39 c 0,47,48
 111 33 111 33 114 28 c 0,49,50
 122 16 122 16 134 15 c 0,51,52
 142 14 142 14 136 0 c 1,53,-1
 17 0 l 2,54,55
 13 0 13 0 13 4 c 0,56,57
 13 15 13 15 26 20 c 1,58,59
 43 20 43 20 53 44 c 1,60,-1
 52 644 l 1,61,62
 56 675 56 675 38 675 c 0,63,64
 30 675 30 675 -5 616 c 0,65,66
 -13 603 -13 603 -16 597 c 1,67,-1
 -16 597 l 1,68,-1
 -6 613 l 1,69,70
 -19 595 -19 595 -31.5 577 c 128,-1,71
 -44 559 -44 559 -42 527 c 0,72,73
 -40 508 -40 508 -31 486.5 c 128,-1,74
 -22 465 -22 465 -22 454 c 0,75,76
 -22 437 -22 437 -38 416 c 0,77,78
 -43 411 -43 411 -46 411 c 0,79,80
 -47 413 -47 413 -48 416 c 0,81,82
 -47 417 -47 417 -41 424.5 c 128,-1,83
 -35 432 -35 432 -35 439 c 0,84,85
 -35 442 -35 442 -37 447 c 0,86,87
 -42 465 -42 465 -63 498 c 0,88,89
 -80 525 -80 525 -80 540 c 0,90,91
 -80 570 -80 570 -51 601 c 0,92,93
 -9 645 -9 645 10 685 c 0,94,95
 25 716 25 716 26 716 c 0,96,97
 37 735 37 735 50 737 c 0,98,99
 52 738 52 738 78 742 c 2,0,-1
EndSplineSet
Validated: 37
EndChar

StartChar: Q
Encoding: 81 81 52
Width: 328
GlyphClass: 2
Flags: W
LayerCount: 2
Fore
SplineSet
234 379 m 0,0,1
 234 558 234 558 218 639 c 0,2,3
 197 748 197 748 143 746 c 0,4,5
 89 743 89 743 69 637 c 0,6,7
 53 556 53 556 53 379 c 0,8,9
 53 203 53 203 69 121 c 0,10,11
 90 14 90 14 143 12 c 0,12,13
 169 12 169 12 187 27 c 1,14,15
 171 57 171 57 134 70 c 1,16,17
 149 70 149 70 162 68 c 0,18,19
 192 64 192 64 206 52 c 1,20,21
 227 92 227 92 232 185 c 0,22,23
 234 223 234 223 234 379 c 0,0,1
160 -6 m 0,24,25
 82 -4 82 -4 51 108 c 0,26,27
 27 195 27 195 27 379 c 0,28,29
 27 565 27 565 50 650 c 0,30,31
 80 762 80 762 160 764 c 0,32,33
 239 767 239 767 270 653 c 0,34,35
 293 567 293 567 293 379 c 0,36,37
 293 198 293 198 287 151 c 0,38,39
 276 45 276 45 229 12 c 1,40,41
 235 -11 235 -11 250 -54 c 0,42,43
 263 -84 263 -84 280 -96 c 0,44,45
 293 -102 293 -102 307 -109 c 0,46,47
 311 -111 311 -111 311 -113 c 0,48,49
 311 -118 311 -118 290 -118 c 0,50,51
 255 -118 255 -118 233.5 -101.5 c 128,-1,52
 212 -85 212 -85 197 -2 c 1,53,54
 180 -7 180 -7 160 -6 c 0,24,25
206 52 m 1024,55,-1
EndSplineSet
Validated: 33
EndChar

StartChar: R
Encoding: 82 82 53
Width: 339
GlyphClass: 2
Flags: W
LayerCount: 2
Fore
SplineSet
78 742 m 2,0,-1
 156 745 l 2,1,2
 312 747 312 747 312 493 c 0,3,4
 312 444 312 444 305 380 c 1,5,6
 293 333 293 333 282 320 c 0,7,8
 268 302 268 302 219 283 c 0,9,10
 210 282 210 282 180 278 c 1,11,12
 205 215 205 215 280 56 c 0,13,14
 295 29 295 29 304 21 c 128,-1,15
 313 13 313 13 328 15 c 0,16,17
 332 15 332 15 332 11 c 0,18,19
 333 8 333 8 332 5 c 128,-1,20
 331 2 331 2 330 0 c 2,21,-1
 191 0 l 2,22,23
 187 0 187 0 187 3 c 0,24,25
 187 14 187 14 200 20 c 1,26,27
 219 20 219 20 231 48 c 0,28,29
 231 55 231 55 196 143 c 0,30,31
 158 236 158 236 143 261 c 2,32,-1
 127 283 l 1,33,34
 132 291 132 291 153 301 c 1,35,36
 195 307 195 307 205 311 c 0,37,38
 231 323 231 323 248 363 c 1,39,40
 258 439 258 439 258 503 c 0,41,42
 258 731 258 731 139 722 c 0,43,44
 137 722 137 722 109 716 c 1,45,-1
 110 299 l 2,46,47
 110 295 110 295 110 282 c 0,48,49
 109 267 109 267 109 226 c 1,50,51
 109 270 109 270 109 39 c 0,52,53
 111 33 111 33 114 28 c 0,54,55
 122 16 122 16 134 15 c 0,56,57
 142 14 142 14 136 0 c 1,58,-1
 17 0 l 2,59,60
 13 0 13 0 13 4 c 0,61,62
 13 15 13 15 26 20 c 1,63,64
 43 20 43 20 53 44 c 1,65,-1
 52 644 l 1,66,67
 56 675 56 675 38 675 c 0,68,69
 30 675 30 675 -5 616 c 0,70,71
 -13 603 -13 603 -16 597 c 1,72,-1
 -16 597 l 1,73,-1
 -6 613 l 1,74,75
 -19 595 -19 595 -31.5 577 c 128,-1,76
 -44 559 -44 559 -42 527 c 0,77,78
 -40 508 -40 508 -31 486.5 c 128,-1,79
 -22 465 -22 465 -22 454 c 0,80,81
 -22 437 -22 437 -38 416 c 0,82,83
 -43 411 -43 411 -46 411 c 0,84,85
 -47 413 -47 413 -48 416 c 0,86,87
 -47 417 -47 417 -41 424.5 c 128,-1,88
 -35 432 -35 432 -35 439 c 0,89,90
 -35 442 -35 442 -37 447 c 0,91,92
 -42 465 -42 465 -63 498 c 0,93,94
 -80 525 -80 525 -80 540 c 0,95,96
 -80 570 -80 570 -51 601 c 0,97,98
 -9 645 -9 645 10 684.5 c 128,-1,99
 29 724 29 724 50 727 c 0,100,101
 58 730 58 730 62.5 735 c 128,-1,102
 67 740 67 740 78 742 c 2,0,-1
EndSplineSet
Validated: 37
EndChar

StartChar: S
Encoding: 83 83 54
Width: 349
GlyphClass: 2
Flags: W
LayerCount: 2
Fore
SplineSet
283 57 m 0,0,1
 263 28 263 28 219 11 c 0,2,3
 182 -4 182 -4 149 -4 c 0,4,5
 110 -4 110 -4 66 31 c 0,6,7
 18 67 18 67 18 105 c 0,8,9
 18 159 18 159 49 190 c 0,10,11
 72 210 72 210 95 230 c 0,12,13
 126 258 126 258 126 278 c 0,14,15
 126 299 126 299 106 314 c 1,16,17
 118 313 118 313 130 294 c 0,18,19
 139 278 139 278 139 271 c 0,20,21
 139 238 139 238 96.5 200.5 c 128,-1,22
 54 163 54 163 54 118 c 0,23,24
 54 79 54 79 85.5 55 c 128,-1,25
 117 31 117 31 155 35 c 0,26,27
 215 42 215 42 245 98 c 0,28,29
 269 142 269 142 269 203 c 0,30,31
 269 251 269 251 222 331 c 0,32,33
 179 403 179 403 139 440 c 0,34,35
 103 472 103 472 68 503 c 0,36,37
 24 547 24 547 14 583 c 0,38,39
 9 603 9 603 9 639 c 0,40,41
 9 669 9 669 23 698 c 0,42,43
 43 742 43 742 78 753 c 0,44,45
 81 754 81 754 135 753 c 0,46,47
 149 753 149 753 165.5 754 c 128,-1,48
 182 755 182 755 181 755 c 1,49,50
 204 755 204 755 220 743 c 0,51,52
 222 743 222 743 232 737 c 0,53,54
 233 734 233 734 235 731 c 0,55,56
 252 727 252 727 266.5 726.5 c 128,-1,57
 281 726 281 726 287 725 c 0,58,59
 297 723 297 723 305 717 c 1,60,61
 283 726 283 726 278 722 c 0,62,63
 275 720 275 720 278 714 c 0,64,65
 282 706 282 706 280 703 c 1,66,67
 284 715 284 715 270 722 c 0,68,69
 259 726 259 726 244 726 c 0,70,71
 233 726 233 726 233 726 c 1,72,73
 231 722 231 722 219 713 c 0,74,75
 207 709 207 709 202 710 c 256,76,77
 197 711 197 711 192 711 c 0,78,79
 161 711 161 711 129 672.5 c 128,-1,80
 97 634 97 634 97 607 c 0,81,82
 97 562 97 562 157 490 c 0,83,84
 214 423 214 423 270 356 c 1,85,86
 330 271 330 271 330 195 c 0,87,88
 330 126 330 126 283 57 c 0,0,1
EndSplineSet
Validated: 37
EndChar

StartChar: T
Encoding: 84 84 55
Width: 406
GlyphClass: 2
Flags: W
LayerCount: 2
Fore
SplineSet
162 732 m 0,0,1
 112 732 112 732 83 732 c 0,2,3
 53 733 53 733 53 749 c 0,4,5
 53 762 53 762 73 786 c 1,6,7
 50 787 50 787 24 734 c 0,8,9
 20 725 20 725 -11 673 c 0,10,11
 -29 640 -29 640 -29 626 c 0,12,13
 -29 620 -29 620 -27 615 c 1,14,15
 -6 646 -6 646 14 677 c 1,16,17
 45 711 45 711 102 711 c 0,18,19
 133 711 133 711 172 702 c 1,20,21
 181 689 181 689 178 665 c 2,22,-1
 178 46 l 1,23,24
 167 20 167 20 153 20 c 1,25,26
 140 15 140 15 140 4 c 0,27,28
 140 0 140 0 144 0 c 2,29,-1
 263 0 l 1,30,31
 269 14 269 14 261 15 c 0,32,33
 243 17 243 17 236 39 c 1,34,-1
 236 697 l 1,35,36
 275 713 275 713 308 713 c 0,37,38
 358 713 358 713 395 675 c 0,39,40
 396 675 396 675 444 612 c 1,41,42
 446 616 446 616 446 621 c 0,43,44
 446 636 446 636 424 672 c 0,45,46
 392 723 392 723 386 736 c 0,47,48
 360 789 360 789 337 788 c 1,49,50
 357 764 357 764 357 751 c 0,51,52
 357 735 357 735 327 734 c 0,53,54
 326 734 326 734 268 734 c 0,55,56
 259 734 259 734 162 732 c 0,0,1
EndSplineSet
Validated: 41
EndChar

StartChar: U
Encoding: 85 85 56
Width: 311
GlyphClass: 2
Flags: W
LayerCount: 2
Fore
SplineSet
11 758 m 5,0,1
 13 758 13 758 25 757 c 4,2,3
 36 757 36 757 43 757 c 4,4,5
 70 758 70 758 72 757 c 4,6,7
 78 748 78 748 69 738 c 4,8,9
 62 732 62 732 60.5 725.5 c 132,-1,10
 59 719 59 719 57 712 c 4,11,12
 57 640 57 640 58 493 c 6,13,-1
 58 139 l 6,14,15
 58 22 58 22 149 17 c 4,16,17
 185 15 185 15 210 40 c 4,18,19
 237 69 237 69 234 118 c 6,20,-1
 234 577 l 6,21,22
 232 751 232 751 210 818 c 4,23,24
 197 857 197 857 127 958 c 5,25,26
 205 902 205 902 240 846 c 4,27,28
 278 784 278 784 292 682 c 5,29,-1
 292 250 l 6,30,31
 292 120 292 120 282 84 c 4,32,33
 256 -10 256 -10 157 -10 c 4,34,35
 70 -10 70 -10 40 59 c 4,36,37
 22 102 22 102 29 136 c 5,38,-1
 29 665 l 6,39,40
 30 675 30 675 26 685 c 132,-1,41
 22 695 22 695 13 695 c 4,42,43
 6 695 6 695 -30 636 c 4,44,45
 -37 623 -37 623 -41 618 c 5,46,-1
 -41 618 l 5,47,-1
 -31 633 l 5,48,49
 -44 615 -44 615 -56 597.5 c 132,-1,50
 -68 580 -68 580 -66 547 c 4,51,52
 -65 528 -65 528 -56 506.5 c 132,-1,53
 -47 485 -47 485 -47 474 c 4,54,55
 -47 457 -47 457 -63 436 c 4,56,57
 -68 431 -68 431 -70 431 c 4,58,59
 -71 433 -71 433 -73 436 c 4,60,61
 -72 437 -72 437 -66 444.5 c 132,-1,62
 -60 452 -60 452 -60 459 c 4,63,64
 -60 463 -60 463 -61 467 c 4,65,66
 -67 485 -67 485 -87 518 c 4,67,68
 -105 545 -105 545 -105 561 c 4,69,70
 -105 590 -105 590 -76 621 c 4,71,72
 -34 665 -34 665 -14 705 c 4,73,74
 1 736 1 736 1 736 c 6,75,76
 12 755 12 755 25 757 c 5,77,-1
 11 758 l 5,0,1
EndSplineSet
Validated: 37
EndChar

StartChar: V
Encoding: 86 86 57
Width: 350
GlyphClass: 2
Flags: W
LayerCount: 2
Fore
SplineSet
45 736 m 0,0,1
 72 737 72 737 75 736 c 0,2,3
 80 727 80 727 72 717 c 0,4,5
 67 716 67 716 62 713 c 0,6,7
 61 712 61 712 59 707 c 0,8,9
 59 671 59 671 155 129 c 1,10,-1
 250 581 l 2,11,12
 276 705 276 705 276 765 c 0,13,14
 276 813 276 813 258 856 c 0,15,16
 236 905 236 905 214 953 c 1,17,18
 280 882 280 882 301 844 c 0,19,20
 331 789 331 789 331 713 c 0,21,22
 331 694 331 694 329 672 c 2,23,-1
 196 49 l 2,24,25
 186 -6 186 -6 166 -6 c 0,26,27
 160 -6 160 -6 153 0 c 1,28,29
 157 -30 157 -30 35 664 c 1,30,31
 26 674 26 674 21 676 c 1,32,33
 23 675 23 675 8 675 c 0,34,35
 0 675 0 675 -35 616 c 0,36,37
 -43 603 -43 603 -46 597 c 1,38,-1
 -46 597 l 1,39,-1
 -36 613 l 1,40,41
 -49 595 -49 595 -61.5 577 c 128,-1,42
 -74 559 -74 559 -72 527 c 0,43,44
 -70 508 -70 508 -61 486.5 c 128,-1,45
 -52 465 -52 465 -52 454 c 0,46,47
 -52 437 -52 437 -68 416 c 0,48,49
 -73 411 -73 411 -76 411 c 0,50,51
 -77 413 -77 413 -78 416 c 0,52,53
 -77 417 -77 417 -71 424.5 c 128,-1,54
 -65 432 -65 432 -65 439 c 0,55,56
 -65 442 -65 442 -67 447 c 0,57,58
 -72 465 -72 465 -93 498 c 0,59,60
 -110 525 -110 525 -110 540 c 0,61,62
 -110 570 -110 570 -81 601 c 0,63,64
 -39 645 -39 645 -20 685 c 0,65,66
 -5 716 -5 716 -4 716 c 0,67,68
 7 735 7 735 20 737 c 0,69,70
 22 737 22 737 31 736 c 0,71,72
 39 736 39 736 45 736 c 0,0,1
EndSplineSet
Validated: 37
EndChar

StartChar: W
Encoding: 87 87 58
Width: 662
GlyphClass: 2
Flags: W
LayerCount: 2
Fore
SplineSet
139 186 m 2,0,1
 150 112 150 112 162 38 c 0,2,3
 171 -4 171 -4 204 -4 c 1,4,5
 222 16 222 16 225 67 c 1,6,-1
 328 736 l 1,7,-1
 477 1 l 1,8,9
 485 -5 485 -5 495 -3 c 0,10,11
 513 0 513 0 509 0 c 1,12,13
 516 12 516 12 526 69 c 2,14,-1
 630 695 l 2,15,16
 638 720 638 720 645 719 c 0,17,18
 649 722 649 722 651 728 c 0,19,20
 654 735 654 735 650 735 c 0,21,22
 639 734 639 734 619 734 c 2,23,-1
 586 737 l 1,24,25
 581 723 581 723 585 722 c 0,26,27
 594 719 594 719 602 704 c 1,28,-1
 513 124 l 1,29,30
 513 88 513 88 337 936 c 1,31,-1
 206 127 l 1,32,-1
 114 722 l 2,33,34
 116 728 116 728 128 736 c 0,35,36
 141 740 141 740 132 749 c 1,37,38
 107 747 107 747 72 744 c 0,39,40
 64 744 64 744 50 746 c 1,41,42
 34 743 34 743 10 695 c 0,43,44
 -9 655 -9 655 -51 611 c 0,45,46
 -80 580 -80 580 -80 550 c 0,47,48
 -80 535 -80 535 -63 508 c 0,49,50
 -42 475 -42 475 -37 457 c 0,51,52
 -35 452 -35 452 -35 449 c 0,53,54
 -35 442 -35 442 -41 434.5 c 128,-1,55
 -47 427 -47 427 -48 426 c 0,56,57
 -47 423 -47 423 -46 421 c 0,58,59
 -43 421 -43 421 -38 426 c 0,60,61
 -22 447 -22 447 -22 464 c 0,62,63
 -22 475 -22 475 -31 496.5 c 128,-1,64
 -40 518 -40 518 -42 537 c 0,65,66
 -44 569 -44 569 -31.5 587 c 128,-1,67
 -19 605 -19 605 -6 623 c 1,68,-1
 -16 607 l 1,69,-1
 -16 607 l 1,70,71
 -15 610 -15 610 -5 626 c 0,72,73
 30 685 30 685 38 685 c 0,74,75
 51 685 51 685 57 657 c 2,76,-1
 139 186 l 2,0,1
EndSplineSet
Validated: 37
EndChar

StartChar: X
Encoding: 88 88 59
Width: 362
GlyphClass: 2
Flags: W
LayerCount: 2
Fore
SplineSet
77 756 m 0,0,1
 132 757 132 757 136 756 c 0,2,3
 140 753 140 753 140 749 c 0,4,5
 140 743 140 743 130 737 c 0,6,7
 114 731 114 731 111.5 727 c 128,-1,8
 109 723 109 723 106 717 c 1,9,-1
 176 490 l 1,10,-1
 245 717 l 2,11,12
 245 722 245 722 233 737 c 0,13,14
 224 747 224 747 230 756 c 0,15,16
 232 757 232 757 260 756 c 0,17,18
 266 756 266 756 277 756 c 0,19,20
 289 757 289 757 291 757 c 0,21,22
 294 751 294 751 291 741 c 1,23,24
 286 739 286 739 277 722 c 0,25,26
 273 714 273 714 269 705 c 0,27,28
 264 692 264 692 264 685 c 2,29,-1
 191 443 l 1,30,-1
 316 39 l 2,31,32
 318 33 318 33 321 28 c 0,33,34
 329 16 329 16 341 15 c 0,35,36
 349 14 349 14 343 0 c 1,37,-1
 224 0 l 2,38,39
 220 0 220 0 220 4 c 0,40,41
 220 15 220 15 233 20 c 1,42,43
 247 20 247 20 258 46 c 1,44,-1
 164 361 l 1,45,-1
 69 46 l 1,46,47
 74 20 74 20 81 20 c 0,48,49
 85 17 85 17 87 9 c 0,50,51
 89 0 89 0 86 0 c 2,52,-1
 27 0 l 1,53,54
 24 14 24 14 28 15 c 0,55,56
 36 17 36 17 40 39 c 2,57,-1
 151 405 l 1,58,-1
 68 685 l 2,59,60
 61 700 61 700 48 696 c 0,61,62
 38 693 38 693 5 637 c 0,63,64
 -3 624 -3 624 -6 618 c 1,65,-1
 -6 618 l 1,66,-1
 4 634 l 1,67,68
 -10 616 -10 616 -22 598 c 128,-1,69
 -34 580 -34 580 -32 548 c 0,70,71
 -31 529 -31 529 -22 507 c 128,-1,72
 -13 485 -13 485 -13 475 c 0,73,74
 -13 458 -13 458 -28 437 c 0,75,76
 -33 432 -33 432 -36 432 c 0,77,78
 -37 434 -37 434 -38 436 c 0,79,80
 -38 438 -38 438 -32 445 c 128,-1,81
 -26 452 -26 452 -26 460 c 0,82,83
 -26 463 -26 463 -27 468 c 0,84,85
 -32 486 -32 486 -53 519 c 0,86,87
 -70 545 -70 545 -70 561 c 0,88,89
 -70 590 -70 590 -41 621 c 0,90,91
 0 666 0 666 20 706 c 0,92,93
 35 737 35 737 35 737 c 2,94,95
 47 756 47 756 60 758 c 0,96,97
 65 758 65 758 65 757 c 256,98,99
 65 756 65 756 65 756 c 1,100,101
 67 756 67 756 77 756 c 0,0,1
EndSplineSet
Validated: 37
EndChar

StartChar: Y
Encoding: 89 89 60
Width: 313
GlyphClass: 2
Flags: W
LayerCount: 2
Fore
SplineSet
76 755 m 0,0,1
 100 756 100 756 122 757.5 c 128,-1,2
 144 759 144 759 138 760 c 1,3,4
 143 757 143 757 143 753 c 0,5,6
 143 747 143 747 132 741 c 0,7,8
 115 734 115 734 112.5 732 c 128,-1,9
 110 730 110 730 108 721 c 1,10,-1
 170 515 l 1,11,-1
 244 727 l 2,12,13
 245 735 245 735 239 736.5 c 128,-1,14
 233 738 233 738 227.5 741.5 c 128,-1,15
 222 745 222 745 222 753 c 256,16,17
 222 761 222 761 228 760 c 0,18,19
 239 758 239 758 260 755 c 0,20,21
 268 755 268 755 282.5 756 c 128,-1,22
 297 757 297 757 299 757 c 0,23,24
 304 757 304 757 303 747 c 0,25,26
 302 738 302 738 297 738 c 0,27,28
 287 737 287 737 274 725 c 1,29,-1
 186 483 l 1,30,-1
 186 39 l 2,31,32
 188 33 188 33 191 28 c 0,33,34
 199 16 199 16 211 15 c 0,35,36
 219 14 219 14 213 0 c 1,37,-1
 94 0 l 2,38,39
 90 0 90 0 90 4 c 0,40,41
 90 15 90 15 103 20 c 1,42,43
 117 20 117 20 128 46 c 1,44,-1
 128 483 l 1,45,-1
 64 666 l 2,46,47
 53 704 53 704 42 704 c 0,48,49
 36 704 36 704 27.5 695 c 128,-1,50
 19 686 19 686 -15 636 c 0,51,52
 -23 623 -23 623 -26 617 c 1,53,-1
 -26 617 l 1,54,-1
 -16 633 l 1,55,56
 -29 615 -29 615 -41.5 597 c 128,-1,57
 -54 579 -54 579 -52 547 c 0,58,59
 -50 528 -50 528 -41 506.5 c 128,-1,60
 -32 485 -32 485 -32 474 c 0,61,62
 -32 457 -32 457 -48 436 c 0,63,64
 -53 431 -53 431 -56 431 c 0,65,66
 -57 433 -57 433 -58 436 c 0,67,68
 -57 437 -57 437 -51 444.5 c 128,-1,69
 -45 452 -45 452 -45 459 c 0,70,71
 -45 462 -45 462 -47 467 c 0,72,73
 -52 485 -52 485 -73 518 c 0,74,75
 -90 545 -90 545 -90 560 c 0,76,77
 -90 590 -90 590 -61 621 c 0,78,79
 -19 665 -19 665 0 705 c 0,80,81
 15 736 15 736 16 736 c 0,82,83
 27 755 27 755 40 757 c 0,84,85
 45 757 45 757 54 756 c 128,-1,86
 63 755 63 755 76 755 c 0,0,1
EndSplineSet
Validated: 37
EndChar

StartChar: Z
Encoding: 90 90 61
Width: 394
GlyphClass: 2
Flags: W
LayerCount: 2
Fore
SplineSet
241 29 m 0,0,1
 258 28 258 28 262 28 c 0,2,3
 292 28 292 28 310 60 c 0,4,5
 320 78 320 78 323 106 c 1,6,7
 332 82 332 82 327 66 c 1,8,9
 317 52 317 52 304 21 c 0,10,11
 302 10 302 10 311 -26 c 0,12,13
 321 -65 321 -65 321 -83 c 0,14,15
 321 -122 321 -122 285 -127 c 1,16,17
 306 -102 306 -102 306 -79 c 0,18,19
 306 -32 306 -32 273 -7 c 0,20,21
 250 10 250 10 227 10 c 0,22,23
 223 10 223 10 223 9 c 0,24,25
 226 6 226 6 244 4 c 1,26,27
 227 9 227 9 204 9 c 0,28,29
 103 9 103 9 25 -80 c 1,30,31
 22 -76 22 -76 22 -64 c 0,32,33
 22 75 22 75 288 717 c 1,34,35
 223 723 223 723 172 723 c 0,36,37
 97 723 97 723 86 710 c 0,38,39
 65 687 65 687 46 614 c 1,40,41
 37 623 37 623 37 637 c 0,42,43
 37 654 37 654 55 693 c 128,-1,44
 73 732 73 732 73 748 c 0,45,46
 73 753 73 753 71 758 c 1,47,48
 95 757 95 757 120 756 c 0,49,50
 184 753 184 753 226 753 c 0,51,52
 327 753 327 753 358 769 c 0,53,54
 361 771 361 771 365 771 c 0,55,56
 371 771 371 771 373 763 c 0,57,58
 376 756 376 756 372 750 c 0,59,60
 309 628 309 628 224 407 c 0,61,62
 119 138 119 138 104 16 c 0,63,64
 104 11 104 11 110 11 c 2,65,66
 110 11 110 11 159 22 c 0,67,68
 204 33 204 33 241 29 c 0,0,1
EndSplineSet
Validated: 37
EndChar

StartChar: bracketleft
Encoding: 91 91 62
Width: 185
GlyphClass: 2
Flags: W
LayerCount: 2
Fore
SplineSet
126 639 m 2,0,1
 126 755 126 755 143 811 c 0,2,3
 155 853 155 853 190 889 c 0,4,5
 243 946 243 946 261 971 c 1,6,7
 137 904 137 904 116 889 c 0,8,9
 66 854 66 854 67 814 c 2,10,-1
 66 -52 l 2,11,12
 65 -94 65 -94 116 -134 c 0,13,14
 152 -162 152 -162 261 -221 c 1,15,16
 238 -188 238 -188 190 -145 c 0,17,18
 155 -114 155 -114 144 -78 c 0,19,20
 127 -28 127 -28 127 88 c 2,21,-1
 126 639 l 2,0,1
EndSplineSet
Validated: 41
EndChar

StartChar: backslash
Encoding: 92 92 63
Width: 285
GlyphClass: 2
Flags: W
LayerCount: 2
Fore
SplineSet
70 608 m 2,0,1
 26 728 26 728 -14 790 c 0,2,3
 -46 841 -46 841 -91 874 c 128,-1,4
 -136 907 -136 907 -182 939 c 1,5,6
 -99 934 -99 934 -11 852 c 0,7,8
 63 783 63 783 84 724 c 2,9,-1
 274 212 l 2,10,11
 319 92 319 92 357 31 c 0,12,13
 389 -20 389 -20 432.5 -52.5 c 128,-1,14
 476 -85 476 -85 521 -117 c 1,15,16
 439 -113 439 -113 350 -30 c 0,17,18
 275 40 275 40 255 99 c 2,19,-1
 70 608 l 2,0,1
EndSplineSet
Validated: 1
EndChar

StartChar: bracketright
Encoding: 93 93 64
Width: 185
GlyphClass: 2
Flags: W
LayerCount: 2
Fore
SplineSet
61 639 m 2,0,1
 61 755 61 755 44 811 c 0,2,3
 31 853 31 853 -3 889 c 0,4,5
 -57 946 -57 946 -74 971 c 1,6,7
 50 904 50 904 71 889 c 0,8,9
 121 854 121 854 120 814 c 2,10,-1
 121 -52 l 2,11,12
 122 -94 122 -94 71 -134 c 0,13,14
 35 -162 35 -162 -74 -221 c 1,15,16
 -51 -188 -51 -188 -3 -145 c 0,17,18
 31 -114 31 -114 43 -78 c 0,19,20
 60 -28 60 -28 60 88 c 2,21,-1
 61 639 l 2,0,1
EndSplineSet
Validated: 33
EndChar

StartChar: asciicircum
Encoding: 94 94 65
Width: 397
GlyphClass: 2
Flags: W
LayerCount: 2
Fore
SplineSet
192 776 m 5,0,1
 152 719 152 719 120 676 c 4,2,3
 43 575 43 575 17 564 c 4,4,5
 9 561 9 561 9 559 c 4,6,7
 9 558 9 558 11 558 c 4,8,9
 33 558 33 558 78 581 c 4,10,11
 136 611 136 611 159 654 c 4,12,13
 187 708 187 708 192 711 c 5,14,15
 192 711 192 711 192 711 c 5,16,17
 192 709 192 709 189 701 c 5,18,19
 195 694 195 694 225 654 c 4,20,21
 237 637 237 637 274 611 c 4,22,23
 323 577 323 577 379 558 c 5,24,25
 335 585 335 585 192 776 c 5,0,1
EndSplineSet
Validated: 9
EndChar

StartChar: underscore
Encoding: 95 95 66
Width: 437
GlyphClass: 2
Flags: W
LayerCount: 2
Fore
SplineSet
22 21 m 4,0,1
 17 17 17 17 17 0 c 5,2,3
 102 -2 102 -2 418 0 c 5,4,5
 406 8 406 8 409 24 c 4,6,7
 411 36 411 36 414 42 c 260,8,9
 417 48 417 48 417 41 c 4,10,11
 417 32 417 32 234 32 c 4,12,13
 90 32 90 32 20 41 c 5,14,15
 28 26 28 26 22 21 c 4,0,1
EndSplineSet
Validated: 37
EndChar

StartChar: grave
Encoding: 96 96 67
Width: 146
GlyphClass: 2
Flags: W
LayerCount: 2
Fore
SplineSet
31 692 m 0,0,1
 31 668 31 668 64 658 c 0,2,3
 119 641 119 641 125 615 c 1,4,5
 124 627 124 627 124 639 c 0,6,7
 118 674 118 674 105 687 c 0,8,9
 79 713 79 713 54 713 c 0,10,11
 31 713 31 713 31 692 c 0,0,1
EndSplineSet
Validated: 9
EndChar

StartChar: a
Encoding: 97 97 68
Width: 374
GlyphClass: 2
Flags: W
LayerCount: 2
Fore
SplineSet
180 448 m 1,0,1
 172 505 172 505 152 587 c 1,2,3
 144 543 144 543 128 448 c 1,4,-1
 180 448 l 1,0,1
342 0 m 1,5,6
 333 3 333 3 291 5 c 0,7,8
 280 5 280 5 251 1 c 0,9,10
 233 -1 233 -1 229 2 c 0,11,12
 221 10 221 10 238 14 c 0,13,14
 253 15 253 15 255 21 c 0,15,16
 256 24 256 24 256 28 c 0,17,18
 256 40 256 40 223.5 220 c 128,-1,19
 191 400 191 400 185 421 c 1,20,-1
 123 421 l 1,21,22
 110 354 110 354 86 199 c 0,23,24
 61 33 61 33 65 27 c 0,25,26
 75 20 75 20 83.5 18.5 c 128,-1,27
 92 17 92 17 95.5 14.5 c 128,-1,28
 99 12 99 12 99 7 c 0,29,30
 99 1 99 1 95 0 c 0,31,32
 48 5 48 5 50 5 c 0,33,34
 56 5 56 5 6 0 c 0,35,36
 1 0 1 0 0 4 c 0,37,38
 -1 9 -1 9 3 13 c 0,39,40
 8 14 8 14 14 16 c 0,41,42
 24 19 24 19 28 28 c 0,43,44
 37 62 37 62 99 419 c 0,45,46
 156 743 156 743 166 744 c 0,47,48
 174 744 174 744 181 729 c 1,49,50
 204 559 204 559 243 362 c 0,51,52
 276 195 276 195 310 28 c 0,53,54
 314 18 314 18 339 12 c 1,55,56
 347 5 347 5 342 0 c 1,5,6
EndSplineSet
Validated: 37
EndChar

StartChar: b
Encoding: 98 98 69
Width: 289
GlyphClass: 2
Flags: W
LayerCount: 2
Fore
SplineSet
12 35 m 2,0,1
 13 29 13 29 3 13 c 1,2,3
 -9 2 -9 2 5 0 c 0,4,5
 142 0 142 0 170.5 2.5 c 128,-1,6
 199 5 199 5 225 19 c 0,7,8
 239 25 239 25 251.5 65.5 c 128,-1,9
 264 106 264 106 264 152 c 0,10,11
 264 273 264 273 179 293 c 1,12,13
 231 313 231 313 242.5 324.5 c 128,-1,14
 254 336 254 336 265 380 c 1,15,16
 272 444 272 444 272 493 c 0,17,18
 272 747 272 747 116 745 c 2,19,-1
 38 742 l 1,20,21
 11 736 11 736 11 679 c 0,22,23
 11 669 11 669 11 656 c 0,24,25
 12 645 12 645 12 644 c 2,26,-1
 12 35 l 2,0,1
208 363 m 1,27,28
 187 314 187 314 143 305 c 1,29,30
 107 302 107 302 70 299 c 1,31,-1
 69 716 l 1,32,33
 75 719 75 719 99 722 c 0,34,35
 216 732 216 732 216 491 c 0,36,37
 216 426 216 426 208 363 c 1,27,28
209 128 m 0,38,39
 209 20 209 20 116 20 c 0,40,41
 95 20 95 20 68 26 c 1,42,-1
 68 276 l 1,43,44
 84 279 84 279 99 279 c 0,45,46
 209 279 209 279 209 128 c 0,38,39
EndSplineSet
Validated: 41
EndChar

StartChar: c
Encoding: 99 99 70
Width: 274
GlyphClass: 2
Flags: W
LayerCount: 2
Fore
SplineSet
233 771 m 0,0,1
 234 773 234 773 234 775 c 0,2,3
 234 783 234 783 222.5 791.5 c 128,-1,4
 211 800 211 800 198 800 c 0,5,6
 86 800 86 800 30 612 c 0,7,8
 -2 504 -2 504 -2 403 c 0,9,10
 -2 278 -2 278 45 178 c 0,11,12
 131 -6 131 -6 282 -100 c 0,13,14
 404 -176 404 -176 505 -200 c 1,15,-1
 519 -200 l 2,16,17
 534 -200 534 -200 534 -197 c 0,18,19
 534 -190 534 -190 466 -175 c 1,20,21
 252 -70 252 -70 156 64 c 0,22,23
 88 161 88 161 70 297 c 0,24,25
 59 385 59 385 59 465 c 0,26,27
 59 698 59 698 153 762 c 0,28,29
 159 765 159 765 164 767 c 0,30,31
 183 773 183 773 197 771 c 0,32,33
 209 769 209 769 221 767 c 0,34,35
 229 765 229 765 233 771 c 0,0,1
EndSplineSet
Validated: 41
EndChar

StartChar: d
Encoding: 100 100 71
Width: 286
GlyphClass: 2
Flags: W
LayerCount: 2
Fore
SplineSet
2 2 m 2,0,1
 -12 4 -12 4 0 15 c 0,2,3
 6 22 6 22 7 26 c 0,4,5
 7 34 7 34 9 37 c 2,6,-1
 9 646 l 2,7,8
 9 671 9 671 10 695 c 0,9,10
 13 741 13 741 34 745 c 0,11,12
 90 746 90 746 125 739 c 0,13,14
 175 728 175 728 211 706 c 0,15,16
 258 676 258 676 262 636 c 0,17,18
 270 557 270 557 270 387 c 0,19,20
 270 147 270 147 253 77 c 0,21,22
 241 26 241 26 179 9 c 0,23,24
 146 0 146 0 81 0 c 2,25,-1
 2 2 l 2,0,1
62 721 m 1,26,-1
 62 30 l 1,27,28
 81 25 81 25 102 25 c 0,29,30
 184 25 184 25 199 104.5 c 128,-1,31
 214 184 214 184 214 402 c 0,32,33
 214 605 214 605 201 655 c 0,34,35
 184 721 184 721 62 721 c 1,26,-1
2 2 m 1024,36,-1
EndSplineSet
Validated: 33
EndChar

StartChar: e
Encoding: 101 101 72
Width: 301
GlyphClass: 2
Flags: W
LayerCount: 2
Fore
SplineSet
101 697 m 5,0,1
 101 500 101 500 102 470 c 5,2,3
 118 468 118 468 122 468 c 4,4,5
 146 468 146 468 163 501 c 4,6,7
 172 518 172 518 175 545 c 5,8,9
 184 522 184 522 179 506 c 5,10,11
 166 489 166 489 157 463 c 4,12,13
 154 455 154 455 164 417 c 4,14,15
 173 381 173 381 173 364 c 4,16,17
 173 327 173 327 139 321 c 5,18,19
 159 346 159 346 159 367 c 4,20,21
 159 400 159 400 146 423 c 4,22,23
 130 453 130 453 100 447 c 5,24,-1
 100 27 l 5,25,26
 138 18 138 18 168 18 c 4,27,28
 226 18 226 18 258 54 c 5,29,30
 278 86 278 86 299 117 c 5,31,32
 302 113 302 113 302 107 c 4,33,34
 302 92 302 92 283 59 c 4,35,36
 252 7 252 7 248 -2 c 4,37,38
 222 -54 222 -54 199 -54 c 5,39,40
 219 -30 219 -30 219 -16 c 4,41,42
 219 -1 219 -1 189 0 c 4,43,44
 188 0 188 0 10 0 c 4,45,46
 6 0 6 0 6 4 c 4,47,48
 6 15 6 15 19 20 c 5,49,50
 33 20 33 20 44 46 c 5,51,-1
 44 625 l 5,52,53
 49 665 49 665 38 682 c 4,54,55
 33 690 33 690 22.5 694 c 4,56,57
 18 696 18 696 10 701 c 4,58,59
 7 703 7 703 5 708 c 4,60,61
 4 711 4 711 10 717 c 5,62,63
 215 714 215 714 237 716 c 5,64,65
 244 705 244 705 240 616 c 5,66,67
 231 616 231 616 228.5 655 c 132,-1,68
 226 694 226 694 209 696 c 4,69,70
 138 705 138 705 101 697 c 5,0,1
EndSplineSet
Validated: 33
EndChar

StartChar: f
Encoding: 102 102 73
Width: 301
GlyphClass: 2
Flags: W
LayerCount: 2
Fore
SplineSet
159 0 m 2,0,-1
 30 0 l 2,1,2
 26 0 26 0 26 4 c 0,3,4
 26 15 26 15 39 20 c 1,5,6
 53 20 53 20 64 46 c 1,7,-1
 64 665 l 1,8,9
 69 705 69 705 58 722 c 0,10,11
 53 730 53 730 42.5 734 c 128,-1,12
 32 738 32 738 30 741 c 128,-1,13
 28 744 28 744 25 748 c 0,14,15
 24 751 24 751 30 757 c 1,16,17
 235 754 235 754 257 756 c 1,18,19
 264 745 264 745 260 656 c 1,20,21
 251 656 251 656 248.5 695 c 128,-1,22
 246 734 246 734 229 736 c 0,23,24
 158 745 158 745 121 737 c 1,25,26
 121 540 121 540 122 510 c 1,27,28
 138 508 138 508 142 508 c 0,29,30
 164 508 164 508 183 541 c 0,31,32
 192 558 192 558 195 585 c 1,33,34
 204 562 204 562 199 546 c 1,35,36
 189 533 189 533 177 503 c 0,37,38
 175 493 175 493 184 457 c 128,-1,39
 193 421 193 421 193 404 c 0,40,41
 193 367 193 367 159 361 c 1,42,43
 179 386 179 386 179 407 c 0,44,45
 179 440 179 440 166 463 c 0,46,47
 150 493 150 493 120 487 c 1,48,-1
 120 47 l 2,49,50
 123 41 123 41 127 34.5 c 128,-1,51
 131 28 131 28 158 24 c 1,52,53
 166 13 166 13 166 7 c 0,54,55
 166 0 166 0 159 0 c 2,0,-1
EndSplineSet
Validated: 33
EndChar

StartChar: g
Encoding: 103 103 74
Width: 472
GlyphClass: 2
Flags: W
LayerCount: 2
Fore
SplineSet
459 -202 m 0,0,1
 428 -195 428 -195 329 -113 c 0,2,3
 256 -53 256 -53 206 -5 c 0,4,5
 139 59 139 59 82 171 c 0,6,7
 20 291 20 291 20 374 c 0,8,9
 20 378 20 378 18.5 408.5 c 128,-1,10
 17 439 17 439 17 463 c 0,11,12
 17 715 17 715 190 791 c 0,13,14
 199 795 199 795 210 795 c 0,15,16
 245 795 245 795 245 770 c 0,17,18
 245 766 245 766 243 763 c 0,19,20
 218 756 218 756 205 766 c 1,21,22
 70 712 70 712 70 503 c 0,23,24
 70 322 70 322 166 131 c 0,25,26
 265 -66 265 -66 396 -125 c 1,27,28
 396 -104 396 -104 401.5 -59.5 c 128,-1,29
 407 -15 407 -15 407 6 c 0,30,31
 407 52 407 52 385 75 c 0,32,33
 314 151 314 151 314 210 c 0,34,35
 314 261 314 261 366 300 c 1,36,37
 327 264 327 264 327 230 c 0,38,39
 327 200 327 200 363 157 c 0,40,41
 418 91 418 91 426 78 c 0,42,43
 449 40 449 40 442 -84 c 0,44,45
 441 -95 441 -95 451 -141.5 c 128,-1,46
 461 -188 461 -188 461 -197 c 0,47,48
 461 -202 461 -202 459 -202 c 0,0,1
EndSplineSet
Validated: 33
EndChar

StartChar: h
Encoding: 104 104 75
Width: 388
GlyphClass: 2
Flags: W
LayerCount: 2
Fore
SplineSet
417 940 m 1,0,1
 341 886 341 886 309.5 831.5 c 128,-1,2
 278 777 278 777 263 673 c 1,3,4
 264 557 264 557 264 510 c 1,5,6
 258 508 258 508 202 508 c 0,7,8
 148 509 148 509 136 510 c 1,9,10
 136 540 136 540 136 697 c 1,11,12
 140 703 140 703 146 704 c 0,13,14
 156 706 156 706 160 707 c 0,15,16
 170 713 170 713 170 723 c 0,17,18
 170 729 170 729 166 736 c 0,19,20
 162 737 162 737 107 736 c 0,21,22
 94 736 94 736 72 736 c 0,23,24
 48 737 48 737 44 737 c 0,25,26
 38 731 38 731 40 728 c 0,27,28
 42 724 42 724 44 721 c 128,-1,29
 46 718 46 718 56.5 714 c 128,-1,30
 67 710 67 710 72 702 c 0,31,32
 81 689 81 689 78 665 c 2,33,-1
 78 46 l 1,34,35
 67 20 67 20 53 20 c 1,36,37
 40 15 40 15 40 4 c 0,38,39
 40 0 40 0 44 0 c 2,40,-1
 163 0 l 1,41,42
 169 14 169 14 161 15 c 0,43,44
 143 17 143 17 134 37 c 1,45,-1
 134 487 l 1,46,47
 269 485 269 485 266 487 c 1,48,-1
 266 27 l 2,49,50
 264 21 264 21 251 13 c 0,51,52
 238 9 238 9 247 0 c 1,53,54
 301 4 301 4 307 4 c 0,55,56
 315 4 315 4 355 0 c 0,57,58
 359 0 359 0 359 4 c 0,59,60
 359 15 359 15 346 20 c 1,61,62
 333 20 333 20 322 46 c 1,63,-1
 322 548 l 2,64,65
 322 730 322 730 339 795 c 0,66,67
 353 849 353 849 417 940 c 1,0,1
EndSplineSet
Validated: 37
EndChar

StartChar: i
Encoding: 105 105 76
Width: 214
GlyphClass: 2
Flags: W
LayerCount: 2
Fore
SplineSet
136 697 m 6,0,1
 139 703 139 703 141.5 707 c 132,-1,2
 144 711 144 711 160 717 c 4,3,4
 170 723 170 723 170 729 c 4,5,6
 170 733 170 733 166 736 c 4,7,8
 162 737 162 737 107 736 c 4,9,10
 94 736 94 736 72 736 c 4,11,12
 48 737 48 737 44 737 c 4,13,14
 38 731 38 731 40 728 c 4,15,16
 42 724 42 724 44 721 c 132,-1,17
 46 718 46 718 56.5 714 c 132,-1,18
 67 710 67 710 72 702 c 4,19,20
 81 689 81 689 78 665 c 6,21,-1
 78 46 l 5,22,23
 67 20 67 20 53 20 c 5,24,25
 40 15 40 15 40 4 c 4,26,27
 40 0 40 0 44 0 c 6,28,-1
 163 0 l 5,29,30
 169 14 169 14 161 15 c 4,31,32
 143 17 143 17 136 39 c 5,33,-1
 136 697 l 6,0,1
EndSplineSet
Validated: 41
EndChar

StartChar: j
Encoding: 106 106 77
Width: 214
GlyphClass: 2
Flags: W
LayerCount: 2
Fore
SplineSet
145 695 m 1,0,1
 149 700 149 700 152 706 c 0,2,3
 154 709 154 709 170 715 c 0,4,5
 180 721 180 721 180 727 c 0,6,7
 180 731 180 731 176 734 c 0,8,9
 171 734 171 734 117 734 c 0,10,11
 104 734 104 734 82 734 c 0,12,13
 58 735 58 735 54 735 c 0,14,15
 48 729 48 729 49 725 c 0,16,17
 52 722 52 722 54 719 c 128,-1,18
 56 716 56 716 66.5 712 c 128,-1,19
 77 708 77 708 82 700 c 0,20,21
 91 687 91 687 88 663 c 2,22,-1
 88 163 l 2,23,24
 86 -16 86 -16 69 -78 c 0,25,26
 56 -124 56 -124 -9 -217 c 1,27,28
 67 -163 67 -163 99.5 -105 c 128,-1,29
 132 -47 132 -47 146 58 c 1,30,-1
 145 695 l 1,0,1
EndSplineSet
Validated: 41
EndChar

StartChar: k
Encoding: 107 107 78
Width: 388
GlyphClass: 2
Flags: W
LayerCount: 2
Fore
SplineSet
150 338 m 1,0,1
 178 376 178 376 207 413 c 0,2,3
 248 470 248 470 276 527 c 0,4,5
 315 609 315 609 326 641 c 0,6,7
 359 732 359 732 359 812 c 0,8,9
 359 884 359 884 332 948 c 1,10,11
 333 933 333 933 333 917 c 0,12,13
 333 769 333 769 250 573 c 0,14,15
 169 382 169 382 107 370 c 1,16,17
 107 400 107 400 107 697 c 0,18,19
 110 702 110 702 113 708 c 0,20,21
 115 710 115 710 131 717 c 0,22,23
 141 723 141 723 141 729 c 0,24,25
 141 733 141 733 137 736 c 1,26,27
 139 735 139 735 77 735 c 0,28,29
 64 735 64 735 42 736 c 128,-1,30
 20 737 20 737 15 737 c 0,31,32
 9 731 9 731 11 727 c 0,33,34
 13 724 13 724 15 721 c 128,-1,35
 17 718 17 718 27.5 714 c 128,-1,36
 38 710 38 710 43 702 c 0,37,38
 52 688 52 688 49 665 c 2,39,-1
 49 46 l 1,40,41
 38 20 38 20 24 20 c 1,42,43
 11 14 11 14 11 3 c 0,44,45
 11 0 11 0 15 0 c 2,46,-1
 134 0 l 1,47,48
 140 14 140 14 132 15 c 0,49,50
 114 17 114 17 105 37 c 1,51,-1
 105 297 l 1,52,-1
 118 292 l 2,53,54
 127 288 127 288 194 169 c 128,-1,55
 261 50 261 50 261 42 c 0,56,57
 258 34 258 34 255 27 c 128,-1,58
 252 20 252 20 240 20 c 1,59,60
 227 14 227 14 227 3 c 0,61,62
 227 0 227 0 231 0 c 2,63,-1
 370 0 l 1,64,65
 376 14 376 14 368 15 c 0,66,67
 355 16 355 16 349 21.5 c 128,-1,68
 343 27 343 27 320 56 c 0,69,70
 236 175 236 175 150 338 c 1,0,1
EndSplineSet
Validated: 37
EndChar

StartChar: l
Encoding: 108 108 79
Width: 320
GlyphClass: 2
Flags: W
LayerCount: 2
Fore
SplineSet
100 27 m 1,0,1
 138 18 138 18 168 18 c 0,2,3
 226 18 226 18 258 54 c 1,4,5
 278 86 278 86 299 117 c 1,6,7
 302 113 302 113 302 107 c 0,8,9
 302 92 302 92 283 59 c 0,10,11
 252 7 252 7 248 -2 c 0,12,13
 222 -54 222 -54 199 -54 c 1,14,15
 219 -30 219 -30 219 -16 c 0,16,17
 219 -1 219 -1 189 0 c 0,18,19
 188 0 188 0 10 0 c 0,20,21
 6 0 6 0 6 4 c 0,22,23
 6 15 6 15 19 20 c 1,24,25
 33 20 33 20 44 46 c 1,26,-1
 44 665 l 1,27,28
 49 705 49 705 38 722 c 0,29,30
 33 730 33 730 22.5 734 c 128,-1,31
 12 738 12 738 10 741 c 128,-1,32
 8 744 8 744 5 748 c 0,33,34
 4 751 4 751 10 757 c 1,35,36
 99 754 99 754 121 756 c 1,37,38
 126 748 126 748 126 745 c 0,39,40
 126 740 126 740 113 733 c 1,41,-1
 100 713 l 1,42,-1
 100 27 l 1,0,1
EndSplineSet
Validated: 33
EndChar

StartChar: m
Encoding: 109 109 80
Width: 417
GlyphClass: 2
Flags: W
LayerCount: 2
Fore
SplineSet
206 0 m 1,0,-1
 309 669 l 2,1,2
 323 774 323 774 354.5 828 c 128,-1,3
 386 882 386 882 463 936 c 1,4,5
 399 845 399 845 385 791 c 0,6,7
 368 726 368 726 368 544 c 2,8,-1
 367 42 l 1,9,10
 378 16 378 16 392 16 c 1,11,12
 405 11 405 11 405 0 c 0,13,14
 405 -4 405 -4 401 -4 c 0,15,16
 361 0 361 0 353 0 c 0,17,18
 348 0 348 0 293 -4 c 1,19,20
 284 6 284 6 297 9 c 0,21,22
 303 11 303 11 306 16.5 c 128,-1,23
 309 22 309 22 311 23 c 2,24,-1
 311 513 l 1,25,-1
 197 -200 l 1,26,-1
 71 493 l 1,27,-1
 71 39 l 2,28,29
 72 28 72 28 83 15 c 0,30,31
 87 14 87 14 84 0 c 1,32,-1
 25 0 l 2,33,34
 21 0 21 0 24 9 c 0,35,36
 26 17 26 17 29 20 c 0,37,38
 36 20 36 20 42 46 c 1,39,-1
 42 665 l 2,40,41
 43 689 43 689 39 702 c 0,42,43
 36 710 36 710 31 714 c 128,-1,44
 26 718 26 718 25 721 c 0,45,46
 22 731 22 731 25 737 c 0,47,48
 27 737 27 737 39 736 c 0,49,50
 49 736 49 736 56 736 c 1,51,-1
 81 711 l 1,52,-1
 206 0 l 1,0,-1
EndSplineSet
Validated: 33
EndChar

StartChar: n
Encoding: 110 110 81
Width: 349
GlyphClass: 2
Flags: W
LayerCount: 2
Fore
SplineSet
246 189 m 1,0,-1
 87 711 l 1,1,-1
 62 736 l 1,2,3
 56 736 56 736 45 736 c 0,4,5
 33 737 33 737 31 737 c 0,6,7
 28 731 28 731 31 721 c 1,8,9
 36 719 36 719 45 702 c 0,10,11
 49 689 49 689 48 665 c 2,12,-1
 48 46 l 1,13,14
 42 20 42 20 36 20 c 0,15,16
 32 17 32 17 30 9 c 0,17,18
 28 0 28 0 31 0 c 2,19,-1
 90 0 l 1,20,21
 93 14 93 14 89 15 c 0,22,23
 80 17 80 17 77 39 c 2,24,-1
 76 555 l 1,25,26
 88 504 88 504 163 293 c 0,27,28
 231 101 231 101 249 0 c 0,29,30
 275 -133 275 -133 334 -206 c 1,31,32
 312 -112 312 -112 308 -46 c 0,33,34
 307 -27 307 -27 307 84 c 2,35,-1
 306 539 l 2,36,37
 306 720 306 720 323 786 c 0,38,39
 337 839 337 839 401 931 c 1,40,41
 318 886 318 886 276 774 c 0,42,43
 245 693 245 693 247 624 c 2,44,-1
 246 189 l 1,0,-1
EndSplineSet
Validated: 41
EndChar

StartChar: o
Encoding: 111 111 82
Width: 533
GlyphClass: 2
Flags: W
LayerCount: 2
Fore
SplineSet
19 160 m 4,0,1
 19 231 19 231 92.5 280.5 c 132,-1,2
 166 330 166 330 270 330 c 260,3,4
 374 330 374 330 447.5 280.5 c 132,-1,5
 521 231 521 231 521 160 c 4,6,7
 521 90 521 90 447.5 40 c 132,-1,8
 374 -10 374 -10 270 -10 c 260,9,10
 166 -10 166 -10 92.5 40 c 132,-1,11
 19 90 19 90 19 160 c 4,0,1
84 164 m 260,12,13
 84 101 84 101 137 56 c 132,-1,14
 190 11 190 11 266 11 c 4,15,16
 341 11 341 11 394.5 56 c 132,-1,17
 448 101 448 101 448 164 c 260,18,19
 448 227 448 227 394.5 272 c 132,-1,20
 341 317 341 317 266 317 c 4,21,22
 190 317 190 317 137 272 c 132,-1,23
 84 227 84 227 84 164 c 260,12,13
EndSplineSet
Validated: 1
EndChar

StartChar: p
Encoding: 112 112 83
Width: 325
GlyphClass: 2
Flags: W
LayerCount: 2
Fore
SplineSet
52 644 m 2,0,1
 51 662 51 662 50 681 c 0,2,3
 46 711 46 711 25 714 c 1,4,5
 14 726 14 726 14 729 c 0,6,7
 14 731 14 731 34 738 c 1,8,9
 49 739 49 739 78 742 c 2,10,-1
 156 745 l 2,11,12
 312 747 312 747 312 493 c 0,13,14
 312 444 312 444 305 380 c 1,15,16
 293 333 293 333 282 320 c 0,17,18
 268 302 268 302 219 283 c 1,19,20
 185 278 185 278 149 270 c 1,21,22
 136 260 136 260 141 240 c 0,23,24
 147 217 147 217 184 217 c 1,25,26
 180 216 180 216 169.5 213.5 c 128,-1,27
 159 211 159 211 153 211 c 0,28,29
 139 211 139 211 127 226 c 0,30,31
 120 235 120 235 120 250 c 0,32,33
 120 271 120 271 129 288 c 1,34,-1
 129 287 l 1,35,36
 125 275 125 275 125 277 c 1,37,-1
 125 277 l 1,38,39
 132 288 132 288 153 301 c 1,40,41
 195 307 195 307 205 311 c 0,42,43
 231 323 231 323 248 363 c 1,44,45
 258 439 258 439 258 503 c 0,46,47
 258 731 258 731 139 722 c 0,48,49
 137 722 137 722 109 716 c 1,50,-1
 110 299 l 2,51,52
 110 295 110 295 110 282 c 0,53,54
 109 267 109 267 109 226 c 1,55,56
 109 270 109 270 109 39 c 0,57,58
 111 33 111 33 114 28 c 0,59,60
 122 16 122 16 134 15 c 0,61,62
 142 14 142 14 136 0 c 1,63,-1
 17 0 l 2,64,65
 13 0 13 0 13 4 c 0,66,67
 13 15 13 15 26 20 c 1,68,69
 43 20 43 20 53 44 c 1,70,-1
 52 644 l 2,0,1
EndSplineSet
Validated: 37
EndChar

StartChar: q
Encoding: 113 113 84
Width: 533
GlyphClass: 2
Flags: W
LayerCount: 2
Fore
SplineSet
391 12 m 1024,0,-1
517 159 m 0,1,2
 517 230 517 230 443.5 279.5 c 128,-1,3
 370 329 370 329 266 329 c 256,4,5
 162 329 162 329 88.5 279.5 c 128,-1,6
 15 230 15 230 15 159 c 0,7,8
 15 89 15 89 88.5 39 c 128,-1,9
 162 -11 162 -11 266 -11 c 0,10,11
 305 -11 305 -11 341 -3 c 1,12,13
 347 -13 347 -13 356 -28 c 0,14,15
 385 -80 385 -80 418 -80 c 0,16,17
 436 -80 436 -80 459 -68 c 1,18,19
 437 -64 437 -64 417.5 -41 c 128,-1,20
 398 -18 398 -18 391 12 c 1,21,22
 449 34 449 34 483 73.5 c 128,-1,23
 517 113 517 113 517 159 c 0,1,2
280 58 m 1,24,25
 318 60 318 60 328 20 c 1,26,27
 296 10 296 10 262 10 c 0,28,29
 187 10 187 10 133.5 55 c 128,-1,30
 80 100 80 100 80 163 c 256,31,32
 80 226 80 226 133.5 271 c 128,-1,33
 187 316 187 316 262 316 c 0,34,35
 338 316 338 316 391 271 c 128,-1,36
 444 226 444 226 444 163 c 0,37,38
 444 88 444 88 374 42 c 1,39,40
 358 69 358 69 322 69 c 0,41,42
 300 69 300 69 280 58 c 1,24,25
328 20 m 1024,43,-1
EndSplineSet
Validated: 41
EndChar

StartChar: r
Encoding: 114 114 85
Width: 339
GlyphClass: 2
Flags: W
LayerCount: 2
Fore
SplineSet
127 283 m 1,0,1
 132 291 132 291 153 301 c 1,2,3
 195 307 195 307 205 311 c 0,4,5
 231 323 231 323 248 363 c 1,6,7
 258 439 258 439 258 503 c 0,8,9
 258 731 258 731 139 722 c 0,10,11
 137 722 137 722 109 716 c 1,12,-1
 110 299 l 2,13,14
 110 295 110 295 110 282 c 0,15,16
 109 267 109 267 109 226 c 1,17,18
 109 270 109 270 109 39 c 0,19,20
 111 33 111 33 114 28 c 0,21,22
 122 16 122 16 134 15 c 0,23,24
 142 14 142 14 136 0 c 1,25,-1
 17 0 l 2,26,27
 13 0 13 0 13 4 c 0,28,29
 13 15 13 15 26 20 c 1,30,31
 43 20 43 20 53 44 c 1,32,-1
 52 644 l 2,33,34
 51 662 51 662 50 681 c 0,35,36
 46 711 46 711 25 714 c 1,37,38
 14 726 14 726 14 729 c 0,39,40
 14 731 14 731 34 738 c 1,41,42
 49 739 49 739 78 742 c 2,43,-1
 156 745 l 2,44,45
 312 747 312 747 312 493 c 0,46,47
 312 444 312 444 305 380 c 1,48,49
 293 333 293 333 282 320 c 0,50,51
 268 302 268 302 219 283 c 0,52,53
 210 282 210 282 180 278 c 1,54,55
 205 215 205 215 280 56 c 0,56,57
 295 29 295 29 304 21 c 128,-1,58
 313 13 313 13 328 15 c 0,59,60
 332 15 332 15 332 11 c 0,61,62
 333 8 333 8 332 5 c 128,-1,63
 331 2 331 2 330 0 c 2,64,-1
 191 0 l 2,65,66
 187 0 187 0 187 3 c 0,67,68
 187 14 187 14 200 20 c 1,69,70
 219 20 219 20 231 48 c 0,71,72
 231 55 231 55 196 143 c 0,73,74
 158 236 158 236 143 261 c 2,75,-1
 127 283 l 1,0,1
EndSplineSet
Validated: 37
EndChar

StartChar: s
Encoding: 115 115 86
Width: 381
GlyphClass: 2
Flags: W
LayerCount: 2
Fore
SplineSet
365 225 m 0,0,1
 365 170 365 170 309 93 c 0,2,3
 241 1 241 1 154 1 c 0,4,5
 106 1 106 1 55.5 26.5 c 128,-1,6
 5 52 5 52 5 77 c 0,7,8
 5 95 5 95 28 117 c 128,-1,9
 51 139 51 139 77 136 c 1,10,11
 69 125 69 125 60 114 c 0,12,13
 50 100 50 100 52 81 c 0,14,15
 54 55 54 55 91 40 c 0,16,17
 120 29 120 29 152 29 c 0,18,19
 195 29 195 29 242 96 c 0,20,21
 282 154 282 154 282 176 c 2,22,-1
 282 249 l 2,23,24
 282 306 282 306 218 363 c 1,25,26
 158 408 158 408 98 453 c 0,27,28
 34 504 34 504 34 547 c 0,29,30
 34 603 34 603 70 666 c 0,31,32
 117 745 117 745 189 745 c 0,33,34
 215 745 215 745 233 732 c 1,35,36
 233 711 233 711 206 711 c 0,37,38
 201 711 201 711 191.5 712.5 c 128,-1,39
 182 714 182 714 177 714 c 0,40,41
 131 714 131 714 111 647 c 0,42,43
 100 609 100 609 100 577 c 0,44,45
 100 496 100 496 169 453 c 1,46,47
 233 418 233 418 297 382 c 1,48,49
 365 329 365 329 365 225 c 0,0,1
EndSplineSet
Validated: 33
EndChar

StartChar: t
Encoding: 116 116 87
Width: 406
GlyphClass: 2
Flags: W
LayerCount: 2
Fore
SplineSet
162 732 m 0,0,1
 112 732 112 732 83 732 c 0,2,3
 53 733 53 733 53 749 c 0,4,5
 53 762 53 762 73 786 c 1,6,7
 50 787 50 787 24 734 c 0,8,9
 20 725 20 725 -11 673 c 0,10,11
 -29 640 -29 640 -29 626 c 0,12,13
 -29 620 -29 620 -27 615 c 1,14,15
 -6 646 -6 646 14 677 c 1,16,17
 45 711 45 711 102 711 c 0,18,19
 133 711 133 711 172 702 c 1,20,21
 181 689 181 689 178 665 c 2,22,-1
 178 46 l 1,23,24
 167 20 167 20 153 20 c 1,25,26
 140 15 140 15 140 4 c 0,27,28
 140 0 140 0 144 0 c 2,29,-1
 263 0 l 1,30,31
 269 14 269 14 261 15 c 0,32,33
 243 17 243 17 236 39 c 1,34,-1
 236 697 l 1,35,36
 275 713 275 713 308 713 c 0,37,38
 358 713 358 713 395 675 c 0,39,40
 396 675 396 675 444 612 c 1,41,42
 446 616 446 616 446 621 c 0,43,44
 446 636 446 636 424 672 c 0,45,46
 392 723 392 723 386 736 c 0,47,48
 360 789 360 789 337 788 c 1,49,50
 357 764 357 764 357 751 c 0,51,52
 357 735 357 735 327 734 c 0,53,54
 326 734 326 734 268 734 c 0,55,56
 259 734 259 734 162 732 c 0,0,1
EndSplineSet
Validated: 41
EndChar

StartChar: u
Encoding: 117 117 88
Width: 311
GlyphClass: 2
Flags: W
LayerCount: 2
Fore
SplineSet
234 118 m 2,0,-1
 234 577 l 2,1,2
 232 751 232 751 210 818 c 0,3,4
 197 857 197 857 127 958 c 1,5,6
 205 902 205 902 240 846 c 0,7,8
 278 784 278 784 292 682 c 1,9,-1
 292 250 l 2,10,11
 292 120 292 120 282 84 c 0,12,13
 256 -10 256 -10 157 -10 c 0,14,15
 70 -10 70 -10 40 59 c 0,16,17
 22 102 22 102 29 136 c 1,18,-1
 29 665 l 2,19,20
 31 700 31 700 25 717 c 0,21,22
 19 726 19 726 11 742 c 0,23,24
 8 752 8 752 11 758 c 0,25,26
 13 758 13 758 25 757 c 0,27,28
 36 757 36 757 43 757 c 0,29,30
 70 758 70 758 72 757 c 0,31,32
 78 748 78 748 69 738 c 0,33,34
 62 732 62 732 60.5 725.5 c 128,-1,35
 59 719 59 719 57 712 c 0,36,37
 57 640 57 640 58 493 c 2,38,-1
 58 139 l 2,39,40
 58 22 58 22 149 17 c 0,41,42
 185 15 185 15 210 40 c 0,43,44
 237 69 237 69 234 118 c 2,0,-1
EndSplineSet
Validated: 33
EndChar

StartChar: v
Encoding: 118 118 89
Width: 350
GlyphClass: 2
Flags: W
LayerCount: 2
Fore
SplineSet
153 0 m 1,0,1
 157 -30 157 -30 35 664 c 0,2,3
 33 684 33 684 28 712 c 0,4,5
 25 720 25 720 20 719 c 128,-1,6
 15 718 15 718 14 721 c 0,7,8
 11 731 11 731 14 737 c 0,9,10
 16 737 16 737 28 736 c 0,11,12
 39 736 39 736 45 736 c 0,13,14
 72 737 72 737 75 736 c 0,15,16
 80 727 80 727 72 717 c 0,17,18
 67 716 67 716 62 713 c 0,19,20
 61 712 61 712 59 707 c 0,21,22
 59 671 59 671 155 129 c 1,23,-1
 250 581 l 2,24,25
 276 705 276 705 276 765 c 0,26,27
 276 813 276 813 258 856 c 0,28,29
 236 905 236 905 214 953 c 1,30,31
 280 882 280 882 301 844 c 0,32,33
 331 789 331 789 331 713 c 0,34,35
 331 694 331 694 329 672 c 2,36,-1
 196 49 l 2,37,38
 186 -6 186 -6 166 -6 c 0,39,40
 160 -6 160 -6 153 0 c 1,0,1
EndSplineSet
Validated: 33
EndChar

StartChar: w
Encoding: 119 119 90
Width: 662
GlyphClass: 2
Flags: W
LayerCount: 2
Fore
SplineSet
328 736 m 1,0,-1
 225 67 l 1,1,2
 222 16 222 16 204 -4 c 1,3,4
 171 -4 171 -4 162 38 c 0,5,6
 150 112 150 112 139 186 c 0,7,8
 133 219 133 219 52 680 c 0,9,10
 51 682 51 682 47 708 c 0,11,12
 44 728 44 728 33 728 c 0,13,14
 20 733 20 733 20 744 c 0,15,16
 20 747 20 747 24 748 c 0,17,18
 64 744 64 744 72 744 c 0,19,20
 77 744 77 744 132 749 c 1,21,22
 140 740 140 740 128 736 c 0,23,24
 122 735 122 735 119 729.5 c 128,-1,25
 116 724 116 724 114 722 c 2,26,-1
 206 127 l 1,27,-1
 337 936 l 1,28,-1
 513 143 l 1,29,-1
 602 704 l 1,30,31
 598 712 598 712 585 722 c 0,32,33
 581 723 581 723 586 737 c 1,34,-1
 619 734 l 2,35,36
 630 735 630 735 650 735 c 0,37,38
 654 735 654 735 651 728 c 0,39,40
 649 722 649 722 645 719 c 0,41,42
 638 720 638 720 630 695 c 2,43,-1
 526 69 l 2,44,45
 522 45 522 45 518 22 c 0,46,47
 515 11 515 11 509 0 c 1,48,49
 513 0 513 0 495 -3 c 0,50,51
 485 -5 485 -5 477 1 c 1,52,-1
 458 67 l 1,53,-1
 328 736 l 1,0,-1
EndSplineSet
Validated: 1
EndChar

StartChar: x
Encoding: 120 120 91
Width: 362
GlyphClass: 2
Flags: W
LayerCount: 2
Fore
SplineSet
68 685 m 2,0,1
 69 692 69 692 58 705 c 0,2,3
 50 714 50 714 43.5 722 c 128,-1,4
 37 730 37 730 26.5 734 c 128,-1,5
 16 738 16 738 14 741 c 128,-1,6
 12 744 12 744 10 748 c 0,7,8
 8 751 8 751 14 757 c 0,9,10
 18 757 18 757 42 756 c 0,11,12
 64 756 64 756 77 756 c 0,13,14
 132 757 132 757 136 756 c 0,15,16
 140 753 140 753 140 749 c 0,17,18
 140 743 140 743 130 737 c 0,19,20
 114 731 114 731 111.5 727 c 128,-1,21
 109 723 109 723 106 717 c 1,22,-1
 176 490 l 1,23,-1
 245 717 l 2,24,25
 245 722 245 722 233 737 c 0,26,27
 224 747 224 747 230 756 c 0,28,29
 232 757 232 757 260 756 c 0,30,31
 266 756 266 756 277 756 c 0,32,33
 289 757 289 757 291 757 c 0,34,35
 294 751 294 751 291 741 c 1,36,37
 286 739 286 739 277 722 c 0,38,39
 273 714 273 714 269 705 c 0,40,41
 264 692 264 692 264 685 c 2,42,-1
 191 443 l 1,43,-1
 316 39 l 2,44,45
 318 33 318 33 321 28 c 0,46,47
 329 16 329 16 341 15 c 0,48,49
 349 14 349 14 343 0 c 1,50,-1
 224 0 l 2,51,52
 220 0 220 0 220 4 c 0,53,54
 220 15 220 15 233 20 c 1,55,56
 247 20 247 20 258 46 c 1,57,-1
 164 361 l 1,58,-1
 69 46 l 1,59,60
 74 20 74 20 81 20 c 0,61,62
 85 17 85 17 87 9 c 0,63,64
 89 0 89 0 86 0 c 2,65,-1
 27 0 l 1,66,67
 24 14 24 14 28 15 c 0,68,69
 36 17 36 17 40 39 c 2,70,-1
 151 405 l 1,71,-1
 68 685 l 2,0,1
EndSplineSet
Validated: 33
EndChar

StartChar: y
Encoding: 121 121 92
Width: 313
GlyphClass: 2
Flags: W
LayerCount: 2
Fore
SplineSet
186 39 m 2,0,1
 188 33 188 33 191 28 c 0,2,3
 199 16 199 16 211 15 c 0,4,5
 219 14 219 14 213 0 c 1,6,-1
 94 0 l 2,7,8
 90 0 90 0 90 4 c 0,9,10
 90 15 90 15 103 20 c 1,11,12
 117 20 117 20 128 46 c 1,13,-1
 128 483 l 1,14,-1
 46 715 l 2,15,16
 40 733 40 733 28 738 c 0,17,18
 22 739 22 739 16 741 c 0,19,20
 14 744 14 744 11 747 c 0,21,22
 10 751 10 751 16 757 c 0,23,24
 21 757 21 757 42 756 c 128,-1,25
 63 755 63 755 76 755 c 0,26,27
 100 756 100 756 122 757.5 c 128,-1,28
 144 759 144 759 138 760 c 1,29,30
 143 757 143 757 143 753 c 0,31,32
 143 747 143 747 132 741 c 0,33,34
 115 734 115 734 112.5 732 c 128,-1,35
 110 730 110 730 108 721 c 1,36,-1
 170 515 l 1,37,-1
 244 727 l 2,38,39
 245 735 245 735 239 736.5 c 128,-1,40
 233 738 233 738 227.5 741.5 c 128,-1,41
 222 745 222 745 222 753 c 256,42,43
 222 761 222 761 228 760 c 0,44,45
 239 758 239 758 260 755 c 0,46,47
 268 755 268 755 282.5 756 c 128,-1,48
 297 757 297 757 299 757 c 0,49,50
 304 757 304 757 303 747 c 0,51,52
 302 738 302 738 297 738 c 0,53,54
 287 737 287 737 274 725 c 1,55,-1
 186 483 l 1,56,-1
 186 39 l 2,0,1
EndSplineSet
Validated: 5
EndChar

StartChar: z
Encoding: 122 122 93
Width: 354
GlyphClass: 2
Flags: W
LayerCount: 2
Fore
SplineSet
467 -117 m 1,0,1
 467 -139 467 -139 451 -164 c 1,2,3
 416 -201 416 -201 390 -200 c 0,4,5
 376 -200 376 -200 283.5 -144 c 128,-1,6
 191 -88 191 -88 137 -88 c 0,7,8
 64 -88 64 -88 32 -180 c 1,9,10
 8 -180 8 -180 8 -117 c 0,11,12
 8 19 8 19 97 296 c 0,13,14
 179 551 179 551 256 690 c 1,15,16
 244 694 244 694 220 695 c 0,17,18
 203 695 203 695 176 693.5 c 128,-1,19
 149 692 149 692 148 692 c 0,20,21
 118 692 118 692 95 669 c 0,22,23
 80 650 80 650 65 631 c 1,24,25
 89 703 89 703 143 760 c 1,26,27
 142 753 142 753 148 744 c 1,28,29
 178 738 178 738 225 738 c 0,30,31
 229 738 229 738 241 739.5 c 128,-1,32
 253 741 253 741 256 741 c 0,33,34
 271 741 271 741 298 749 c 128,-1,35
 325 757 325 757 331 757 c 0,36,37
 339 757 339 757 340 752 c 1,38,39
 254 680 254 680 159 394 c 0,40,41
 67 116 67 116 67 -49 c 0,42,43
 67 -70 67 -70 69 -86 c 1,44,45
 109 -54 109 -54 154 -54 c 0,46,47
 204 -54 204 -54 284 -106.5 c 128,-1,48
 364 -159 364 -159 392 -159 c 0,49,50
 407 -159 407 -159 420 -151 c 0,51,52
 468 -120 468 -120 467 -117 c 1,0,1
EndSplineSet
Validated: 37
EndChar

StartChar: braceleft
Encoding: 123 123 94
Width: 185
GlyphClass: 2
Flags: W
LayerCount: 2
Fore
SplineSet
126 639 m 2,0,1
 126 755 126 755 143 811 c 0,2,3
 155 853 155 853 190 889 c 0,4,5
 243 946 243 946 261 971 c 1,6,7
 137 904 137 904 116 889 c 0,8,9
 66 854 66 854 67 814 c 2,10,-1
 66 501 l 1,11,12
 61 488 61 488 47 472 c 0,13,14
 14 434 14 434 -54 391 c 1,15,16
 53 327 53 327 66 278 c 1,17,-1
 66 -52 l 2,18,19
 65 -94 65 -94 116 -134 c 0,20,21
 152 -162 152 -162 261 -221 c 1,22,23
 238 -188 238 -188 190 -145 c 0,24,25
 155 -114 155 -114 144 -78 c 0,26,27
 127 -28 127 -28 127 88 c 2,28,-1
 127 269 l 2,29,30
 127 319 127 319 6 394 c 1,31,32
 104 461 104 461 126 507 c 1,33,-1
 126 639 l 2,0,1
EndSplineSet
Validated: 41
EndChar

StartChar: bar
Encoding: 124 124 95
Width: 143
GlyphClass: 2
Flags: W
LayerCount: 2
Fore
SplineSet
40 742 m 1,1,2
 45 716 45 716 52 364 c 1,3,4
 54 -8 54 -8 48 -8 c 1,5,-1
 77 -8 l 2,6,7
 88 -8 88 -8 109 -11 c 1,8,9
 104 13 104 13 100 59 c 0,10,11
 91 169 91 169 88 367 c 0,12,13
 83 696 83 696 103 736 c 0,14,15
 105 739 105 739 75.5 739 c 128,-1,0
 46 739 46 739 40 742 c 1,1,2
EndSplineSet
Validated: 41
EndChar

StartChar: braceright
Encoding: 125 125 96
Width: 185
GlyphClass: 2
Flags: W
LayerCount: 2
Fore
SplineSet
81 639 m 2,0,1
 81 755 81 755 64 811 c 0,2,3
 52 853 52 853 17 889 c 0,4,5
 -36 946 -36 946 -54 971 c 1,6,7
 70 904 70 904 91 889 c 0,8,9
 141 854 141 854 140 814 c 2,10,-1
 141 501 l 1,11,12
 146 488 146 488 160 472 c 0,13,14
 193 434 193 434 261 391 c 1,15,16
 154 327 154 327 141 278 c 1,17,-1
 141 -52 l 2,18,19
 142 -94 142 -94 91 -134 c 0,20,21
 55 -162 55 -162 -54 -221 c 1,22,23
 -31 -188 -31 -188 17 -145 c 0,24,25
 51 -114 51 -114 63 -78 c 0,26,27
 80 -28 80 -28 80 88 c 2,28,-1
 80 269 l 2,29,30
 80 319 80 319 201 394 c 1,31,32
 103 461 103 461 81 507 c 1,33,-1
 81 639 l 2,0,1
EndSplineSet
Validated: 33
EndChar

StartChar: asciitilde
Encoding: 126 126 97
Width: 354
GlyphClass: 2
Flags: W
LayerCount: 2
Fore
SplineSet
1 566 m 5,0,1
 48 673 48 673 125 667 c 4,2,3
 162 664 162 664 205 635 c 4,4,5
 242 611 242 611 261 615 c 4,6,7
 332 631 332 631 350 658 c 4,8,9
 351 660 351 660 352 660 c 5,10,11
 352 660 352 660 352 660 c 5,12,13
 352 646 352 646 323 609 c 4,14,15
 288 563 288 563 250 563 c 4,16,17
 220 563 220 563 182 587.5 c 132,-1,18
 144 612 144 612 119 612 c 4,19,20
 59 612 59 612 1 566 c 5,0,1
EndSplineSet
Validated: 37
EndChar

StartChar: copyright
Encoding: 169 169 99
Width: 612
GlyphClass: 2
Flags: W
LayerCount: 2
Fore
SplineSet
-22 57 m 0,0,1
 -4 30 -4 30 71 6 c 0,2,3
 158 -23 158 -23 259 -23 c 0,4,5
 361 -23 361 -23 456 8 c 0,6,7
 649 70 649 70 645 260 c 0,8,9
 644 321 644 321 585 380 c 0,10,11
 581 385 581 385 469 446 c 0,12,13
 367 502 367 502 367 521 c 0,14,15
 367 542 367 542 387 557 c 1,16,17
 375 556 375 556 364.5 538.5 c 128,-1,18
 354 521 354 521 354 514 c 0,19,20
 354 486 354 486 415 449 c 0,21,22
 532 378 532 378 533 377 c 0,23,24
 599 328 599 328 609 273 c 0,25,26
 611 261 611 261 611 249 c 0,27,28
 611 161 611 161 508 93 c 0,29,30
 412 29 412 29 306 27 c 0,31,32
 111 23 111 23 35 76 c 0,33,34
 -17 112 -17 112 -17 182 c 0,35,36
 -17 192 -17 192 -16 209.5 c 128,-1,37
 -15 227 -15 227 -15 233 c 0,38,39
 -15 276 -15 276 46 331 c 0,40,41
 94 371 94 371 142 410 c 0,42,43
 177 442 177 442 213 473 c 1,44,45
 256 517 256 517 266 553 c 0,46,47
 272 573 272 573 272 609 c 0,48,49
 272 639 272 639 258 668 c 0,50,51
 237 712 237 712 202 723 c 0,52,53
 200 724 200 724 145 723 c 0,54,55
 131 723 131 723 114.5 724 c 128,-1,56
 98 725 98 725 99 725 c 1,57,58
 77 725 77 725 61 713 c 0,59,60
 59 713 59 713 49 707 c 0,61,62
 48 704 48 704 46 701 c 0,63,64
 28 697 28 697 14 696.5 c 128,-1,65
 0 696 0 696 -6 695 c 0,66,67
 -17 693 -17 693 -24 687 c 1,68,69
 -3 696 -3 696 3 692 c 0,70,71
 5 690 5 690 2 683 c 128,-1,72
 -1 676 -1 676 0 673 c 1,73,74
 -3 685 -3 685 10 692 c 0,75,76
 21 696 21 696 36 696 c 0,77,78
 48 696 48 696 48 696 c 1,79,80
 50 692 50 692 61 683 c 1,81,82
 74 679 74 679 79 680 c 256,83,84
 84 681 84 681 89 681 c 0,85,86
 120 681 120 681 152 642.5 c 128,-1,87
 184 604 184 604 184 577 c 0,88,89
 184 532 184 532 119 464 c 0,90,91
 58 402 58 402 -3 340 c 1,92,93
 -68 260 -68 260 -68 187 c 0,94,95
 -68 124 -68 124 -22 57 c 0,0,1
387 377 m 0,96,97
 420 362 420 362 420 343 c 0,98,99
 420 329 420 329 403 329 c 0,100,101
 392 329 392 329 379 337 c 0,102,103
 356 353 356 353 331 353 c 0,104,105
 283 353 283 353 243.5 306.5 c 128,-1,106
 204 260 204 260 204 210 c 0,107,108
 204 114 204 114 339 121 c 0,109,110
 398 124 398 124 429 185 c 1,111,112
 429 133 429 133 380 105 c 0,113,114
 341 83 341 83 284 83 c 0,115,116
 205 83 205 83 163 119 c 0,117,118
 130 148 130 148 126 191 c 256,119,120
 122 234 122 234 156.5 290 c 128,-1,121
 191 346 191 346 228 363 c 0,122,123
 280 386 280 386 335 386 c 0,124,125
 367 386 367 386 387 377 c 0,96,97
EndSplineSet
Validated: 37
EndChar

StartChar: registered
Encoding: 174 174 100
Width: 612
GlyphClass: 2
Flags: W
LayerCount: 2
Fore
SplineSet
-22 57 m 0,0,1
 -4 30 -4 30 71 6 c 0,2,3
 158 -23 158 -23 259 -23 c 0,4,5
 361 -23 361 -23 456 8 c 0,6,7
 649 70 649 70 645 260 c 0,8,9
 644 321 644 321 585 380 c 0,10,11
 581 385 581 385 469 446 c 0,12,13
 367 502 367 502 367 521 c 0,14,15
 367 542 367 542 387 557 c 1,16,17
 375 556 375 556 364.5 538.5 c 128,-1,18
 354 521 354 521 354 514 c 0,19,20
 354 486 354 486 415 449 c 0,21,22
 532 378 532 378 533 377 c 0,23,24
 599 328 599 328 609 273 c 0,25,26
 611 261 611 261 611 249 c 0,27,28
 611 161 611 161 508 93 c 0,29,30
 412 29 412 29 306 27 c 0,31,32
 111 23 111 23 35 76 c 0,33,34
 -17 112 -17 112 -17 182 c 0,35,36
 -17 192 -17 192 -16 209.5 c 128,-1,37
 -15 227 -15 227 -15 233 c 0,38,39
 -15 276 -15 276 46 331 c 0,40,41
 94 371 94 371 142 410 c 0,42,43
 177 442 177 442 213 473 c 1,44,45
 256 517 256 517 266 553 c 0,46,47
 272 573 272 573 272 609 c 0,48,49
 272 639 272 639 258 668 c 0,50,51
 237 712 237 712 202 723 c 0,52,53
 200 724 200 724 145 723 c 0,54,55
 131 723 131 723 114.5 724 c 128,-1,56
 98 725 98 725 99 725 c 1,57,58
 77 725 77 725 61 713 c 0,59,60
 59 713 59 713 49 707 c 0,61,62
 48 704 48 704 46 701 c 0,63,64
 28 697 28 697 14 696.5 c 128,-1,65
 0 696 0 696 -6 695 c 0,66,67
 -17 693 -17 693 -24 687 c 1,68,69
 -3 696 -3 696 3 692 c 0,70,71
 5 690 5 690 2 683 c 128,-1,72
 -1 676 -1 676 0 673 c 1,73,74
 -3 685 -3 685 10 692 c 0,75,76
 21 696 21 696 36 696 c 0,77,78
 48 696 48 696 48 696 c 1,79,80
 50 692 50 692 61 683 c 1,81,82
 74 679 74 679 79 680 c 256,83,84
 84 681 84 681 89 681 c 0,85,86
 120 681 120 681 152 642.5 c 128,-1,87
 184 604 184 604 184 577 c 0,88,89
 184 532 184 532 119 464 c 0,90,91
 58 402 58 402 -3 340 c 1,92,93
 -68 260 -68 260 -68 187 c 0,94,95
 -68 124 -68 124 -22 57 c 0,0,1
210 373 m 1,96,97
 210 374 210 374 208 366.5 c 128,-1,98
 206 359 206 359 207 352 c 0,99,100
 208 342 208 342 213 330 c 0,101,102
 223 306 223 306 223 278 c 0,103,104
 223 255 223 255 216 232 c 0,105,106
 201 185 201 185 178 113 c 0,107,108
 175 105 175 105 175 98 c 0,109,110
 175 73 175 73 198 73 c 0,111,112
 226 73 226 73 228 74 c 0,113,114
 248 79 248 79 248 108 c 0,115,116
 248 114 248 114 247 122 c 0,117,118
 244 145 244 145 248 196 c 0,119,120
 252 242 252 242 256 252 c 0,121,122
 264 277 264 277 273 301 c 0,123,124
 277 312 277 312 290.5 327.5 c 128,-1,125
 304 343 304 343 327 350 c 0,126,127
 347 356 347 356 360 353 c 0,128,129
 390 346 390 346 409 323.5 c 128,-1,130
 428 301 428 301 428 276 c 0,131,132
 428 260 428 260 419.5 248.5 c 128,-1,133
 411 237 411 237 401 237 c 0,134,135
 383 237 383 237 378 269 c 0,136,137
 377 272 377 272 376 272 c 0,138,139
 370 272 370 272 370 240 c 0,140,141
 370 218 370 218 386 214 c 0,142,143
 396 211 396 211 417.5 220.5 c 128,-1,144
 439 230 439 230 443 246 c 0,145,146
 444 251 444 251 451 269 c 0,147,148
 457 282 457 282 457 292 c 0,149,150
 457 303 457 303 452 315 c 0,151,152
 438 345 438 345 413 367 c 0,153,154
 380 394 380 394 342 390 c 0,155,156
 289 384 289 384 282 373 c 2,157,-1
 267 358 l 1,158,159
 267 390 267 390 262 396 c 0,160,161
 258 400 258 400 234 388 c 128,-1,162
 210 376 210 376 210 373 c 1,96,97
EndSplineSet
Validated: 37
EndChar

StartChar: Adieresis
Encoding: 196 196 101
Width: 374
GlyphClass: 2
Flags: W
LayerCount: 2
Fore
SplineSet
169 738 m 132,-1,1
 169 746 169 746 173 750 c 132,-1,2
 177 754 177 754 184 754 c 4,3,4
 193 754 193 754 197 750 c 132,-1,5
 201 746 201 746 201 738 c 260,6,7
 201 730 201 730 197 726 c 132,-1,8
 193 722 193 722 186 722 c 4,9,10
 177 722 177 722 173 726 c 132,-1,0
 169 730 169 730 169 738 c 132,-1,1
126 738 m 132,-1,12
 126 746 126 746 130 750 c 132,-1,13
 134 754 134 754 142 754 c 260,14,15
 150 754 150 754 154 750 c 132,-1,16
 158 746 158 746 158 738 c 260,17,18
 158 730 158 730 154 726 c 132,-1,19
 150 722 150 722 142 722 c 260,20,21
 134 722 134 722 130 726 c 132,-1,11
 126 730 126 730 126 738 c 132,-1,12
180 388 m 1,22,23
 172 445 172 445 152 527 c 1,24,25
 144 483 144 483 128 388 c 1,26,-1
 180 388 l 1,22,23
342 0 m 1,27,28
 327 5 327 5 291 5 c 0,29,30
 280 5 280 5 251 1 c 0,31,32
 233 -1 233 -1 229 2 c 0,33,34
 220 11 220 11 238 14 c 0,35,36
 253 16 253 16 255 21 c 0,37,38
 256 24 256 24 256 28 c 0,39,40
 256 40 256 40 223.5 190 c 128,-1,41
 191 340 191 340 185 361 c 1,42,-1
 123 361 l 1,43,44
 87.735218509 210.66066838 87.735218509 210.66066838 86 199 c 0,45,46
 61 31 61 31 65 27 c 0,47,48
 72 21 72 21 83.5 18.5 c 0,49,50
 92 17 92 17 95.5 14.5 c 128,-1,51
 99 12 99 12 99 7 c 0,52,53
 99 -0 99 -0 95 0 c 0,54,55
 51.4583333333 3.95833333333 51.4583333333 3.95833333333 50 5 c 0,56,57
 57 0 57 0 6 0 c 0,58,59
 1 0 1 0 0 4 c 0,60,61
 -1 12 -1 12 3 13 c 128,-1,62
 7 14 7 14 14 16 c 0,63,64
 27 20 27 20 28 28 c 0,65,66
 81 321 81 321 138 578 c 0,67,-1
 141 592 l 0,68,69
 137 595 137 595 133 591 c 0,70,71
 119 577 119 577 109 562 c 0,72,73
 73 507 73 507 73 476 c 0,74,75
 73 456 73 456 82.5 434.5 c 128,-1,76
 92 413 92 413 92 403 c 0,77,78
 92 382 92 382 77 365 c 0,79,80
 70 357 70 357 69 360 c 0,81,82
 68 362 68 362 67 364 c 0,83,84
 67 366 67 366 73 373 c 128,-1,85
 79 380 79 380 79 388 c 0,86,87
 79 391 79 391 78 395 c 0,88,89
 72 414 72 414 52 446 c 0,90,91
 35 473 35 473 35 489 c 0,92,93
 35 509 35 509 65 546 c 0,94,95
 106 596 106 596 125 634 c 0,96,97
 137 658 137 658 141 664 c 0,98,99
 153 684 153 684 166 684 c 0,100,101
 174 684 174 684 181 669 c 1,102,103
 215.34449256 411.970249226 215.34449256 411.970249226 243 302 c 0,104,105
 303 65 303 65 310 28 c 0,106,107
 312 18 312 18 339 12 c 1,108,109
 347 5 347 5 342 0 c 1,27,28
EndSplineSet
Validated: 33
EndChar

StartChar: Egrave
Encoding: 200 200 102
Width: 301
GlyphClass: 2
Flags: W
LayerCount: 2
Fore
SplineSet
81 769 m 5,0,-1
 98 791 l 5,1,-1
 202 733 l 5,2,-1
 195 729 l 5,3,-1
 81 769 l 5,0,-1
28 645 m 256,4,5
 36 645 36 645 40.5 635 c 0,6,7
 44 627 44 627 44 615 c 2,8,-1
 44 46 l 1,9,10
 33 20 33 20 19 20 c 1,11,12
 6 15 6 15 6 4 c 0,13,14
 6 0 6 0 10 0 c 2,15,-1
 189 0 l 2,16,17
 219 0 219 0 219 -16 c 0,18,19
 219 -30 219 -30 199 -54 c 1,20,21
 225 -54 225 -54 248 -2 c 0,22,23
 252 7 252 7 283 59 c 0,24,25
 302 92 302 92 302 107 c 0,26,27
 302 113 302 113 299 117 c 1,28,29
 278 86 278 86 258 54 c 1,30,31
 226 18 226 18 168 18 c 0,32,33
 138 18 138 18 100 27 c 1,34,-1
 100 437 l 1,35,36
 130 443 130 443 146 413 c 0,37,38
 159 390 159 390 159 357 c 0,39,40
 159 336 159 336 139 311 c 1,41,42
 173 317 173 317 173 354 c 0,43,44
 173 371 173 371 164 407 c 128,-1,45
 155 443 155 443 157 453 c 0,46,47
 159 462 159 462 168 475 c 128,-1,48
 177 488 177 488 179 496 c 0,49,50
 184 512 184 512 175 535 c 1,51,52
 174 522 174 522 163 491 c 1,53,54
 144 458 144 458 122 458 c 0,55,56
 118 458 118 458 102 460 c 1,57,58
 101 502 101 502 101 687 c 1,59,60
 138 695 138 695 209 686 c 0,61,62
 226 684 226 684 228.5 645 c 128,-1,63
 231 606 231 606 240 606 c 1,64,65
 244 695 244 695 237 706 c 1,66,67
 215 707 215 707 40 707 c 0,68,69
 25 707 25 707 0 655 c 0,70,71
 -19 615 -19 615 -61 571 c 0,72,73
 -90 540 -90 540 -90 510 c 0,74,75
 -90 495 -90 495 -73 468 c 0,76,77
 -58 444 -58 444 -47 417 c 0,78,79
 -45 412 -45 412 -45 409 c 0,80,81
 -45 402 -45 402 -51 394.5 c 0,82,83
 -58 387 -58 387 -58 386 c 0,84,85
 -57 383 -57 383 -56 381 c 0,86,87
 -54 380 -54 380 -48 386 c 0,88,89
 -32 407 -32 407 -32 424 c 0,90,91
 -32 435 -32 435 -41 456.5 c 128,-1,92
 -50 478 -50 478 -52 497 c 0,93,94
 -54 529 -54 529 -41.5 547 c 128,-1,95
 -29 565 -29 565 -16 583 c 1,96,-1
 -26 567 l 1,97,-1
 -26 567 l 1,98,99
 -25 570 -25 570 -15 586 c 0,100,101
 20 645 20 645 28 645 c 256,4,5
EndSplineSet
Validated: 37
EndChar

StartChar: Eacute
Encoding: 201 201 103
Width: 301
GlyphClass: 2
Flags: W
LayerCount: 2
Fore
SplineSet
28 645 m 256,0,1
 36 645 36 645 40.5 635 c 0,2,3
 44 627 44 627 44 615 c 2,4,-1
 44 46 l 1,5,6
 33 20 33 20 19 20 c 1,7,8
 6 15 6 15 6 4 c 0,9,10
 6 0 6 0 10 0 c 2,11,-1
 189 0 l 2,12,13
 219 0 219 0 219 -16 c 0,14,15
 219 -30 219 -30 199 -54 c 1,16,17
 225 -54 225 -54 248 -2 c 0,18,19
 252 7 252 7 283 59 c 0,20,21
 302 92 302 92 302 107 c 0,22,23
 302 113 302 113 299 117 c 1,24,25
 278 86 278 86 258 54 c 1,26,27
 226 18 226 18 168 18 c 0,28,29
 138 18 138 18 100 27 c 1,30,-1
 100 437 l 1,31,32
 130 443 130 443 146 413 c 0,33,34
 159 390 159 390 159 357 c 0,35,36
 159 336 159 336 139 311 c 1,37,38
 173 317 173 317 173 354 c 0,39,40
 173 371 173 371 164 407 c 128,-1,41
 155 443 155 443 157 453 c 0,42,43
 159 462 159 462 168 475 c 128,-1,44
 177 488 177 488 179 496 c 0,45,46
 184 512 184 512 175 535 c 1,47,48
 174 522 174 522 163 491 c 1,49,50
 144 458 144 458 122 458 c 0,51,52
 118 458 118 458 102 460 c 1,53,54
 101 502 101 502 101 687 c 1,55,56
 138 695 138 695 209 686 c 0,57,58
 226 684 226 684 228.5 645 c 128,-1,59
 231 606 231 606 240 606 c 1,60,61
 244 695 244 695 237 706 c 1,62,63
 215 707 215 707 40 707 c 0,64,65
 25 707 25 707 0 655 c 0,66,67
 -19 615 -19 615 -61 571 c 0,68,69
 -90 540 -90 540 -90 510 c 0,70,71
 -90 495 -90 495 -73 468 c 0,72,73
 -58 444 -58 444 -47 417 c 0,74,75
 -45 412 -45 412 -45 409 c 0,76,77
 -45 402 -45 402 -51 394.5 c 0,78,79
 -58 387 -58 387 -58 386 c 0,80,81
 -57 383 -57 383 -56 381 c 0,82,83
 -54 380 -54 380 -48 386 c 0,84,85
 -32 407 -32 407 -32 424 c 0,86,87
 -32 435 -32 435 -41 456.5 c 128,-1,88
 -50 478 -50 478 -52 497 c 0,89,90
 -54 529 -54 529 -41.5 547 c 128,-1,91
 -29 565 -29 565 -16 583 c 1,92,-1
 -26 567 l 1,93,-1
 -26 567 l 1,94,95
 -25 570 -25 570 -15 586 c 0,96,97
 20 645 20 645 28 645 c 256,0,1
199 779 m 5,98,-1
 182 801 l 5,99,-1
 78 753 l 5,100,-1
 85 749 l 5,101,-1
 199 779 l 5,98,-1
EndSplineSet
Validated: 37
EndChar

StartChar: Ecircumflex
Encoding: 202 202 104
Width: 301
GlyphClass: 2
Flags: W
LayerCount: 2
Fore
SplineSet
80 740 m 5,0,-1
 72 745 l 5,1,-1
 143 782 l 5,2,-1
 221 745 l 5,3,-1
 213 739 l 5,4,-1
 143 763 l 5,5,-1
 80 740 l 5,0,-1
28 635 m 256,6,7
 36 635 36 635 40.5 625 c 0,8,9
 44 617 44 617 44 605 c 2,10,-1
 44 46 l 1,11,12
 33 20 33 20 19 20 c 1,13,14
 6 15 6 15 6 4 c 0,15,16
 6 0 6 0 10 0 c 2,17,-1
 189 0 l 2,18,19
 219 0 219 0 219 -16 c 0,20,21
 219 -30 219 -30 199 -54 c 1,22,23
 225 -54 225 -54 248 -2 c 0,24,25
 252 7 252 7 283 59 c 0,26,27
 302 92 302 92 302 107 c 0,28,29
 302 113 302 113 299 117 c 1,30,31
 278 86 278 86 258 54 c 1,32,33
 226 18 226 18 168 18 c 0,34,35
 138 18 138 18 100 27 c 1,36,-1
 100 427 l 1,37,38
 130 433 130 433 146 403 c 0,39,40
 159 380 159 380 159 347 c 0,41,42
 159 326 159 326 139 301 c 1,43,44
 173 307 173 307 173 344 c 0,45,46
 173 361 173 361 164 397 c 128,-1,47
 155 433 155 433 157 443 c 0,48,49
 159 452 159 452 168 465 c 128,-1,50
 177 478 177 478 179 486 c 0,51,52
 184 502 184 502 175 525 c 1,53,54
 174 512 174 512 163 481 c 1,55,56
 144 448 144 448 122 448 c 0,57,58
 118 448 118 448 102 450 c 1,59,60
 101 492 101 492 101 677 c 1,61,62
 138 685 138 685 209 676 c 0,63,64
 226 674 226 674 228.5 635 c 128,-1,65
 231 596 231 596 240 596 c 1,66,67
 244 685 244 685 237 696 c 1,68,69
 215 697 215 697 40 697 c 0,70,71
 25 697 25 697 0 645 c 0,72,73
 -19 605 -19 605 -61 561 c 0,74,75
 -90 530 -90 530 -90 500 c 0,76,77
 -90 485 -90 485 -73 458 c 0,78,79
 -58 434 -58 434 -47 407 c 0,80,81
 -45 402 -45 402 -45 399 c 0,82,83
 -45 392 -45 392 -51 384.5 c 0,84,85
 -58 377 -58 377 -58 376 c 0,86,87
 -57 373 -57 373 -56 371 c 0,88,89
 -54 370 -54 370 -48 376 c 0,90,91
 -32 397 -32 397 -32 414 c 0,92,93
 -32 425 -32 425 -41 446.5 c 128,-1,94
 -50 468 -50 468 -52 487 c 0,95,96
 -54 519 -54 519 -41.5 537 c 128,-1,97
 -29 555 -29 555 -16 573 c 1,98,-1
 -26 557 l 1,99,-1
 -26 557 l 1,100,101
 -25 560 -25 560 -15 576 c 0,102,103
 20 635 20 635 28 635 c 256,6,7
EndSplineSet
Validated: 37
EndChar

StartChar: Edieresis
Encoding: 203 203 105
Width: 301
GlyphClass: 2
Flags: W
LayerCount: 2
Fore
SplineSet
28 695 m 256,0,1
 36 695 36 695 40.5 685 c 128,-1,2
 45 675 45 675 44 665 c 2,3,-1
 44 46 l 1,4,5
 33 20 33 20 19 20 c 1,6,7
 6 15 6 15 6 4 c 0,8,9
 6 0 6 0 10 0 c 2,10,-1
 189 0 l 2,11,12
 219 -1 219 -1 219 -16 c 0,13,14
 219 -30 219 -30 199 -54 c 1,15,16
 222 -54 222 -54 248 -2 c 0,17,18
 252 7 252 7 283 59 c 0,19,20
 302 92 302 92 302 107 c 0,21,22
 302 113 302 113 299 117 c 1,23,24
 278 86 278 86 258 54 c 1,25,26
 226 18 226 18 168 18 c 0,27,28
 138 18 138 18 100 27 c 1,29,-1
 100 487 l 1,30,31
 130 493 130 493 146 463 c 0,32,33
 159 440 159 440 159 407 c 0,34,35
 159 386 159 386 139 361 c 1,36,37
 173 367 173 367 173 404 c 0,38,39
 173 421 173 421 164 457 c 128,-1,40
 155 493 155 493 157 503 c 0,41,42
 159 512 159 512 168 525 c 128,-1,43
 177 538 177 538 179 546 c 0,44,45
 184 562 184 562 175 585 c 1,46,47
 174 572 174 572 163 541 c 1,48,49
 144 508 144 508 122 508 c 0,50,51
 118 508 118 508 102 510 c 1,52,53
 101 552 101 552 101 737 c 1,54,55
 138 745 138 745 209 736 c 0,56,57
 226 734 226 734 228.5 695 c 128,-1,58
 231 656 231 656 240 656 c 1,59,60
 244 745 244 745 237 756 c 1,61,62
 215 754 215 754 40 757 c 0,63,64
 25 754 25 754 0 705 c 0,65,66
 -19 665 -19 665 -61 621 c 0,67,68
 -90 590 -90 590 -90 560 c 0,69,70
 -90 545 -90 545 -73 518 c 0,71,72
 -52 485 -52 485 -47 467 c 0,73,74
 -45 462 -45 462 -45 459 c 0,75,76
 -45 452 -45 452 -51 444.5 c 128,-1,77
 -57 437 -57 437 -58 436 c 0,78,79
 -57 433 -57 433 -56 431 c 0,80,81
 -53 431 -53 431 -48 436 c 0,82,83
 -32 457 -32 457 -32 474 c 0,84,85
 -32 485 -32 485 -41 506.5 c 128,-1,86
 -50 528 -50 528 -52 547 c 0,87,88
 -54 579 -54 579 -41.5 597 c 128,-1,89
 -29 615 -29 615 -16 633 c 1,90,-1
 -26 617 l 1,91,-1
 -26 617 l 1,92,93
 -25 620 -25 620 -15 636 c 0,94,95
 20 695 20 695 28 695 c 256,0,1
149 778 m 128,-1,97
 149 786 149 786 153 790 c 128,-1,98
 157 794 157 794 164 794 c 0,99,100
 173 794 173 794 177 790 c 128,-1,101
 181 786 181 786 181 778 c 256,102,103
 181 770 181 770 177 766 c 128,-1,104
 173 762 173 762 166 762 c 0,105,106
 157 762 157 762 153 766 c 128,-1,96
 149 770 149 770 149 778 c 128,-1,97
106 778 m 128,-1,108
 106 786 106 786 110 790 c 128,-1,109
 114 794 114 794 122 794 c 256,110,111
 130 794 130 794 134 790 c 128,-1,112
 138 786 138 786 138 778 c 256,113,114
 138 770 138 770 134 766 c 128,-1,115
 130 762 130 762 122 762 c 256,116,117
 114 762 114 762 110 766 c 128,-1,107
 106 770 106 770 106 778 c 128,-1,108
EndSplineSet
Validated: 37
EndChar

StartChar: egrave
Encoding: 232 232 106
Width: 301
GlyphClass: 2
Flags: W
LayerCount: 2
Fore
SplineSet
81 769 m 5,0,-1
 98 791 l 5,1,-1
 202 733 l 5,2,-1
 195 729 l 5,3,-1
 81 769 l 5,0,-1
59 666 m 1025,4,-1
199 613 m 1024,5,-1
101 627 m 1,6,7
 101 430 101 430 102 400 c 1,8,9
 118 398 118 398 122 398 c 0,10,11
 146 398 146 398 163 431 c 0,12,13
 172 448 172 448 175 475 c 1,14,15
 184 452 184 452 179 436 c 1,16,17
 166 419 166 419 157 393 c 0,18,19
 154 385 154 385 164 347 c 0,20,21
 173 311 173 311 173 294 c 0,22,23
 173 257 173 257 139 251 c 1,24,25
 159 276 159 276 159 297 c 0,26,27
 159 330 159 330 146 353 c 0,28,29
 130 383 130 383 100 377 c 1,30,-1
 100 27 l 1,31,32
 138 18 138 18 168 18 c 0,33,34
 226 18 226 18 258 54 c 1,35,36
 278 86 278 86 299 117 c 1,37,38
 302 113 302 113 302 107 c 0,39,40
 302 92 302 92 283 59 c 0,41,42
 252 7 252 7 248 -2 c 0,43,44
 222 -54 222 -54 199 -54 c 1,45,46
 219 -30 219 -30 219 -16 c 0,47,48
 219 -1 219 -1 189 0 c 0,49,50
 188 0 188 0 10 0 c 0,51,52
 6 0 6 0 6 4 c 0,53,54
 6 15 6 15 19 20 c 1,55,56
 33 20 33 20 44 46 c 1,57,-1
 44 555 l 1,58,59
 49 595 49 595 38 612 c 0,60,61
 33 620 33 620 22.5 624 c 0,62,63
 18 626 18 626 10 631 c 0,64,65
 7 633 7 633 5 638 c 0,66,67
 4 641 4 641 10 647 c 1,68,69
 215 644 215 644 237 646 c 1,70,71
 244 635 244 635 240 546 c 1,72,73
 231 546 231 546 228.5 585 c 128,-1,74
 226 624 226 624 209 626 c 0,75,76
 138 635 138 635 101 627 c 1,6,7
EndSplineSet
Validated: 33
EndChar

StartChar: eacute
Encoding: 233 233 107
Width: 301
GlyphClass: 2
Flags: W
LayerCount: 2
Fore
SplineSet
205 769 m 5,0,-1
 188 791 l 5,1,-1
 84 733 l 5,2,-1
 91 729 l 5,3,-1
 205 769 l 5,0,-1
48 700 m 1,4,-1
 55 696 l 1025,5,-1
101 677 m 1,6,7
 101 480 101 480 102 450 c 1,8,9
 118 448 118 448 122 448 c 0,10,11
 146 448 146 448 163 481 c 0,12,13
 172 498 172 498 175 525 c 1,14,15
 184 502 184 502 179 486 c 1,16,17
 166 469 166 469 157 443 c 0,18,19
 154 435 154 435 164 397 c 0,20,21
 173 361 173 361 173 344 c 0,22,23
 173 307 173 307 139 301 c 1,24,25
 159 326 159 326 159 347 c 0,26,27
 159 380 159 380 146 403 c 0,28,29
 130 433 130 433 100 427 c 1,30,-1
 100 27 l 1,31,32
 138 18 138 18 168 18 c 0,33,34
 226 18 226 18 258 54 c 1,35,36
 278 86 278 86 299 117 c 1,37,38
 302 113 302 113 302 107 c 0,39,40
 302 92 302 92 283 59 c 0,41,42
 252 7 252 7 248 -2 c 0,43,44
 222 -54 222 -54 199 -54 c 1,45,46
 219 -30 219 -30 219 -16 c 0,47,48
 219 -1 219 -1 189 0 c 0,49,50
 188 0 188 0 10 0 c 0,51,52
 6 0 6 0 6 4 c 0,53,54
 6 15 6 15 19 20 c 1,55,56
 33 20 33 20 44 46 c 1,57,-1
 44 605 l 1,58,59
 49 645 49 645 38 662 c 0,60,61
 33 670 33 670 22.5 674 c 0,62,63
 18 676 18 676 10 681 c 0,64,65
 7 683 7 683 5 688 c 0,66,67
 4 691 4 691 10 697 c 1,68,69
 215 694 215 694 237 696 c 1,70,71
 244 685 244 685 240 596 c 1,72,73
 231 596 231 596 228.5 635 c 128,-1,74
 226 674 226 674 209 676 c 0,75,76
 138 685 138 685 101 677 c 1,6,7
EndSplineSet
Validated: 43
EndChar

StartChar: ecircumflex
Encoding: 234 234 108
Width: 301
GlyphClass: 2
Flags: W
LayerCount: 2
Fore
SplineSet
100 720 m 5,0,-1
 92 725 l 5,1,-1
 163 762 l 5,2,-1
 241 725 l 5,3,-1
 233 719 l 5,4,-1
 163 743 l 5,5,-1
 100 720 l 5,0,-1
101 677 m 1,6,7
 101 480 101 480 102 450 c 1,8,9
 118 448 118 448 122 448 c 0,10,11
 146 448 146 448 163 481 c 0,12,13
 172 498 172 498 175 525 c 1,14,15
 184 502 184 502 179 486 c 1,16,17
 166 469 166 469 157 443 c 0,18,19
 154 435 154 435 164 397 c 0,20,21
 173 361 173 361 173 344 c 0,22,23
 173 307 173 307 139 301 c 1,24,25
 159 326 159 326 159 347 c 0,26,27
 159 380 159 380 146 403 c 0,28,29
 130 433 130 433 100 427 c 1,30,-1
 100 27 l 1,31,32
 138 18 138 18 168 18 c 0,33,34
 226 18 226 18 258 54 c 1,35,36
 278 86 278 86 299 117 c 1,37,38
 302 113 302 113 302 107 c 0,39,40
 302 92 302 92 283 59 c 0,41,42
 252 7 252 7 248 -2 c 0,43,44
 222 -54 222 -54 199 -54 c 1,45,46
 219 -30 219 -30 219 -16 c 0,47,48
 219 -1 219 -1 189 0 c 0,49,50
 188 0 188 0 10 0 c 0,51,52
 6 0 6 0 6 4 c 0,53,54
 6 15 6 15 19 20 c 1,55,56
 33 20 33 20 44 46 c 1,57,-1
 44 605 l 1,58,59
 49 645 49 645 38 662 c 0,60,61
 33 670 33 670 22.5 674 c 0,62,63
 18 676 18 676 10 681 c 0,64,65
 7 683 7 683 5 688 c 0,66,67
 4 691 4 691 10 697 c 1,68,69
 215 694 215 694 237 696 c 1,70,71
 244 685 244 685 240 596 c 1,72,73
 231 596 231 596 228.5 635 c 128,-1,74
 226 674 226 674 209 676 c 0,75,76
 138 685 138 685 101 677 c 1,6,7
EndSplineSet
Validated: 33
EndChar

StartChar: edieresis
Encoding: 235 235 109
Width: 301
GlyphClass: 2
Flags: W
LayerCount: 2
Fore
SplineSet
149 738 m 132,-1,1
 149 746 149 746 153 750 c 132,-1,2
 157 754 157 754 164 754 c 4,3,4
 173 754 173 754 177 750 c 132,-1,5
 181 746 181 746 181 738 c 260,6,7
 181 730 181 730 177 726 c 132,-1,8
 173 722 173 722 166 722 c 4,9,10
 157 722 157 722 153 726 c 132,-1,0
 149 730 149 730 149 738 c 132,-1,1
106 738 m 132,-1,12
 106 746 106 746 110 750 c 132,-1,13
 114 754 114 754 122 754 c 260,14,15
 130 754 130 754 134 750 c 132,-1,16
 138 746 138 746 138 738 c 260,17,18
 138 730 138 730 134 726 c 132,-1,19
 130 722 130 722 122 722 c 260,20,21
 114 722 114 722 110 726 c 132,-1,11
 106 730 106 730 106 738 c 132,-1,12
101 677 m 1,22,23
 101 480 101 480 102 450 c 1,24,25
 118 448 118 448 122 448 c 0,26,27
 146 448 146 448 163 481 c 0,28,29
 172 498 172 498 175 525 c 1,30,31
 184 502 184 502 179 486 c 1,32,33
 166 469 166 469 157 443 c 0,34,35
 154 435 154 435 164 397 c 0,36,37
 173 361 173 361 173 344 c 0,38,39
 173 307 173 307 139 301 c 1,40,41
 159 326 159 326 159 347 c 0,42,43
 159 380 159 380 146 403 c 0,44,45
 130 433 130 433 100 427 c 1,46,-1
 100 27 l 1,47,48
 138 18 138 18 168 18 c 0,49,50
 226 18 226 18 258 54 c 1,51,52
 278 86 278 86 299 117 c 1,53,54
 302 113 302 113 302 107 c 0,55,56
 302 92 302 92 283 59 c 0,57,58
 252 7 252 7 248 -2 c 0,59,60
 222 -54 222 -54 199 -54 c 1,61,62
 219 -30 219 -30 219 -16 c 0,63,64
 219 0 219 0 189 0 c 2,65,-1
 10 0 l 2,66,67
 6 0 6 0 6 4 c 0,68,69
 6 15 6 15 19 20 c 1,70,71
 33 20 33 20 44 46 c 1,72,-1
 44 605 l 1,73,74
 49 645 49 645 38 662 c 0,75,76
 33 670 33 670 22.5 674 c 0,77,78
 18 676 18 676 10 681 c 0,79,80
 7 683 7 683 5 688 c 0,81,82
 4 691 4 691 10 697 c 1,83,84
 215 694 215 694 237 696 c 1,85,86
 244 685 244 685 240 596 c 1,87,88
 231 596 231 596 228.5 635 c 128,-1,89
 226 674 226 674 209 676 c 0,90,91
 138 685 138 685 101 677 c 1,22,23
EndSplineSet
Validated: 33
EndChar

StartChar: Agrave
Encoding: 192 192 110
Width: 374
Flags: W
LayerCount: 2
Fore
SplineSet
87 769 m 5,0,-1
 104 791 l 5,1,-1
 208 733 l 5,2,-1
 201 729 l 5,3,-1
 87 769 l 5,0,-1
180 388 m 1,4,5
 172 445 172 445 152 527 c 1,6,7
 144 483 144 483 128 388 c 1,8,-1
 180 388 l 1,4,5
342 0 m 1,9,10
 327 5 327 5 291 5 c 0,11,12
 280 5 280 5 251 1 c 0,13,14
 233 -1 233 -1 229 2 c 0,15,16
 220 11 220 11 238 14 c 0,17,18
 253 16 253 16 255 21 c 0,19,20
 256 24 256 24 256 28 c 0,21,22
 256 40 256 40 223.5 190 c 128,-1,23
 191 340 191 340 185 361 c 1,24,-1
 123 361 l 1,25,26
 87.735218509 210.66066838 87.735218509 210.66066838 86 199 c 0,27,28
 61 31 61 31 65 27 c 0,29,30
 72 21 72 21 83.5 18.5 c 0,31,32
 92 17 92 17 95.5 14.5 c 128,-1,33
 99 12 99 12 99 7 c 0,34,35
 99 -0 99 -0 95 0 c 0,36,37
 51.4583333333 3.95833333333 51.4583333333 3.95833333333 50 5 c 0,38,39
 57 0 57 0 6 0 c 0,40,41
 1 0 1 0 0 4 c 0,42,43
 -1 12 -1 12 3 13 c 128,-1,44
 7 14 7 14 14 16 c 0,45,46
 27 20 27 20 28 28 c 0,47,48
 81 321 81 321 138 578 c 0,49,-1
 141 592 l 0,50,51
 137 595 137 595 133 591 c 0,52,53
 119 577 119 577 109 562 c 0,54,55
 73 507 73 507 73 476 c 0,56,57
 73 456 73 456 82.5 434.5 c 128,-1,58
 92 413 92 413 92 403 c 0,59,60
 92 382 92 382 77 365 c 0,61,62
 70 357 70 357 69 360 c 0,63,64
 68 362 68 362 67 364 c 0,65,66
 67 366 67 366 73 373 c 128,-1,67
 79 380 79 380 79 388 c 0,68,69
 79 391 79 391 78 395 c 0,70,71
 72 414 72 414 52 446 c 0,72,73
 35 473 35 473 35 489 c 0,74,75
 35 509 35 509 65 546 c 0,76,77
 106 596 106 596 125 634 c 0,78,79
 137 658 137 658 141 664 c 0,80,81
 153 684 153 684 166 684 c 0,82,83
 174 684 174 684 181 669 c 1,84,85
 212 516 212 516 243 362 c 0,86,87
 298 87 298 87 310 28 c 0,88,89
 312 18 312 18 339 12 c 1,90,91
 347 5 347 5 342 0 c 1,9,10
EndSplineSet
Validated: 33
EndChar

StartChar: Aacute
Encoding: 193 193 111
Width: 374
Flags: W
LayerCount: 2
Fore
SplineSet
229 769 m 5,0,-1
 212 791 l 5,1,-1
 108 733 l 5,2,-1
 115 729 l 5,3,-1
 229 769 l 5,0,-1
180 388 m 1,4,5
 172 445 172 445 152 527 c 1,6,7
 144 483 144 483 128 388 c 1,8,-1
 180 388 l 1,4,5
342 0 m 1,9,10
 327 5 327 5 291 5 c 0,11,12
 280 5 280 5 251 1 c 0,13,14
 233 -1 233 -1 229 2 c 0,15,16
 220 11 220 11 238 14 c 0,17,18
 253 16 253 16 255 21 c 0,19,20
 256 24 256 24 256 28 c 0,21,22
 256 40 256 40 223.5 190 c 128,-1,23
 191 340 191 340 185 361 c 1,24,-1
 123 361 l 1,25,26
 87.735218509 210.66066838 87.735218509 210.66066838 86 199 c 0,27,28
 61 31 61 31 65 27 c 0,29,30
 72 21 72 21 83.5 18.5 c 0,31,32
 92 17 92 17 95.5 14.5 c 128,-1,33
 99 12 99 12 99 7 c 0,34,35
 99 -0 99 -0 95 0 c 0,36,37
 51.4583333333 3.95833333333 51.4583333333 3.95833333333 50 5 c 0,38,39
 57 0 57 0 6 0 c 0,40,41
 1 0 1 0 0 4 c 0,42,43
 -1 12 -1 12 3 13 c 128,-1,44
 7 14 7 14 14 16 c 0,45,46
 27 20 27 20 28 28 c 0,47,48
 83 303 83 303 138 578 c 0,49,-1
 141 592 l 0,50,51
 137 595 137 595 133 591 c 0,52,53
 119 577 119 577 109 562 c 0,54,55
 73 507 73 507 73 476 c 0,56,57
 73 456 73 456 82.5 434.5 c 128,-1,58
 92 413 92 413 92 403 c 0,59,60
 92 382 92 382 77 365 c 0,61,62
 70 357 70 357 69 360 c 0,63,64
 68 362 68 362 67 364 c 0,65,66
 67 366 67 366 73 373 c 128,-1,67
 79 380 79 380 79 388 c 0,68,69
 79 391 79 391 78 395 c 0,70,71
 72 414 72 414 52 446 c 0,72,73
 35 473 35 473 35 489 c 0,74,75
 35 509 35 509 65 546 c 0,76,77
 106 596 106 596 125 634 c 0,78,79
 137 658 137 658 141 664 c 0,80,-1
 166 684 l 0,81,82
 174 676 174 676 181 669 c 1,83,84
 211.271086105 429.073613833 211.271086105 429.073613833 243 302 c 0,85,86
 304 56 304 56 310 28 c 0,87,88
 312 18 312 18 339 12 c 1,89,90
 347 5 347 5 342 0 c 1,9,10
EndSplineSet
Validated: 41
EndChar

StartChar: Acircumflex
Encoding: 194 194 112
Width: 374
Flags: W
LayerCount: 2
Fore
SplineSet
100 720 m 5,0,-1
 92 725 l 5,1,-1
 163 762 l 5,2,-1
 241 725 l 5,3,-1
 233 719 l 5,4,-1
 163 743 l 5,5,-1
 100 720 l 5,0,-1
180 388 m 1,6,7
 172 445 172 445 152 527 c 1,8,9
 144 483 144 483 128 388 c 1,10,-1
 180 388 l 1,6,7
342 0 m 1,11,12
 327 5 327 5 291 5 c 0,13,14
 280 5 280 5 251 1 c 0,15,16
 233 -1 233 -1 229 2 c 0,17,18
 220 11 220 11 238 14 c 0,19,20
 253 16 253 16 255 21 c 0,21,22
 256 24 256 24 256 28 c 0,23,24
 256 40 256 40 223.5 190 c 128,-1,25
 191 340 191 340 185 361 c 1,26,-1
 123 361 l 1,27,28
 87.735218509 210.66066838 87.735218509 210.66066838 86 199 c 0,29,30
 61 31 61 31 65 27 c 0,31,32
 72 21 72 21 83.5 18.5 c 0,33,34
 92 17 92 17 95.5 14.5 c 128,-1,35
 99 12 99 12 99 7 c 0,36,37
 99 -0 99 -0 95 0 c 0,38,39
 51.4583333333 3.95833333333 51.4583333333 3.95833333333 50 5 c 0,40,41
 57 0 57 0 6 0 c 0,42,43
 1 0 1 0 0 4 c 0,44,45
 -1 12 -1 12 3 13 c 128,-1,46
 7 14 7 14 14 16 c 0,47,48
 27 20 27 20 28 28 c 0,49,50
 81 321 81 321 138 578 c 0,51,-1
 141 592 l 0,52,53
 137 595 137 595 133 591 c 0,54,55
 119 577 119 577 109 562 c 0,56,57
 73 507 73 507 73 476 c 0,58,59
 73 456 73 456 82.5 434.5 c 128,-1,60
 92 413 92 413 92 403 c 0,61,62
 92 382 92 382 77 365 c 0,63,64
 70 357 70 357 69 360 c 0,65,66
 68 362 68 362 67 364 c 0,67,68
 67 366 67 366 73 373 c 128,-1,69
 79 380 79 380 79 388 c 0,70,71
 79 391 79 391 78 395 c 0,72,73
 72 414 72 414 52 446 c 0,74,75
 35 473 35 473 35 489 c 0,76,77
 35 509 35 509 65 546 c 0,78,79
 106 596 106 596 125 634 c 0,80,81
 137 658 137 658 141 664 c 0,82,83
 153 684 153 684 166 684 c 0,84,85
 174 684 174 684 181 669 c 1,86,87
 212 516 212 516 243 362 c 0,88,89
 298 87 298 87 310 28 c 0,90,91
 312 18 312 18 339 12 c 1,92,93
 347 5 347 5 342 0 c 1,11,12
EndSplineSet
Validated: 33
EndChar

StartChar: Atilde
Encoding: 195 195 113
Width: 374
Flags: W
LayerCount: 2
Fore
SplineSet
85.0390625 731.104492188 m 5,0,1
 107.116210938 770.5078125 107.116210938 770.5078125 143.28515625 768.298828125 c 4,2,3
 160.6640625 767.194335938 160.6640625 767.194335938 180.862304688 756.513671875 c 4,4,5
 198.243164062 747.676757812 198.243164062 747.676757812 207.16796875 749.149414062 c 4,6,7
 240.517578125 755.041015625 240.517578125 755.041015625 248.973632812 764.985351562 c 4,8,9
 249.442382812 765.720703125 249.442382812 765.720703125 249.912109375 765.720703125 c 5,10,11
 249.912109375 765.720703125 249.912109375 765.720703125 249.912109375 765.720703125 c 5,12,13
 249.912109375 760.565429688 249.912109375 760.565429688 236.290039062 746.939453125 c 4,14,15
 219.849609375 730 219.849609375 730 202 730 c 4,16,17
 187.908203125 730 187.908203125 730 170.05859375 739.022460938 c 132,-1,18
 152.208984375 748.044921875 152.208984375 748.044921875 140.465820312 748.044921875 c 4,19,20
 112.282226562 748.044921875 112.282226562 748.044921875 85.0390625 731.104492188 c 5,0,1
180 388 m 1,21,22
 172 445 172 445 152 527 c 1,23,24
 144 483 144 483 128 388 c 1,25,-1
 180 388 l 1,21,22
342 0 m 1,26,27
 327 5 327 5 291 5 c 0,28,29
 280 5 280 5 251 1 c 0,30,31
 233 -1 233 -1 229 2 c 0,32,33
 220 11 220 11 238 14 c 0,34,35
 253 16 253 16 255 21 c 0,36,37
 256 24 256 24 256 28 c 0,38,39
 256 40 256 40 223.5 190 c 128,-1,40
 191 340 191 340 185 361 c 1,41,-1
 123 361 l 1,42,43
 87.735218509 210.66066838 87.735218509 210.66066838 86 199 c 0,44,45
 61 31 61 31 65 27 c 0,46,47
 72 21 72 21 83.5 18.5 c 0,48,49
 92 17 92 17 95.5 14.5 c 128,-1,50
 99 12 99 12 99 7 c 0,51,52
 99 -0 99 -0 95 0 c 0,53,54
 51.4583333333 3.95833333333 51.4583333333 3.95833333333 50 5 c 0,55,56
 57 0 57 0 6 0 c 0,57,58
 1 0 1 0 0 4 c 0,59,60
 -1 12 -1 12 3 13 c 128,-1,61
 7 14 7 14 14 16 c 0,62,63
 27 20 27 20 28 28 c 0,64,65
 81 321 81 321 138 578 c 0,66,-1
 141 592 l 0,67,68
 137 595 137 595 133 591 c 0,69,70
 119 577 119 577 109 562 c 0,71,72
 73 507 73 507 73 476 c 0,73,74
 73 456 73 456 82.5 434.5 c 128,-1,75
 92 413 92 413 92 403 c 0,76,77
 92 382 92 382 77 365 c 0,78,79
 70 357 70 357 69 360 c 0,80,81
 68 362 68 362 67 364 c 0,82,83
 67 366 67 366 73 373 c 128,-1,84
 79 380 79 380 79 388 c 0,85,86
 79 391 79 391 78 395 c 0,87,88
 72 414 72 414 52 446 c 0,89,90
 35 473 35 473 35 489 c 0,91,92
 35 509 35 509 65 546 c 0,93,94
 106 596 106 596 125 634 c 0,95,96
 137 658 137 658 141 664 c 0,97,98
 153 684 153 684 166 684 c 0,99,100
 174 684 174 684 181 669 c 1,101,102
 215.34449256 411.970249226 215.34449256 411.970249226 243 302 c 0,103,104
 303 65 303 65 310 28 c 0,105,106
 312 18 312 18 339 12 c 1,107,108
 347 5 347 5 342 0 c 1,26,27
EndSplineSet
Validated: 37
EndChar

StartChar: Aring
Encoding: 197 197 114
Width: 374
Flags: W
LayerCount: 2
Fore
SplineSet
109.005859375 745.022460938 m 4,0,1
 109.005859375 763.377929688 109.005859375 763.377929688 124.786132812 776.174804688 c 132,-1,2
 140.565429688 788.971679688 140.565429688 788.971679688 162.892578125 788.971679688 c 260,3,4
 185.220703125 788.971679688 185.220703125 788.971679688 201 776.174804688 c 132,-1,5
 216.779296875 763.377929688 216.779296875 763.377929688 216.779296875 745.022460938 c 4,6,7
 216.779296875 726.92578125 216.779296875 726.92578125 201 714 c 132,-1,8
 185.220703125 701.073242188 185.220703125 701.073242188 162.892578125 701.073242188 c 260,9,10
 140.565429688 701.073242188 140.565429688 701.073242188 124.786132812 714 c 132,-1,11
 109.005859375 726.92578125 109.005859375 726.92578125 109.005859375 745.022460938 c 4,0,1
122.9609375 746.056640625 m 260,12,13
 122.9609375 729.76953125 122.9609375 729.76953125 134.338867188 718.13671875 c 132,-1,14
 145.717773438 706.501953125 145.717773438 706.501953125 162.034179688 706.501953125 c 4,15,16
 178.135742188 706.501953125 178.135742188 706.501953125 189.62109375 718.13671875 c 132,-1,17
 201.107421875 729.76953125 201.107421875 729.76953125 201.107421875 746.056640625 c 260,18,19
 201.107421875 762.34375 201.107421875 762.34375 189.62109375 773.977539062 c 132,-1,20
 178.135742188 785.611328125 178.135742188 785.611328125 162.034179688 785.611328125 c 4,21,22
 145.717773438 785.611328125 145.717773438 785.611328125 134.338867188 773.977539062 c 132,-1,23
 122.9609375 762.34375 122.9609375 762.34375 122.9609375 746.056640625 c 260,12,13
180 378 m 1,24,25
 172 435 172 435 152 517 c 1,26,27
 144 473 144 473 128 378 c 1,28,-1
 180 378 l 1,24,25
342 0 m 1,29,30
 327 5 327 5 291 5 c 0,31,32
 280 5 280 5 251 1 c 0,33,34
 233 -1 233 -1 229 2 c 0,35,36
 220 11 220 11 238 14 c 0,37,38
 253 16 253 16 255 21 c 0,39,40
 256 24 256 24 256 28 c 0,41,42
 256 40 256 40 223.5 185 c 128,-1,43
 191 330 191 330 185 351 c 1,44,-1
 123 351 l 1,45,46
 87.4705882353 208.882352941 87.4705882353 208.882352941 86 199 c 0,47,48
 61 31 61 31 65 27 c 0,49,50
 72 21 72 21 83.5 18.5 c 0,51,52
 92 17 92 17 95.5 14.5 c 128,-1,53
 99 12 99 12 99 7 c 0,54,55
 99 -0 99 -0 95 0 c 0,56,57
 51.4583333333 3.95833333333 51.4583333333 3.95833333333 50 5 c 0,58,59
 57 0 57 0 6 0 c 0,60,61
 1 0 1 0 0 4 c 0,62,63
 -1 12 -1 12 3 13 c 128,-1,64
 7 14 7 14 14 16 c 0,65,66
 27 20 27 20 28 28 c 0,67,68
 71 267 71 267 138 568 c 0,69,-1
 141 582 l 0,70,71
 137 585 137 585 133 581 c 0,72,73
 119 567 119 567 109 552 c 0,74,75
 73 497 73 497 73 466 c 0,76,77
 73 446 73 446 82.5 424.5 c 128,-1,78
 92 403 92 403 92 393 c 0,79,80
 92 372 92 372 77 355 c 0,81,82
 70 347 70 347 69 350 c 0,83,84
 68 352 68 352 67 354 c 0,85,86
 67 356 67 356 73 363 c 128,-1,87
 79 370 79 370 79 378 c 0,88,89
 79 381 79 381 78 385 c 0,90,91
 72 404 72 404 52 436 c 0,92,93
 35 463 35 463 35 479 c 0,94,95
 35 499 35 499 65 536 c 0,96,97
 106 586 106 586 125 624 c 0,98,99
 137 648 137 648 141 654 c 0,100,101
 153 674 153 674 166 674 c 0,102,103
 174 674 174 674 181 659 c 1,104,105
 215 402 215 402 243 292 c 0,106,107
 283.267708953 161.661455234 283.267708953 161.661455234 310 28 c 0,108,109
 312 18 312 18 339 12 c 1,110,111
 347 5 347 5 342 0 c 1,29,30
EndSplineSet
Validated: 33
EndChar

StartChar: AE
Encoding: 198 198 115
Width: 374
Flags: W
LayerCount: 2
Fore
SplineSet
184.556640625 737 m 5,0,1
 218.5390625 540 218.5390625 540 224.713867188 510 c 5,2,3
 241.059570312 508 241.059570312 508 245.059570312 508 c 4,4,5
 267.059570312 508 267.059570312 508 280.366210938 541 c 4,6,7
 286.434570312 558 286.434570312 558 284.776367188 585 c 5,8,9
 297.744140625 562 297.744140625 562 295.50390625 546 c 5,10,11
 287.747070312 533 287.747070312 533 280.921875 503 c 4,12,13
 280.646484375 493 280.646484375 493 295.856445312 457 c 132,-1,14
 311.06640625 421 311.06640625 421 313.999023438 404 c 4,15,16
 320.381835938 367 320.381835938 367 287.416992188 361 c 5,17,18
 303.104492188 386 303.104492188 386 299.481445312 407 c 4,19,20
 293.7890625 440 293.7890625 440 276.821289062 463 c 4,21,22
 255.646484375 493 255.646484375 493 226.681640625 487 c 5,23,-1
 306.032226562 27 l 5,24,25
 345.584960938 18 345.584960938 18 375.584960938 18 c 4,26,27
 433.584960938 18 433.584960938 18 459.375 54 c 5,28,29
 473.854492188 86 473.854492188 86 489.506835938 117 c 5,30,31
 493.197265625 113 493.197265625 113 494.232421875 107 c 4,32,33
 496.8203125 92 496.8203125 92 483.512695312 59 c 4,34,35
 461.482421875 7 461.482421875 7 459.03515625 -2 c 4,36,37
 442.004882812 -54 442.004882812 -54 419.004882812 -54 c 5,38,39
 434.865234375 -30 434.865234375 -30 432.450195312 -16 c 4,40,41
 429.862304688 -1 429.862304688 -1 399.690429688 0 c 4,42,43
 398.690429688 0 398.690429688 0 220.690429688 0 c 4,44,45
 216.690429688 0 216.690429688 0 216 4 c 4,46,47
 214.102539062 15 214.102539062 15 226.240234375 20 c 5,48,49
 240.240234375 20 240.240234375 20 246.754882812 46 c 5,50,-1
 139.9765625 665 l 5,51,52
 138.076171875 705 138.076171875 705 124.143554688 722 c 4,53,54
 117.763671875 730 117.763671875 730 106.57421875 734 c 132,-1,55
 95.3837890625 738 95.3837890625 738 92.8662109375 741 c 132,-1,56
 90.3486328125 744 90.3486328125 744 86.6591796875 748 c 4,57,58
 85.1416015625 751 85.1416015625 751 90.1064453125 757 c 5,59,60
 295.624023438 754 295.624023438 754 317.278320312 756 c 5,61,62
 326.176757812 745 326.176757812 745 337.529296875 656 c 5,63,64
 328.529296875 656 328.529296875 656 319.301757812 695 c 132,-1,65
 310.07421875 734 310.07421875 734 292.728515625 736 c 4,66,67
 220.176757812 745 220.176757812 745 184.556640625 737 c 5,0,1
180 448 m 1,68,69
 172 505 172 505 152 587 c 1,70,71
 144 543 144 543 128 448 c 1,72,-1
 180 448 l 1,68,69
342 0 m 1,73,74
 333 3 333 3 291 5 c 0,75,76
 280 5 280 5 251 1 c 0,77,78
 233 -1 233 -1 229 2 c 0,79,80
 221 10 221 10 238 14 c 0,81,82
 253 15 253 15 255 21 c 0,83,84
 256 24 256 24 256 28 c 0,85,86
 256 40 256 40 223.5 220 c 128,-1,87
 191 400 191 400 185 421 c 1,88,-1
 123 421 l 1,89,90
 110 354 110 354 86 199 c 0,91,92
 61 33 61 33 65 27 c 0,93,94
 75 20 75 20 83.5 18.5 c 128,-1,95
 92 17 92 17 95.5 14.5 c 128,-1,96
 99 12 99 12 99 7 c 0,97,98
 99 1 99 1 95 0 c 0,99,100
 48 5 48 5 50 5 c 0,101,102
 56 5 56 5 6 0 c 0,103,104
 1 0 1 0 0 4 c 0,105,106
 -1 9 -1 9 3 13 c 0,107,108
 8 14 8 14 14 16 c 0,109,110
 24 19 24 19 28 28 c 0,111,112
 71 278 71 278 138 638 c 0,113,114
 142 649 142 649 141 652 c 0,115,116
 135 653 135 653 133 651 c 0,117,118
 121 636 121 636 109 622 c 0,119,120
 73 563 73 563 73 536 c 0,121,122
 73 516 73 516 82.5 494.5 c 128,-1,123
 92 473 92 473 92 463 c 0,124,125
 92 446 92 446 77 425 c 0,126,127
 72 420 72 420 69 420 c 0,128,129
 68 422 68 422 67 424 c 0,130,131
 67 426 67 426 73 433 c 128,-1,132
 79 440 79 440 79 448 c 0,133,134
 79 451 79 451 78 455 c 0,135,136
 72 474 72 474 52 506 c 0,137,138
 35 533 35 533 35 549 c 0,139,140
 35 569 35 569 65 606 c 0,141,142
 106 656 106 656 125 694 c 0,143,144
 137 718 137 718 141 724 c 0,145,146
 152 742 152 742 166 744 c 0,147,148
 174 744 174 744 181 729 c 1,149,150
 204 559 204 559 243 362 c 0,151,152
 276 195 276 195 310 28 c 0,153,154
 314 18 314 18 339 12 c 1,155,156
 347 5 347 5 342 0 c 1,73,74
EndSplineSet
Validated: 37
EndChar

StartChar: Ccedilla
Encoding: 199 199 116
Width: 345
InSpiro: 1
Flags: W
LayerCount: 2
Fore
SplineSet
126 43 m 1,0,-1
 132 35 l 1,1,-1
 137 29 l 1,2,-1
 114.216292061 -10.1127662122 l 1,3,4
 125.961501872 -6.8162491383 125.961501872 -6.8162491383 138.050928828 -8.48324141072 c 0,5,6
 149.522741038 -10.0650717468 149.522741038 -10.0650717468 159.334193333 -15.8011748731 c 0,7,8
 168.398895274 -21.1007027704 168.398895274 -21.1007027704 174.3660719 -29.1076512656 c 128,-1,9
 180.295256273 -37.0636205407 180.295256273 -37.0636205407 183.029997728 -47.5556948234 c 0,10,11
 186.052065965 -59.1501233869 186.052065965 -59.1501233869 184.771951069 -71.8194291144 c 128,-1,12
 183.501517764 -84.3929160624 183.501517764 -84.3929160624 177.822474056 -98.2988142926 c 0,13,14
 170.825237994 -115.43248284 170.825237994 -115.43248284 160.509029533 -127.231129283 c 128,-1,15
 150.169187587 -139.056805341 150.169187587 -139.056805341 136.733331037 -145.23918543 c 128,-1,16
 123.455087124 -151.349041582 123.455087124 -151.349041582 109.908559325 -150.776741265 c 128,-1,17
 96.4890954337 -150.209809018 96.4890954337 -150.209809018 83.4478951536 -142.297555316 c 0,18,19
 80.2526125108 -140.358938749 80.2526125108 -140.358938749 76.7263127881 -137.89139568 c 0,20,21
 72.6807988504 -135.060530278 72.6807988504 -135.060530278 70.298112038 -132.768685117 c 0,22,23
 66.2493049085 -128.874241678 66.2493049085 -128.874241678 63.3414314585 -123.165174197 c 0,24,25
 60.2497827391 -117.095298232 60.2497827391 -117.095298232 58.0310932471 -108.861654906 c 128,-1,26
 55.8084572476 -100.613365936 55.8084572476 -100.613365936 55.5091901207 -94.3114283873 c 0,27,28
 55.2288063015 -88.4071336645 55.2288063015 -88.4071336645 56.9178147961 -83.9677957877 c 128,-1,29
 58.5317835722 -79.7256899944 58.5317835722 -79.7256899944 62.3375162435 -75.7101749277 c 128,-1,30
 66.2628093135 -71.5685089662 66.2628093135 -71.5685089662 71.555461818 -68.1345345536 c 0,31,32
 77.1189742514 -64.5248210264 77.1189742514 -64.5248210264 81.6849859829 -63.7645167398 c 0,33,34
 86.4655801332 -62.9684815041 86.4655801332 -62.9684815041 89.8394232018 -65.1237635607 c 0,35,36
 90.4960959704 -65.5432599648 90.4960959704 -65.5432599648 91.0725428037 -66.0728792599 c 128,-1,37
 91.66836499 -66.6202999553 91.66836499 -66.6202999553 92.3829370275 -67.5122666449 c 128,-1,38
 93.1901677551 -68.5198948223 93.1901677551 -68.5198948223 93.4693658218 -68.8196578067 c 128,-1,39
 93.7416499443 -69.111997586 93.7416499443 -69.111997586 94.030589135 -69.3727848367 c 1,40,41
 91.5356339569 -70.233316956 91.5356339569 -70.233316956 86.3830210462 -71.981281626 c 0,42,43
 80.7632660269 -73.8877188838 80.7632660269 -73.8877188838 78.8847632437 -74.6777758973 c 0,44,45
 75.584898974 -76.0656263351 75.584898974 -76.0656263351 73.6955759226 -77.845685251 c 0,46,47
 71.4500659432 -79.9613319408 71.4500659432 -79.9613319408 70.0099693801 -83.6786612039 c 0,48,49
 67.2073601175 -90.9130520714 67.2073601175 -90.9130520714 66.9530377275 -98.3875974665 c 0,50,51
 66.7133418695 -105.432268492 66.7133418695 -105.432268492 69.8108889983 -113.135818319 c 0,52,53
 72.7935737164 -120.553707182 72.7935737164 -120.553707182 77.4571473477 -126.147660285 c 128,-1,54
 82.166047842 -131.795982927 82.166047842 -131.795982927 88.7654369314 -135.647459887 c 0,55,56
 97.5260513987 -140.760252044 97.5260513987 -140.760252044 106.690529732 -141.208586476 c 128,-1,57
 116.039564389 -141.665949567 116.039564389 -141.665949567 125.228580551 -137.124560479 c 0,58,59
 136.0846686 -131.759272298 136.0846686 -131.759272298 145.179840132 -120.30918449 c 0,60,61
 154.968325642 -107.986270272 154.968325642 -107.986270272 161.414059427 -91.2967289354 c 0,62,63
 165.378070868 -81.0329583521 165.378070868 -81.0329583521 166.138289277 -72.2892728132 c 0,64,65
 166.945797308 -63.0016836049 166.945797308 -63.0016836049 164.468371601 -53.9606544096 c 0,66,67
 161.811655073 -44.2653276755 161.811655073 -44.2653276755 155.922322315 -36.5827230888 c 0,68,69
 149.725622167 -28.4991593077 149.725622167 -28.4991593077 140.929735928 -23.6329507754 c 0,70,71
 135.917650915 -20.8600805732 135.917650915 -20.8600805732 130.937734395 -19.7453477292 c 0,72,73
 125.571065027 -18.5440419274 125.571065027 -18.5440419274 120.073446453 -19.3462162928 c 0,74,75
 117.747627345 -19.6855836827 117.747627345 -19.6855836827 110.5267563 -21.6137228391 c 0,76,77
 105.264513438 -23.0188630847 105.264513438 -23.0188630847 100.904101266 -23.6140941721 c 1,78,-1
 124.961393722 35.1430816979 l 2,79,80
 125.937570241 37.5272808127 125.937570241 37.5272808127 126.174359957 38.9899330142 c 0,81,82
 126.508418795 41.0534174546 126.508418795 41.0534174546 126 43 c 1,0,-1
  Spiro
    126 43 v
    132 35 v
    137 29 v
    114.216 -10.1128 v
    138.051 -8.48324 o
    159.334 -15.8012 o
    174.366 -29.1077 o
    183.03 -47.5557 o
    184.772 -71.8194 o
    177.822 -98.2988 o
    160.509 -127.231 o
    136.733 -145.239 o
    109.909 -150.777 o
    83.4479 -142.298 o
    76.7263 -137.891 o
    70.2981 -132.769 o
    63.3414 -123.165 o
    58.0311 -108.862 o
    55.5092 -94.3114 o
    56.9178 -83.9678 o
    62.3375 -75.7102 o
    71.5555 -68.1345 o
    81.685 -63.7645 o
    89.8394 -65.1238 o
    91.0725 -66.0729 o
    92.3829 -67.5123 o
    93.4694 -68.8197 o
    94.0306 -69.3728 v
    86.383 -71.9813 o
    78.8848 -74.6778 o
    73.6956 -77.8457 o
    70.01 -83.6787 o
    66.953 -98.3876 o
    69.8109 -113.136 o
    77.4571 -126.148 o
    88.7654 -135.647 o
    106.691 -141.209 o
    125.229 -137.125 o
    145.18 -120.309 o
    161.414 -91.2967 o
    166.138 -72.2893 o
    164.468 -53.9607 o
    155.922 -36.5827 o
    140.93 -23.633 o
    130.938 -19.7453 o
    120.073 -19.3462 o
    110.527 -21.6137 o
    100.904 -23.6141 v
    124.961 35.1431 ]
    0 0 z
  EndSpiro
233 771 m 0,83,84
 234 773 234 773 234 775 c 0,85,86
 234 783 234 783 222.5 791.5 c 128,-1,87
 211 800 211 800 198 800 c 0,88,89
 86 800 86 800 30 612 c 0,90,91
 -2 504 -2 504 -2 403 c 0,92,93
 -2 278 -2 278 45 178 c 0,94,95
 131 -6 131 -6 282 -100 c 0,96,97
 404 -176 404 -176 505 -200 c 1,98,-1
 519 -200 l 2,99,100
 534 -200 534 -200 534 -197 c 0,101,102
 534 -190 534 -190 466 -175 c 1,103,104
 252 -70 252 -70 156 64 c 0,105,106
 88 161 88 161 70 297 c 0,107,108
 59 385 59 385 59 465 c 0,109,110
 59 698 59 698 153 762 c 0,111,112
 159 765 159 765 164 767 c 0,113,114
 183 773 183 773 197 771 c 2,115,-1
 221 767 l 2,116,117
 229 765 229 765 233 771 c 0,83,84
  Spiro
    233 771 o
    233.75 773 o
    234 775 o
    231.125 783.125 o
    222.5 791.5 o
    210.625 797.875 o
    198 800 o
    100 753 o
    30 612 o
    6 505.75 o
    -2 403 o
    9.75 284.25 o
    45 178 o
    147.25 16.5 o
    282 -100 o
    398.75 -163 o
    505 -200 v
    519 -200 ]
    530.25 -199.25 o
    534 -197 o
    517 -188 o
    466 -175 v
    281.5 -62.75 o
    156 64 o
    100.5 170.75 o
    70 297 o
    61.75 383 o
    59 465 o
    82.5 655.75 o
    153 762 o
    158.75 764.75 o
    164 767 o
    181.75 771 o
    197 771 o
    221 767 o
    228 767 o
    0 0 z
  EndSpiro
EndSplineSet
Validated: 37
EndChar

StartChar: ugrave
Encoding: 249 249 117
Width: 311
Flags: W
LayerCount: 2
Fore
SplineSet
77 729 m 1,0,-1
 94 751 l 1,1,-1
 198 693 l 1,2,-1
 191 689 l 1,3,-1
 77 729 l 1,0,-1
234 118 m 6,4,-1
 234 227 l 6,5,6
 234 395 234 395 210 468 c 4,7,8
 197 507 197 507 127 608 c 5,9,10
 205 552 205 552 240 496 c 4,11,12
 278 434 278 434 292 332 c 5,13,-1
 292 250 l 6,14,15
 292 120 292 120 282 84 c 4,16,17
 256 -10 256 -10 157 -10 c 4,18,19
 70 -10 70 -10 40 59 c 4,20,21
 22 102 22 102 29 136 c 5,22,-1
 29 545 l 6,23,24
 29 591 29 591 25 597 c 4,25,26
 19 606 19 606 11 622 c 4,27,28
 6 632 6 632 11 638 c 4,29,-1
 25 637 l 4,30,31
 36 637 36 637 43 637 c 4,32,33
 70 638 70 638 72 637 c 4,34,35
 79 627 79 627 69 618 c 4,36,37
 66 615 66 615 60.5 605.5 c 4,38,39
 57 599 57 599 57 592 c 4,40,41
 57 577 57 577 58 373 c 6,42,-1
 58 139 l 6,43,44
 58 22 58 22 149 17 c 4,45,46
 187 15 187 15 210 40 c 4,47,48
 234 66 234 66 234 118 c 6,4,-1
EndSplineSet
Validated: 524321
EndChar

StartChar: uacute
Encoding: 250 250 118
Width: 311
Flags: W
LayerCount: 2
Fore
SplineSet
234 118 m 6,0,-1
 234 227 l 6,1,2
 234 395 234 395 210 468 c 4,3,4
 197 507 197 507 127 608 c 5,5,6
 205 552 205 552 240 496 c 4,7,8
 278 434 278 434 292 332 c 5,9,-1
 292 250 l 6,10,11
 292 120 292 120 282 84 c 4,12,13
 256 -10 256 -10 157 -10 c 4,14,15
 70 -10 70 -10 40 59 c 4,16,17
 22 102 22 102 29 136 c 5,18,-1
 29 545 l 6,19,20
 29 591 29 591 25 597 c 4,21,22
 19 606 19 606 11 622 c 4,23,24
 6 632 6 632 11 638 c 4,25,-1
 25 637 l 4,26,27
 36 637 36 637 43 637 c 4,28,29
 70 638 70 638 72 637 c 4,30,31
 79 627 79 627 69 618 c 4,32,33
 66 615 66 615 60.5 605.5 c 4,34,35
 57 599 57 599 57 592 c 4,36,37
 57 577 57 577 58 373 c 6,38,-1
 58 139 l 6,39,40
 58 22 58 22 149 17 c 4,41,42
 187 15 187 15 210 40 c 4,43,44
 234 66 234 66 234 118 c 6,0,-1
153 729 m 1,45,-1
 136 751 l 1,46,-1
 32 693 l 1,47,-1
 39 689 l 1,48,-1
 153 729 l 1,45,-1
EndSplineSet
Validated: 524329
EndChar

StartChar: ucircumflex
Encoding: 251 251 119
Width: 311
Flags: W
LayerCount: 2
Fore
SplineSet
234 118 m 2,0,-1
 234 227 l 2,1,2
 234 395 234 395 210 468 c 0,3,4
 197 507 197 507 127 608 c 1,5,6
 205 552 205 552 240 496 c 0,7,8
 278 434 278 434 292 332 c 1,9,-1
 292 250 l 2,10,11
 292 120 292 120 282 84 c 0,12,13
 256 -10 256 -10 157 -10 c 0,14,15
 70 -10 70 -10 40 59 c 0,16,17
 22 102 22 102 29 136 c 1,18,-1
 29 545 l 2,19,20
 29 591 29 591 25 597 c 0,21,22
 19 606 19 606 11 622 c 0,23,24
 6 632 6 632 11 638 c 0,25,-1
 25 637 l 0,26,27
 36 637 36 637 43 637 c 0,28,29
 70 638 70 638 72 637 c 0,30,31
 79 627 79 627 69 618 c 0,32,33
 66 615 66 615 60.5 605.5 c 0,34,35
 57 599 57 599 57 592 c 0,36,37
 57 577 57 577 58 373 c 2,38,-1
 58 139 l 2,39,40
 58 22 58 22 149 17 c 0,41,42
 187 15 187 15 210 40 c 0,43,44
 234 66 234 66 234 118 c 2,0,-1
80 720 m 5,45,-1
 72 725 l 5,46,-1
 143 762 l 5,47,-1
 221 725 l 5,48,-1
 213 719 l 5,49,-1
 143 743 l 5,50,-1
 80 720 l 5,45,-1
EndSplineSet
Validated: 524321
EndChar

StartChar: udieresis
Encoding: 252 252 120
Width: 311
Flags: W
LayerCount: 2
Fore
SplineSet
234 118 m 2,0,-1
 234 227 l 2,1,2
 234 395 234 395 210 468 c 0,3,4
 197 507 197 507 127 608 c 1,5,6
 205 552 205 552 240 496 c 0,7,8
 278 434 278 434 292 332 c 1,9,-1
 292 250 l 2,10,11
 292 120 292 120 282 84 c 0,12,13
 256 -10 256 -10 157 -10 c 0,14,15
 70 -10 70 -10 40 59 c 0,16,17
 22 102 22 102 29 136 c 1,18,-1
 29 545 l 2,19,20
 29 591 29 591 25 597 c 0,21,22
 19 606 19 606 11 622 c 0,23,24
 6 632 6 632 11 638 c 0,25,-1
 25 637 l 0,26,27
 36 637 36 637 43 637 c 0,28,29
 70 638 70 638 72 637 c 0,30,31
 79 627 79 627 69 618 c 0,32,33
 66 615 66 615 60.5 605.5 c 0,34,35
 57 599 57 599 57 592 c 0,36,37
 57 577 57 577 58 373 c 2,38,-1
 58 139 l 2,39,40
 58 22 58 22 149 17 c 0,41,42
 187 15 187 15 210 40 c 0,43,44
 234 66 234 66 234 118 c 2,0,-1
149 718 m 132,-1,46
 149 726 149 726 153 730 c 132,-1,47
 157 734 157 734 164 734 c 4,48,49
 173 734 173 734 177 730 c 132,-1,50
 181 726 181 726 181 718 c 260,51,52
 181 710 181 710 177 706 c 132,-1,53
 173 702 173 702 166 702 c 4,54,55
 157 702 157 702 153 706 c 132,-1,45
 149 710 149 710 149 718 c 132,-1,46
96 718 m 132,-1,57
 96 726 96 726 100 730 c 132,-1,58
 104 734 104 734 112 734 c 260,59,60
 120 734 120 734 124 730 c 132,-1,61
 128 726 128 726 128 718 c 260,62,63
 128 710 128 710 124 706 c 132,-1,64
 120 702 120 702 112 702 c 260,65,66
 104 702 104 702 100 706 c 132,-1,56
 96 710 96 710 96 718 c 132,-1,57
EndSplineSet
Validated: 524321
EndChar

StartChar: acute
Encoding: 180 180 121
Width: 178
Flags: W
LayerCount: 2
Fore
SplineSet
47 717 m 0,0,1
 47 733 47 733 58.5 744.5 c 128,-1,2
 70 756 70 756 86 756 c 256,3,4
 102 756 102 756 113.5 744.5 c 128,-1,5
 125 733 125 733 125 717 c 0,6,7
 125 695 125 695 106 669 c 0,8,9
 83 636 83 636 43 627 c 1,10,11
 48 633 48 633 54 639 c 0,12,13
 74 656 74 656 74 669 c 0,14,15
 74 681 74 681 60.5 690.5 c 128,-1,16
 47 700 47 700 47 717 c 0,0,1
EndSplineSet
Validated: 1
EndChar

StartChar: quoteright
Encoding: 8217 8217 122
Width: 178
Flags: W
LayerCount: 2
Fore
SplineSet
58.158203125 492.700195312 m 0,0,1
 67.3232421875 490.408203125 67.3232421875 490.408203125 80.212890625 496.203125 c 128,-1,2
 93.103515625 501.998046875 93.103515625 501.998046875 95.396484375 511.171875 c 0,3,4
 98.6083984375 524.016601562 98.6083984375 524.016601562 93.6845703125 533.533203125 c 0,5,6
 88.8740234375 539.609375 88.8740234375 539.609375 84.63671875 546.030273438 c 0,7,8
 78.91015625 554.286132812 78.91015625 554.286132812 80.171875 559.33203125 c 256,9,10
 81.43359375 564.377929688 81.43359375 564.377929688 87.3916015625 566.787109375 c 1,11,12
 84.0693359375 567.130859375 84.0693359375 567.130859375 80.74609375 563.57421875 c 128,-1,13
 77.4228515625 560.018554688 77.4228515625 560.018554688 76.96484375 558.18359375 c 0,14,15
 75.0146484375 550.385742188 75.0146484375 550.385742188 82.8017578125 538.690429688 c 128,-1,16
 90.587890625 526.99609375 90.587890625 526.99609375 87.9501953125 516.444335938 c 0,17,18
 85.5419921875 506.811523438 85.5419921875 506.811523438 76.548828125 502.967773438 c 128,-1,19
 67.5537109375 499.124023438 67.5537109375 499.124023438 58.619140625 502.333007812 c 0,20,21
 32.38671875 512.303710938 32.38671875 512.303710938 41.67578125 549.459960938 c 0,22,23
 44.88671875 562.303710938 44.88671875 562.303710938 66.14453125 585.990234375 c 128,-1,24
 87.40234375 609.67578125 87.40234375 609.67578125 104.360351562 619.083007812 c 0,25,26
 142.745117188 640.192382812 142.745117188 640.192382812 157.759765625 667.145507812 c 0,27,28
 167.73046875 685.611328125 167.73046875 685.611328125 168.075195312 686.987304688 c 0,29,30
 171.744140625 701.666992188 171.744140625 701.666992188 169 716 c 128,-1,31
 166.25390625 730.333007812 166.25390625 730.333007812 141.51171875 746.266601562 c 0,32,33
 138.647460938 748.4453125 138.647460938 748.4453125 129.940429688 748.671875 c 0,34,35
 118.944335938 749.47265625 118.944335938 749.47265625 116.079101562 749.700195312 c 0,36,37
 110.581054688 751.075195312 110.581054688 751.075195312 104.051757812 753.1953125 c 128,-1,38
 97.521484375 755.315429688 97.521484375 755.315429688 98.4384765625 755.0859375 c 1,39,40
 89.2744140625 757.376953125 89.2744140625 757.376953125 81.7119140625 754.392578125 c 0,41,42
 81.25390625 754.506835938 81.25390625 754.506835938 76.4404296875 752.786132812 c 0,43,44
 75.41015625 752.556640625 75.41015625 752.556640625 73.9208984375 752.44140625 c 0,45,46
 68.078125 752.439453125 68.078125 752.439453125 55.9345703125 750.6015625 c 0,47,48
 47.9140625 749.682617188 47.9140625 749.682617188 41.955078125 743.374023438 c 1,49,50
 49.9755859375 748.192382812 49.9755859375 748.192382812 52.6103515625 747.046875 c 0,51,52
 53.869140625 746.244140625 53.869140625 746.244140625 52.8388671875 743.08984375 c 128,-1,53
 51.806640625 739.935546875 51.806640625 739.935546875 52.4931640625 738.791015625 c 1,54,55
 51.0048828125 742.57421875 51.0048828125 742.57421875 57.537109375 747.276367188 c 128,-1,56
 64.068359375 751.98046875 64.068359375 751.98046875 71.8583984375 750.033203125 c 0,57,58
 73.232421875 749.689453125 73.232421875 749.689453125 74.0341796875 749.001953125 c 0,59,60
 74.9501953125 746.823242188 74.9501953125 746.823242188 79.3603515625 743.040039062 c 128,-1,61
 83.76953125 739.256835938 83.76953125 739.256835938 85.7177734375 739.256835938 c 0,62,63
 89.154296875 739.372070312 89.154296875 739.372070312 92.8203125 738.456054688 c 0,64,65
 105.651367188 735.248046875 105.651367188 735.248046875 116.990234375 722.1796875 c 128,-1,66
 128.327148438 709.108398438 128.327148438 709.108398438 131.072265625 694.775390625 c 0,67,68
 132.217773438 687.665039062 132.217773438 687.665039062 130.267578125 679.8671875 c 0,69,70
 125.451171875 660.599609375 125.451171875 660.599609375 80.1298828125 618.560546875 c 128,-1,71
 34.80859375 576.520507812 34.80859375 576.520507812 28.0419921875 549.456054688 c 0,72,73
 23.6845703125 532.024414062 23.6845703125 532.024414062 29.6962890625 515.168945312 c 128,-1,74
 35.705078125 498.313476562 35.705078125 498.313476562 58.158203125 492.700195312 c 0,0,1
EndSplineSet
Validated: 37
EndChar

StartChar: agrave
Encoding: 224 224 123
Width: 374
Flags: W
LayerCount: 2
Fore
SplineSet
180 388 m 5,0,1
 172 445 172 445 152 527 c 5,2,3
 144 483 144 483 128 388 c 5,4,-1
 180 388 l 5,0,1
342 0 m 5,5,6
 327 5 327 5 291 5 c 4,7,8
 280 5 280 5 251 1 c 4,9,10
 233 -1 233 -1 229 2 c 4,11,12
 220 11 220 11 238 14 c 4,13,14
 253 16 253 16 255 21 c 4,15,16
 256 24 256 24 256 28 c 4,17,18
 256 40 256 40 223.5 190 c 132,-1,19
 191 340 191 340 185 361 c 5,20,-1
 123 361 l 5,21,22
 87.735218509 210.66066838 87.735218509 210.66066838 86 199 c 4,23,24
 61 31 61 31 65 27 c 4,25,26
 72 21 72 21 83.5 18.5 c 4,27,28
 92 17 92 17 95.5 14.5 c 132,-1,29
 99 12 99 12 99 7 c 4,30,31
 99 -0 99 -0 95 0 c 4,32,33
 51.4583333333 3.95833333333 51.4583333333 3.95833333333 50 5 c 4,34,35
 57 0 57 0 6 0 c 4,36,37
 1 0 1 0 0 4 c 4,38,39
 -1 12 -1 12 3 13 c 132,-1,40
 7 14 7 14 14 16 c 4,41,42
 25 19 25 19 28 28 c 4,43,44
 61 143 61 143 99 359 c 4,45,46
 156 683 156 683 166 684 c 4,47,48
 174 684 174 684 181 669 c 5,49,50
 215.34449256 411.970249226 215.34449256 411.970249226 243 302 c 4,51,52
 303 65 303 65 310 28 c 4,53,54
 312 18 312 18 339 12 c 5,55,56
 347 5 347 5 342 0 c 5,5,6
87 769 m 1,57,-1
 104 791 l 1,58,-1
 208 733 l 1,59,-1
 201 729 l 1,60,-1
 87 769 l 1,57,-1
EndSplineSet
Validated: 33
EndChar

StartChar: aacute
Encoding: 225 225 124
Width: 374
Flags: W
LayerCount: 2
Fore
SplineSet
180 388 m 5,0,1
 172 445 172 445 152 527 c 5,2,3
 144 483 144 483 128 388 c 5,4,-1
 180 388 l 5,0,1
342 0 m 5,5,6
 327 5 327 5 291 5 c 4,7,8
 280 5 280 5 251 1 c 4,9,10
 233 -1 233 -1 229 2 c 4,11,12
 220 11 220 11 238 14 c 4,13,14
 253 16 253 16 255 21 c 4,15,16
 256 24 256 24 256 28 c 4,17,18
 256 40 256 40 223.5 190 c 132,-1,19
 191 340 191 340 185 361 c 5,20,-1
 123 361 l 5,21,22
 87.735218509 210.66066838 87.735218509 210.66066838 86 199 c 4,23,24
 61 31 61 31 65 27 c 4,25,26
 72 21 72 21 83.5 18.5 c 4,27,28
 92 17 92 17 95.5 14.5 c 132,-1,29
 99 12 99 12 99 7 c 4,30,31
 99 -0 99 -0 95 0 c 4,32,33
 51.4583333333 3.95833333333 51.4583333333 3.95833333333 50 5 c 4,34,35
 57 0 57 0 6 0 c 4,36,37
 1 0 1 0 0 4 c 4,38,39
 -1 12 -1 12 3 13 c 132,-1,40
 7 14 7 14 14 16 c 4,41,42
 25 19 25 19 28 28 c 4,43,44
 61 143 61 143 99 359 c 4,45,46
 156 683 156 683 166 684 c 4,47,48
 174 684 174 684 181 669 c 5,49,50
 215.34449256 411.970249226 215.34449256 411.970249226 243 302 c 4,51,52
 303 65 303 65 310 28 c 4,53,54
 312 18 312 18 339 12 c 5,55,56
 347 5 347 5 342 0 c 5,5,6
225 769 m 1,57,-1
 208 791 l 1,58,-1
 104 733 l 1,59,-1
 111 729 l 1,60,-1
 225 769 l 1,57,-1
EndSplineSet
Validated: 41
EndChar

StartChar: acircumflex
Encoding: 226 226 125
Width: 374
Flags: W
LayerCount: 2
Fore
SplineSet
180 388 m 5,0,1
 172 445 172 445 152 527 c 5,2,3
 144 483 144 483 128 388 c 5,4,-1
 180 388 l 5,0,1
342 0 m 5,5,6
 327 5 327 5 291 5 c 4,7,8
 280 5 280 5 251 1 c 4,9,10
 233 -1 233 -1 229 2 c 4,11,12
 220 11 220 11 238 14 c 4,13,14
 253 16 253 16 255 21 c 4,15,16
 256 24 256 24 256 28 c 4,17,18
 256 40 256 40 223.5 190 c 132,-1,19
 191 340 191 340 185 361 c 5,20,-1
 123 361 l 5,21,22
 87.735218509 210.66066838 87.735218509 210.66066838 86 199 c 4,23,24
 61 31 61 31 65 27 c 4,25,26
 72 21 72 21 83.5 18.5 c 4,27,28
 92 17 92 17 95.5 14.5 c 132,-1,29
 99 12 99 12 99 7 c 4,30,31
 99 -0 99 -0 95 0 c 4,32,33
 51.4583333333 3.95833333333 51.4583333333 3.95833333333 50 5 c 4,34,35
 57 0 57 0 6 0 c 4,36,37
 1 0 1 0 0 4 c 4,38,39
 -1 12 -1 12 3 13 c 132,-1,40
 7 14 7 14 14 16 c 4,41,42
 25 19 25 19 28 28 c 4,43,44
 61 143 61 143 99 359 c 4,45,46
 156 683 156 683 166 684 c 4,47,48
 174 684 174 684 181 669 c 5,49,50
 215.34449256 411.970249226 215.34449256 411.970249226 243 302 c 4,51,52
 303 65 303 65 310 28 c 4,53,54
 312 18 312 18 339 12 c 5,55,56
 347 5 347 5 342 0 c 5,5,6
100 720 m 1,57,-1
 92 725 l 1,58,-1
 163 762 l 1,59,-1
 241 725 l 1,60,-1
 233 719 l 1,61,-1
 163 743 l 1,62,-1
 100 720 l 1,57,-1
EndSplineSet
Validated: 33
EndChar

StartChar: atilde
Encoding: 227 227 126
Width: 374
Flags: W
LayerCount: 2
Fore
SplineSet
180 388 m 5,0,1
 172 445 172 445 152 527 c 5,2,3
 144 483 144 483 128 388 c 5,4,-1
 180 388 l 5,0,1
342 0 m 5,5,6
 327 5 327 5 291 5 c 4,7,8
 280 5 280 5 251 1 c 4,9,10
 233 -1 233 -1 229 2 c 4,11,12
 220 11 220 11 238 14 c 4,13,14
 253 16 253 16 255 21 c 4,15,16
 256 24 256 24 256 28 c 4,17,18
 256 40 256 40 223.5 190 c 132,-1,19
 191 340 191 340 185 361 c 5,20,-1
 123 361 l 5,21,22
 87.735218509 210.66066838 87.735218509 210.66066838 86 199 c 4,23,24
 61 31 61 31 65 27 c 4,25,26
 72 21 72 21 83.5 18.5 c 4,27,28
 92 17 92 17 95.5 14.5 c 132,-1,29
 99 12 99 12 99 7 c 4,30,31
 99 -0 99 -0 95 0 c 4,32,33
 51.4583333333 3.95833333333 51.4583333333 3.95833333333 50 5 c 4,34,35
 57 0 57 0 6 0 c 4,36,37
 1 0 1 0 0 4 c 4,38,39
 -1 12 -1 12 3 13 c 132,-1,40
 7 14 7 14 14 16 c 4,41,42
 25 19 25 19 28 28 c 4,43,44
 61 143 61 143 99 359 c 4,45,46
 156 683 156 683 166 684 c 4,47,48
 174 684 174 684 181 669 c 5,49,50
 215.34449256 411.970249226 215.34449256 411.970249226 243 302 c 4,51,52
 303 65 303 65 310 28 c 4,53,54
 312 18 312 18 339 12 c 5,55,56
 347 5 347 5 342 0 c 5,5,6
85.0390625 731.104492188 m 1,57,58
 107.116210938 770.5078125 107.116210938 770.5078125 143.28515625 768.298828125 c 0,59,60
 160.6640625 767.194335938 160.6640625 767.194335938 180.862304688 756.513671875 c 0,61,62
 198.243164062 747.676757812 198.243164062 747.676757812 207.16796875 749.149414062 c 0,63,64
 240.517578125 755.041015625 240.517578125 755.041015625 248.973632812 764.985351562 c 0,65,66
 249.442382812 765.720703125 249.442382812 765.720703125 249.912109375 765.720703125 c 1,67,68
 249.912109375 765.720703125 249.912109375 765.720703125 249.912109375 765.720703125 c 1,69,70
 249.912109375 760.565429688 249.912109375 760.565429688 236.290039062 746.939453125 c 0,71,72
 219.849609375 730 219.849609375 730 202 730 c 0,73,74
 187.908203125 730 187.908203125 730 170.05859375 739.022460938 c 128,-1,75
 152.208984375 748.044921875 152.208984375 748.044921875 140.465820312 748.044921875 c 0,76,77
 112.282226562 748.044921875 112.282226562 748.044921875 85.0390625 731.104492188 c 1,57,58
EndSplineSet
Validated: 37
EndChar

StartChar: adieresis
Encoding: 228 228 127
Width: 374
Flags: W
LayerCount: 2
Fore
SplineSet
180 388 m 5,0,1
 172 445 172 445 152 527 c 5,2,3
 144 483 144 483 128 388 c 5,4,-1
 180 388 l 5,0,1
342 0 m 5,5,6
 327 5 327 5 291 5 c 4,7,8
 280 5 280 5 251 1 c 4,9,10
 233 -1 233 -1 229 2 c 4,11,12
 220 11 220 11 238 14 c 4,13,14
 253 16 253 16 255 21 c 4,15,16
 256 24 256 24 256 28 c 4,17,18
 256 40 256 40 223.5 190 c 132,-1,19
 191 340 191 340 185 361 c 5,20,-1
 123 361 l 5,21,22
 87.735218509 210.66066838 87.735218509 210.66066838 86 199 c 4,23,24
 61 31 61 31 65 27 c 4,25,26
 72 21 72 21 83.5 18.5 c 4,27,28
 92 17 92 17 95.5 14.5 c 132,-1,29
 99 12 99 12 99 7 c 4,30,31
 99 -0 99 -0 95 0 c 4,32,33
 51.4583333333 3.95833333333 51.4583333333 3.95833333333 50 5 c 4,34,35
 57 0 57 0 6 0 c 4,36,37
 1 0 1 0 0 4 c 4,38,39
 -1 12 -1 12 3 13 c 132,-1,40
 7 14 7 14 14 16 c 4,41,42
 25 19 25 19 28 28 c 4,43,44
 61 143 61 143 99 359 c 4,45,46
 156 683 156 683 166 684 c 4,47,48
 174 684 174 684 181 669 c 5,49,50
 215.34449256 411.970249226 215.34449256 411.970249226 243 302 c 4,51,52
 303 65 303 65 310 28 c 4,53,54
 312 18 312 18 339 12 c 5,55,56
 347 5 347 5 342 0 c 5,5,6
169 738 m 128,-1,58
 169 746 169 746 173 750 c 128,-1,59
 177 754 177 754 184 754 c 0,60,61
 193 754 193 754 197 750 c 128,-1,62
 201 746 201 746 201 738 c 256,63,64
 201 730 201 730 197 726 c 128,-1,65
 193 722 193 722 186 722 c 0,66,67
 177 722 177 722 173 726 c 128,-1,57
 169 730 169 730 169 738 c 128,-1,58
126 738 m 128,-1,69
 126 746 126 746 130 750 c 128,-1,70
 134 754 134 754 142 754 c 256,71,72
 150 754 150 754 154 750 c 128,-1,73
 158 746 158 746 158 738 c 256,74,75
 158 730 158 730 154 726 c 128,-1,76
 150 722 150 722 142 722 c 256,77,78
 134 722 134 722 130 726 c 128,-1,68
 126 730 126 730 126 738 c 128,-1,69
EndSplineSet
Validated: 33
EndChar

StartChar: aring
Encoding: 229 229 128
Width: 374
Flags: W
LayerCount: 2
Fore
SplineSet
180 388 m 5,0,1
 172 445 172 445 152 527 c 5,2,3
 144 483 144 483 128 388 c 5,4,-1
 180 388 l 5,0,1
342 0 m 5,5,6
 327 5 327 5 291 5 c 4,7,8
 280 5 280 5 251 1 c 4,9,10
 233 -1 233 -1 229 2 c 4,11,12
 220 11 220 11 238 14 c 4,13,14
 253 16 253 16 255 21 c 4,15,16
 256 24 256 24 256 28 c 4,17,18
 256 40 256 40 223.5 190 c 132,-1,19
 191 340 191 340 185 361 c 5,20,-1
 123 361 l 5,21,22
 87.735218509 210.66066838 87.735218509 210.66066838 86 199 c 4,23,24
 61 31 61 31 65 27 c 4,25,26
 72 21 72 21 83.5 18.5 c 4,27,28
 92 17 92 17 95.5 14.5 c 132,-1,29
 99 12 99 12 99 7 c 4,30,31
 99 -0 99 -0 95 0 c 4,32,33
 51.4583333333 3.95833333333 51.4583333333 3.95833333333 50 5 c 4,34,35
 57 0 57 0 6 0 c 4,36,37
 1 0 1 0 0 4 c 4,38,39
 -1 12 -1 12 3 13 c 132,-1,40
 7 14 7 14 14 16 c 4,41,42
 25 19 25 19 28 28 c 4,43,44
 61 143 61 143 99 359 c 4,45,46
 156 683 156 683 166 684 c 4,47,48
 174 684 174 684 181 669 c 5,49,50
 215.34449256 411.970249226 215.34449256 411.970249226 243 302 c 4,51,52
 303 65 303 65 310 28 c 4,53,54
 312 18 312 18 339 12 c 5,55,56
 347 5 347 5 342 0 c 5,5,6
109.005859375 745.022460938 m 0,57,58
 109.005859375 763.377929688 109.005859375 763.377929688 124.786132812 776.174804688 c 128,-1,59
 140.565429688 788.971679688 140.565429688 788.971679688 162.892578125 788.971679688 c 256,60,61
 185.220703125 788.971679688 185.220703125 788.971679688 201 776.174804688 c 128,-1,62
 216.779296875 763.377929688 216.779296875 763.377929688 216.779296875 745.022460938 c 0,63,64
 216.779296875 726.92578125 216.779296875 726.92578125 201 714 c 128,-1,65
 185.220703125 701.073242188 185.220703125 701.073242188 162.892578125 701.073242188 c 256,66,67
 140.565429688 701.073242188 140.565429688 701.073242188 124.786132812 714 c 128,-1,68
 109.005859375 726.92578125 109.005859375 726.92578125 109.005859375 745.022460938 c 0,57,58
122.9609375 746.056640625 m 256,69,70
 122.9609375 729.76953125 122.9609375 729.76953125 134.338867188 718.13671875 c 128,-1,71
 145.717773438 706.501953125 145.717773438 706.501953125 162.034179688 706.501953125 c 0,72,73
 178.135742188 706.501953125 178.135742188 706.501953125 189.62109375 718.13671875 c 128,-1,74
 201.107421875 729.76953125 201.107421875 729.76953125 201.107421875 746.056640625 c 256,75,76
 201.107421875 762.34375 201.107421875 762.34375 189.62109375 773.977539062 c 128,-1,77
 178.135742188 785.611328125 178.135742188 785.611328125 162.034179688 785.611328125 c 0,78,79
 145.717773438 785.611328125 145.717773438 785.611328125 134.338867188 773.977539062 c 128,-1,80
 122.9609375 762.34375 122.9609375 762.34375 122.9609375 746.056640625 c 256,69,70
EndSplineSet
Validated: 33
EndChar

StartChar: ae
Encoding: 230 230 129
Width: 374
Flags: W
LayerCount: 2
Fore
SplineSet
174.52734375 699 m 5,0,1
 214.580078125 502 214.580078125 502 221.6796875 472 c 5,2,3
 238.0859375 470 238.0859375 470 242.0859375 470 c 4,4,5
 266.0859375 470 266.0859375 470 276.376953125 503 c 4,6,7
 281.919921875 520 281.919921875 520 279.430664062 547 c 5,8,9
 293.107421875 524 293.107421875 524 291.360351562 508 c 5,10,11
 281.81640625 491 281.81640625 491 278.102539062 465 c 4,12,13
 276.728515625 457 276.728515625 457 294.455078125 419 c 4,14,15
 310.774414062 383 310.774414062 383 314.23046875 366 c 4,16,17
 321.752929688 329 321.752929688 329 288.97265625 323 c 5,18,19
 303.889648438 348 303.889648438 348 299.620117188 369 c 4,20,21
 292.911132812 402 292.911132812 402 275.235351562 425 c 4,22,23
 253.135742188 455 253.135742188 455 224.35546875 449 c 5,24,-1
 309.747070312 29 l 5,25,26
 349.577148438 20 349.577148438 20 379.577148438 20 c 4,27,28
 437.577148438 20 437.577148438 20 462.2578125 56 c 5,29,30
 475.751953125 88 475.751953125 88 490.44921875 119 c 5,31,32
 494.26171875 115 494.26171875 115 495.481445312 109 c 4,33,34
 498.53125 94 498.53125 94 486.241210938 61 c 4,35,36
 465.813476562 9 465.813476562 9 463.643554688 0 c 4,37,38
 448.215820312 -52 448.215820312 -52 425.215820312 -52 c 5,39,40
 440.3359375 -28 440.3359375 -28 437.489257812 -14 c 4,41,42
 434.439453125 1 434.439453125 1 404.236328125 2 c 4,43,44
 403.236328125 2 403.236328125 2 225.236328125 2 c 4,45,46
 221.236328125 2 221.236328125 2 220.422851562 6 c 4,47,48
 218.186523438 17 218.186523438 17 230.169921875 22 c 5,49,50
 244.169921875 22 244.169921875 22 249.883789062 48 c 5,51,-1
 132.166015625 627 l 5,52,53
 129.033203125 667 129.033203125 667 114.577148438 684 c 4,54,55
 107.950195312 692 107.950195312 692 96.63671875 696 c 4,56,57
 91.73046875 698 91.73046875 698 82.7138671875 703 c 4,58,59
 79.3076171875 705 79.3076171875 705 76.291015625 710 c 4,60,61
 74.6806640625 713 74.6806640625 713 79.4609375 719 c 5,62,63
 285.0703125 716 285.0703125 716 306.6640625 718 c 5,64,65
 315.900390625 707 315.900390625 707 329.995117188 618 c 5,66,67
 320.995117188 618 320.995117188 618 310.56640625 657 c 132,-1,68
 300.13671875 696 300.13671875 696 282.73046875 698 c 4,69,70
 209.900390625 707 209.900390625 707 174.52734375 699 c 5,0,1
180 388 m 1,71,72
 172 445 172 445 152 527 c 1,73,74
 144 483 144 483 128 388 c 1,75,-1
 180 388 l 1,71,72
342 0 m 1,76,77
 327 5 327 5 291 5 c 0,78,79
 280 5 280 5 251 1 c 0,80,81
 233 -1 233 -1 229 2 c 0,82,83
 220 11 220 11 238 14 c 0,84,85
 253 16 253 16 255 21 c 0,86,87
 256 24 256 24 256 28 c 0,88,89
 256 40 256 40 223.5 190 c 128,-1,90
 191 340 191 340 185 361 c 1,91,-1
 123 361 l 1,92,93
 87.735218509 210.66066838 87.735218509 210.66066838 86 199 c 0,94,95
 61 31 61 31 65 27 c 0,96,97
 72 21 72 21 83.5 18.5 c 0,98,99
 92 17 92 17 95.5 14.5 c 128,-1,100
 99 12 99 12 99 7 c 0,101,102
 99 -0 99 -0 95 0 c 0,103,104
 51.4583333333 3.95833333333 51.4583333333 3.95833333333 50 5 c 0,105,106
 57 0 57 0 6 0 c 0,107,108
 1 0 1 0 0 4 c 0,109,110
 -1 12 -1 12 3 13 c 128,-1,111
 7 14 7 14 14 16 c 0,112,113
 25 19 25 19 28 28 c 0,114,115
 61 143 61 143 99 359 c 0,116,117
 156 683 156 683 166 684 c 0,118,119
 174 684 174 684 181 669 c 1,120,121
 215.34449256 411.970249226 215.34449256 411.970249226 243 302 c 0,122,123
 303 65 303 65 310 28 c 0,124,125
 312 18 312 18 339 12 c 1,126,127
 347 5 347 5 342 0 c 1,76,77
EndSplineSet
Validated: 37
EndChar

StartChar: ccedilla
Encoding: 231 231 130
Width: 345
Flags: W
LayerCount: 2
Fore
SplineSet
126 43 m 1,0,-1
 132 35 l 1,1,-1
 137 29 l 1,2,-1
 114.216292061 -10.1127662122 l 1,3,4
 125.961501872 -6.8162491383 125.961501872 -6.8162491383 138.050928828 -8.48324141072 c 0,5,6
 149.522741038 -10.0650717468 149.522741038 -10.0650717468 159.334193333 -15.8011748731 c 0,7,8
 168.398895274 -21.1007027704 168.398895274 -21.1007027704 174.3660719 -29.1076512656 c 128,-1,9
 180.295256273 -37.0636205407 180.295256273 -37.0636205407 183.029997728 -47.5556948234 c 0,10,11
 186.052065965 -59.1501233869 186.052065965 -59.1501233869 184.771951069 -71.8194291144 c 128,-1,12
 183.501517764 -84.3929160624 183.501517764 -84.3929160624 177.822474056 -98.2988142926 c 0,13,14
 170.825237994 -115.43248284 170.825237994 -115.43248284 160.509029533 -127.231129283 c 128,-1,15
 150.169187587 -139.056805341 150.169187587 -139.056805341 136.733331037 -145.23918543 c 128,-1,16
 123.455087124 -151.349041582 123.455087124 -151.349041582 109.908559325 -150.776741265 c 128,-1,17
 96.4890954337 -150.209809018 96.4890954337 -150.209809018 83.4478951536 -142.297555316 c 0,18,19
 80.2526125108 -140.358938749 80.2526125108 -140.358938749 76.7263127881 -137.89139568 c 0,20,21
 72.6807988504 -135.060530278 72.6807988504 -135.060530278 70.298112038 -132.768685117 c 0,22,23
 66.2493049085 -128.874241678 66.2493049085 -128.874241678 63.3414314585 -123.165174197 c 0,24,25
 60.2497827391 -117.095298232 60.2497827391 -117.095298232 58.0310932471 -108.861654906 c 128,-1,26
 55.8084572476 -100.613365936 55.8084572476 -100.613365936 55.5091901207 -94.3114283873 c 0,27,28
 55.2288063015 -88.4071336645 55.2288063015 -88.4071336645 56.9178147961 -83.9677957877 c 128,-1,29
 58.5317835722 -79.7256899944 58.5317835722 -79.7256899944 62.3375162435 -75.7101749277 c 128,-1,30
 66.2628093135 -71.5685089662 66.2628093135 -71.5685089662 71.555461818 -68.1345345536 c 0,31,32
 77.1189742514 -64.5248210264 77.1189742514 -64.5248210264 81.6849859829 -63.7645167398 c 0,33,34
 86.4655801332 -62.9684815041 86.4655801332 -62.9684815041 89.8394232018 -65.1237635607 c 0,35,36
 90.4960959704 -65.5432599648 90.4960959704 -65.5432599648 91.0725428037 -66.0728792599 c 128,-1,37
 91.66836499 -66.6202999553 91.66836499 -66.6202999553 92.3829370275 -67.5122666449 c 128,-1,38
 93.1901677551 -68.5198948223 93.1901677551 -68.5198948223 93.4693658218 -68.8196578067 c 128,-1,39
 93.7416499443 -69.111997586 93.7416499443 -69.111997586 94.030589135 -69.3727848367 c 1,40,41
 91.5356339569 -70.233316956 91.5356339569 -70.233316956 86.3830210462 -71.981281626 c 0,42,43
 80.7632660269 -73.8877188838 80.7632660269 -73.8877188838 78.8847632437 -74.6777758973 c 0,44,45
 75.584898974 -76.0656263351 75.584898974 -76.0656263351 73.6955759226 -77.845685251 c 0,46,47
 71.4500659432 -79.9613319408 71.4500659432 -79.9613319408 70.0099693801 -83.6786612039 c 0,48,49
 67.2073601175 -90.9130520714 67.2073601175 -90.9130520714 66.9530377275 -98.3875974665 c 0,50,51
 66.7133418695 -105.432268492 66.7133418695 -105.432268492 69.8108889983 -113.135818319 c 0,52,53
 72.7935737164 -120.553707182 72.7935737164 -120.553707182 77.4571473477 -126.147660285 c 128,-1,54
 82.166047842 -131.795982927 82.166047842 -131.795982927 88.7654369314 -135.647459887 c 0,55,56
 97.5260513987 -140.760252044 97.5260513987 -140.760252044 106.690529732 -141.208586476 c 128,-1,57
 116.039564389 -141.665949567 116.039564389 -141.665949567 125.228580551 -137.124560479 c 0,58,59
 136.0846686 -131.759272298 136.0846686 -131.759272298 145.179840132 -120.30918449 c 0,60,61
 154.968325642 -107.986270272 154.968325642 -107.986270272 161.414059427 -91.2967289354 c 0,62,63
 165.378070868 -81.0329583521 165.378070868 -81.0329583521 166.138289277 -72.2892728132 c 0,64,65
 166.945797308 -63.0016836049 166.945797308 -63.0016836049 164.468371601 -53.9606544096 c 0,66,67
 161.811655073 -44.2653276755 161.811655073 -44.2653276755 155.922322315 -36.5827230888 c 0,68,69
 149.725622167 -28.4991593077 149.725622167 -28.4991593077 140.929735928 -23.6329507754 c 0,70,71
 135.917650915 -20.8600805732 135.917650915 -20.8600805732 130.937734395 -19.7453477292 c 0,72,73
 125.571065027 -18.5440419274 125.571065027 -18.5440419274 120.073446453 -19.3462162928 c 0,74,75
 117.747627345 -19.6855836827 117.747627345 -19.6855836827 110.5267563 -21.6137228391 c 0,76,77
 105.264513438 -23.0188630847 105.264513438 -23.0188630847 100.904101266 -23.6140941721 c 1,78,-1
 124.961393722 35.1430816979 l 2,79,80
 125.937570241 37.5272808127 125.937570241 37.5272808127 126.174359957 38.9899330142 c 0,81,82
 126.508418795 41.0534174546 126.508418795 41.0534174546 126 43 c 1,0,-1
  Spiro
    126 43 v
    132 35 v
    137 29 v
    114.216 -10.1128 v
    138.051 -8.48324 o
    159.334 -15.8012 o
    174.366 -29.1077 o
    183.03 -47.5557 o
    184.772 -71.8194 o
    177.822 -98.2988 o
    160.509 -127.231 o
    136.733 -145.239 o
    109.909 -150.777 o
    83.4479 -142.298 o
    76.7263 -137.891 o
    70.2981 -132.769 o
    63.3414 -123.165 o
    58.0311 -108.862 o
    55.5092 -94.3114 o
    56.9178 -83.9678 o
    62.3375 -75.7102 o
    71.5555 -68.1345 o
    81.685 -63.7645 o
    89.8394 -65.1238 o
    91.0725 -66.0729 o
    92.3829 -67.5123 o
    93.4694 -68.8197 o
    94.0306 -69.3728 v
    86.383 -71.9813 o
    78.8848 -74.6778 o
    73.6956 -77.8457 o
    70.01 -83.6787 o
    66.953 -98.3876 o
    69.8109 -113.136 o
    77.4571 -126.148 o
    88.7654 -135.647 o
    106.691 -141.209 o
    125.229 -137.125 o
    145.18 -120.309 o
    161.414 -91.2967 o
    166.138 -72.2893 o
    164.468 -53.9607 o
    155.922 -36.5827 o
    140.93 -23.633 o
    130.938 -19.7453 o
    120.073 -19.3462 o
    110.527 -21.6137 o
    100.904 -23.6141 v
    124.961 35.1431 ]
    0 0 z
  EndSpiro
233 771 m 0,83,84
 234 773 234 773 234 775 c 0,85,86
 234 783 234 783 222.5 791.5 c 128,-1,87
 211 800 211 800 198 800 c 0,88,89
 86 800 86 800 30 612 c 0,90,91
 -2 504 -2 504 -2 403 c 0,92,93
 -2 278 -2 278 45 178 c 0,94,95
 131 -6 131 -6 282 -100 c 0,96,97
 404 -176 404 -176 505 -200 c 1,98,-1
 519 -200 l 2,99,100
 534 -200 534 -200 534 -197 c 0,101,102
 534 -190 534 -190 466 -175 c 1,103,104
 252 -70 252 -70 156 64 c 0,105,106
 88 161 88 161 70 297 c 0,107,108
 59 385 59 385 59 465 c 0,109,110
 59 698 59 698 153 762 c 0,111,112
 159 765 159 765 164 767 c 0,113,114
 183 773 183 773 197 771 c 2,115,-1
 221 767 l 2,116,117
 229 765 229 765 233 771 c 0,83,84
  Spiro
    233 771 o
    233.75 773 o
    234 775 o
    231.125 783.125 o
    222.5 791.5 o
    210.625 797.875 o
    198 800 o
    100 753 o
    30 612 o
    6 505.75 o
    -2 403 o
    9.75 284.25 o
    45 178 o
    147.25 16.5 o
    282 -100 o
    398.75 -163 o
    505 -200 v
    519 -200 ]
    530.25 -199.25 o
    534 -197 o
    517 -188 o
    466 -175 v
    281.5 -62.75 o
    156 64 o
    100.5 170.75 o
    70 297 o
    61.75 383 o
    59 465 o
    82.5 655.75 o
    153 762 o
    158.75 764.75 o
    164 767 o
    181.75 771 o
    197 771 o
    221 767 o
    228 767 o
    0 0 z
  EndSpiro
EndSplineSet
Validated: 37
EndChar

StartChar: igrave
Encoding: 236 236 131
Width: 374
Flags: W
LayerCount: 2
Fore
SplineSet
193 637 m 6,0,1
 193 638 193 638 198.5 647 c 4,2,3
 200 649 200 649 217 657 c 4,4,5
 227 662 227 662 227 669 c 4,6,7
 227 675 227 675 223 676 c 132,-1,8
 219 677 219 677 164 676 c 4,9,10
 151 676 151 676 129 676 c 4,11,12
 129 676 129 676 101 677 c 4,13,14
 94 673 94 673 97 668 c 4,15,16
 99 664 99 664 101 661 c 132,-1,17
 103 658 103 658 113.5 654 c 132,-1,18
 124 650 124 650 129 642 c 4,19,20
 135 633 135 633 135 605 c 6,21,-1
 135 46 l 5,22,23
 124 20 124 20 110 20 c 5,24,25
 97 15 97 15 97 4 c 4,26,27
 97 0 97 0 101 0 c 6,28,-1
 220 0 l 5,29,30
 226 14 226 14 218 15 c 4,31,32
 200 17 200 17 193 39 c 5,33,-1
 193 637 l 6,0,1
87 769 m 1,34,-1
 104 791 l 1,35,-1
 208 733 l 1,36,-1
 201 729 l 1,37,-1
 87 769 l 1,34,-1
EndSplineSet
Validated: 41
EndChar

StartChar: iacute
Encoding: 237 237 132
Width: 374
Flags: W
LayerCount: 2
Fore
SplineSet
193 637 m 6,0,1
 193 638 193 638 198.5 647 c 4,2,3
 200 649 200 649 217 657 c 4,4,5
 227 662 227 662 227 669 c 4,6,7
 227 675 227 675 223 676 c 132,-1,8
 219 677 219 677 164 676 c 4,9,10
 151 676 151 676 129 676 c 4,11,12
 129 676 129 676 101 677 c 4,13,14
 94 673 94 673 97 668 c 4,15,16
 99 664 99 664 101 661 c 132,-1,17
 103 658 103 658 113.5 654 c 132,-1,18
 124 650 124 650 129 642 c 4,19,20
 135 633 135 633 135 605 c 6,21,-1
 135 46 l 5,22,23
 124 20 124 20 110 20 c 5,24,25
 97 15 97 15 97 4 c 4,26,27
 97 0 97 0 101 0 c 6,28,-1
 220 0 l 5,29,30
 226 14 226 14 218 15 c 4,31,32
 200 17 200 17 193 39 c 5,33,-1
 193 637 l 6,0,1
229 769 m 1,34,-1
 212 791 l 1,35,-1
 108 733 l 1,36,-1
 115 729 l 1,37,-1
 229 769 l 1,34,-1
EndSplineSet
Validated: 41
EndChar

StartChar: icircumflex
Encoding: 238 238 133
Width: 374
Flags: W
LayerCount: 2
Fore
SplineSet
193 637 m 6,0,1
 193 638 193 638 198.5 647 c 4,2,3
 200 649 200 649 217 657 c 4,4,5
 227 662 227 662 227 669 c 4,6,7
 227 675 227 675 223 676 c 132,-1,8
 219 677 219 677 164 676 c 4,9,10
 151 676 151 676 129 676 c 4,11,12
 129 676 129 676 101 677 c 4,13,14
 94 673 94 673 97 668 c 4,15,16
 99 664 99 664 101 661 c 132,-1,17
 103 658 103 658 113.5 654 c 132,-1,18
 124 650 124 650 129 642 c 4,19,20
 135 633 135 633 135 605 c 6,21,-1
 135 46 l 5,22,23
 124 20 124 20 110 20 c 5,24,25
 97 15 97 15 97 4 c 4,26,27
 97 0 97 0 101 0 c 6,28,-1
 220 0 l 5,29,30
 226 14 226 14 218 15 c 4,31,32
 200 17 200 17 193 39 c 5,33,-1
 193 637 l 6,0,1
100 720 m 1,34,-1
 92 725 l 1,35,-1
 163 762 l 1,36,-1
 241 725 l 1,37,-1
 233 719 l 1,38,-1
 163 743 l 1,39,-1
 100 720 l 1,34,-1
EndSplineSet
Validated: 41
EndChar

StartChar: idieresis
Encoding: 239 239 134
Width: 374
Flags: W
LayerCount: 2
Fore
SplineSet
193 637 m 6,0,1
 193 638 193 638 198.5 647 c 4,2,3
 200 649 200 649 217 657 c 4,4,5
 227 662 227 662 227 669 c 4,6,7
 227 675 227 675 223 676 c 132,-1,8
 219 677 219 677 164 676 c 4,9,10
 151 676 151 676 129 676 c 4,11,12
 129 676 129 676 101 677 c 4,13,14
 94 673 94 673 97 668 c 4,15,16
 99 664 99 664 101 661 c 132,-1,17
 103 658 103 658 113.5 654 c 132,-1,18
 124 650 124 650 129 642 c 4,19,20
 135 633 135 633 135 605 c 6,21,-1
 135 46 l 5,22,23
 124 20 124 20 110 20 c 5,24,25
 97 15 97 15 97 4 c 4,26,27
 97 0 97 0 101 0 c 6,28,-1
 220 0 l 5,29,30
 226 14 226 14 218 15 c 4,31,32
 200 17 200 17 193 39 c 5,33,-1
 193 637 l 6,0,1
169 738 m 128,-1,35
 169 746 169 746 173 750 c 128,-1,36
 177 754 177 754 184 754 c 0,37,38
 193 754 193 754 197 750 c 128,-1,39
 201 746 201 746 201 738 c 256,40,41
 201 730 201 730 197 726 c 128,-1,42
 193 722 193 722 186 722 c 0,43,44
 177 722 177 722 173 726 c 128,-1,34
 169 730 169 730 169 738 c 128,-1,35
126 738 m 128,-1,46
 126 746 126 746 130 750 c 128,-1,47
 134 754 134 754 142 754 c 256,48,49
 150 754 150 754 154 750 c 128,-1,50
 158 746 158 746 158 738 c 256,51,52
 158 730 158 730 154 726 c 128,-1,53
 150 722 150 722 142 722 c 256,54,55
 134 722 134 722 130 726 c 128,-1,45
 126 730 126 730 126 738 c 128,-1,46
EndSplineSet
Validated: 41
EndChar

StartChar: OE
Encoding: 338 338 136
Width: 328
Flags: W
LayerCount: 2
Fore
SplineSet
290 715 m 5,0,1
 290 518 290 518 291 488 c 5,2,3
 307 486 307 486 311 486 c 4,4,5
 335 486 335 486 352 519 c 4,6,7
 361 536 361 536 364 563 c 5,8,9
 373 540 373 540 368 524 c 5,10,11
 355 507 355 507 346 481 c 4,12,13
 343 473 343 473 353 435 c 4,14,15
 362 399 362 399 362 382 c 4,16,17
 362 345 362 345 328 339 c 5,18,19
 348 364 348 364 348 385 c 4,20,21
 348 418 348 418 335 441 c 4,22,23
 319 471 319 471 289 465 c 5,24,-1
 289 45 l 5,25,26
 327 36 327 36 357 36 c 4,27,28
 415 36 415 36 447 72 c 5,29,30
 467 104 467 104 488 135 c 5,31,32
 491 131 491 131 491 125 c 4,33,34
 491 110 491 110 472 77 c 4,35,36
 441 25 441 25 437 16 c 4,37,38
 411 -36 411 -36 388 -36 c 5,39,40
 408 -12 408 -12 408 2 c 4,41,42
 408 17 408 17 378 18 c 4,43,44
 377 18 377 18 199 18 c 4,45,46
 195 18 195 18 195 22 c 4,47,48
 195 33 195 33 208 38 c 5,49,50
 222 38 222 38 233 64 c 5,51,-1
 233 643 l 5,52,53
 238 683 238 683 227 700 c 4,54,55
 222 708 222 708 211.5 712 c 4,56,57
 207 714 207 714 199 719 c 4,58,59
 196 721 196 721 194 726 c 4,60,61
 193 729 193 729 199 735 c 5,62,63
 404 732 404 732 426 734 c 5,64,65
 433 723 433 723 429 634 c 5,66,67
 420 634 420 634 417.5 673 c 132,-1,68
 415 712 415 712 398 714 c 4,69,70
 327 723 327 723 290 715 c 5,0,1
53 379 m 0,71,72
 53 203 53 203 69 121 c 0,73,74
 90 14 90 14 143 12 c 0,75,76
 209 10 209 10 225 119 c 0,77,78
 234 172 234 172 234 379 c 0,79,80
 234 405 234 405 234 454 c 0,81,82
 235 502 235 502 235 524 c 0,83,84
 235 638 235 638 220 685 c 0,85,86
 199 748 199 748 143 746 c 0,87,88
 89 743 89 743 69 637 c 0,89,90
 53 556 53 556 53 379 c 0,71,72
27 379 m 0,91,92
 27 565 27 565 50 650 c 0,93,94
 80 762 80 762 160 764 c 0,95,96
 239 767 239 767 270 653 c 0,97,98
 293 567 293 567 293 379 c 0,99,100
 293 161 293 161 281 105 c 0,101,102
 256 -8 256 -8 160 -6 c 0,103,104
 82 -4 82 -4 51 108 c 0,105,106
 27 195 27 195 27 379 c 0,91,92
EndSplineSet
Validated: 524325
EndChar

StartChar: oe
Encoding: 339 339 137
Width: 328
Flags: W
LayerCount: 2
Fore
SplineSet
290 565 m 1,0,1
 290 368 290 368 291 338 c 1,2,3
 307 336 307 336 311 336 c 0,4,5
 335 336 335 336 352 369 c 0,6,7
 361 386 361 386 364 413 c 1,8,9
 373 390 373 390 368 374 c 1,10,11
 355 357 355 357 346 331 c 0,12,13
 343 323 343 323 353 285 c 0,14,15
 362 249 362 249 362 232 c 0,16,17
 362 195 362 195 328 189 c 1,18,19
 348 214 348 214 348 235 c 0,20,21
 348 268 348 268 335 291 c 0,22,23
 319 321 319 321 289 315 c 1,24,-1
 289 45 l 1,25,26
 327 36 327 36 357 36 c 0,27,28
 415 36 415 36 447 72 c 1,29,30
 467 104 467 104 488 135 c 1,31,32
 491 131 491 131 491 125 c 0,33,34
 491 110 491 110 472 77 c 0,35,36
 441 25 441 25 437 16 c 0,37,38
 411 -36 411 -36 388 -36 c 1,39,40
 408 -12 408 -12 408 2 c 0,41,42
 408 17 408 17 378 18 c 0,43,44
 377 18 377 18 199 18 c 0,45,46
 195 18 195 18 195 22 c 0,47,48
 195 33 195 33 208 38 c 1,49,50
 222 38 222 38 233 64 c 1,51,-1
 233 493 l 1,52,53
 238 533 238 533 227 550 c 0,54,55
 222 558 222 558 211.5 562 c 0,56,57
 207 564 207 564 199 569 c 0,58,59
 196 571 196 571 194 576 c 0,60,61
 193 579 193 579 199 585 c 1,62,63
 404 582 404 582 426 584 c 1,64,65
 433 573 433 573 429 484 c 1,66,67
 420 484 420 484 417.5 523 c 128,-1,68
 415 562 415 562 398 564 c 0,69,70
 327 573 327 573 290 565 c 1,0,1
53 229 m 0,71,72
 53 203 53 203 69 121 c 0,73,74
 90 14 90 14 143 12 c 0,75,76
 200 10 200 10 225 119 c 0,77,78
 237 168 237 168 234 229 c 0,79,80
 233 255 233 255 234 304 c 0,81,82
 235 352 235 352 235 374 c 0,83,84
 235 488 235 488 220 535 c 0,85,86
 199 599 199 599 143 596 c 0,87,88
 89 593 89 593 69 487 c 0,89,90
 53 406 53 406 53 229 c 0,71,72
27 229 m 0,91,92
 27 415 27 415 50 500 c 0,93,94
 80 611 80 611 160 614 c 0,95,96
 239 617 239 617 270 503 c 0,97,98
 293 417 293 417 293 229 c 0,99,100
 293 161 293 161 281 105 c 0,101,102
 256 -8 256 -8 160 -6 c 0,103,104
 82 -4 82 -4 51 108 c 0,105,106
 27 195 27 195 27 229 c 0,91,92
EndSplineSet
Validated: 524325
EndChar

StartChar: Ugrave
Encoding: 217 217 138
Width: 311
Flags: W
LayerCount: 2
Fore
SplineSet
23 698 m 5,0,1
 25 698 25 698 37 697 c 4,2,3
 48 697 48 697 55 697 c 4,4,5
 82 698 82 698 84 697 c 4,6,7
 91 687 91 687 81 678 c 4,8,9
 78 675 78 675 72.5 665.5 c 4,10,11
 69 659 69 659 69 652 c 4,12,13
 69 637 69 637 70 433 c 6,14,-1
 70 139 l 6,15,16
 70 22 70 22 161 17 c 4,17,18
 199 15 199 15 222 40 c 4,19,20
 246 66 246 66 246 118 c 6,21,-1
 246 257 l 6,22,23
 246 425 246 425 222 494 c 4,24,25
 205 541 205 541 139 638 c 5,26,27
 217 582 217 582 252 526 c 4,28,29
 290 464 290 464 304 358 c 5,30,-1
 304 250 l 6,31,32
 304 120 304 120 294 84 c 4,33,34
 268 -10 268 -10 169 -10 c 4,35,36
 82 -10 82 -10 52 59 c 4,37,38
 34 102 34 102 41 136 c 5,39,-1
 41 605 l 6,40,41
 41 618 41 618 38 625 c 4,42,43
 34 635 34 635 25 635 c 4,44,45
 14 635 14 635 -18 576 c 4,46,47
 -25 563 -25 563 -29 558 c 5,48,-1
 -29 558 l 5,49,-1
 -19 573 l 5,50,51
 -32 555 -32 555 -44 537.5 c 132,-1,52
 -56 520 -56 520 -54 487 c 4,53,54
 -53 468 -53 468 -44 446.5 c 132,-1,55
 -35 425 -35 425 -35 414 c 4,56,57
 -35 395 -35 395 -51 376 c 4,58,59
 -57 369 -57 369 -58 371 c 4,60,61
 -60 373 -60 373 -61 376 c 4,62,63
 -61 377 -61 377 -54 384.5 c 4,64,65
 -48 392 -48 392 -48 399 c 4,66,67
 -48 403 -48 403 -49 407 c 4,68,69
 -57 431 -57 431 -75 458 c 132,-1,70
 -93 485 -93 485 -93 501 c 4,71,72
 -93 530 -93 530 -64 561 c 4,73,74
 -22 605 -22 605 -2 645 c 4,75,-1
 13 676 l 6,76,77
 22 695 22 695 37 697 c 5,78,-1
 23 698 l 5,0,1
79 759 m 1,79,-1
 96 781 l 1,80,-1
 200 723 l 1,81,-1
 193 719 l 1,82,-1
 79 759 l 1,79,-1
EndSplineSet
Validated: 524325
EndChar

StartChar: Uacute
Encoding: 218 218 139
Width: 311
Flags: W
LayerCount: 2
Fore
SplineSet
23 698 m 1,0,1
 25 698 25 698 37 697 c 0,2,3
 48 697 48 697 55 697 c 0,4,5
 82 698 82 698 84 697 c 0,6,7
 91 687 91 687 81 678 c 0,8,9
 78 675 78 675 72.5 665.5 c 0,10,11
 69 659 69 659 69 652 c 0,12,13
 69 637 69 637 70 433 c 2,14,-1
 70 139 l 2,15,16
 70 22 70 22 161 17 c 0,17,18
 199 15 199 15 222 40 c 0,19,20
 246 66 246 66 246 118 c 2,21,-1
 246 257 l 2,22,23
 246 425 246 425 222 494 c 0,24,25
 205 541 205 541 139 638 c 1,26,27
 217 582 217 582 252 526 c 0,28,29
 290 464 290 464 304 358 c 1,30,-1
 304 250 l 2,31,32
 304 120 304 120 294 84 c 0,33,34
 268 -10 268 -10 169 -10 c 0,35,36
 82 -10 82 -10 52 59 c 0,37,38
 34 102 34 102 41 136 c 1,39,-1
 41 605 l 2,40,41
 41 618 41 618 38 625 c 0,42,43
 34 635 34 635 25 635 c 0,44,45
 14 635 14 635 -18 576 c 0,46,47
 -25 563 -25 563 -29 558 c 1,48,-1
 -29 558 l 1,49,-1
 -19 573 l 1,50,51
 -32 555 -32 555 -44 537.5 c 128,-1,52
 -56 520 -56 520 -54 487 c 0,53,54
 -53 468 -53 468 -44 446.5 c 128,-1,55
 -35 425 -35 425 -35 414 c 0,56,57
 -35 395 -35 395 -51 376 c 0,58,59
 -57 369 -57 369 -58 371 c 0,60,61
 -60 373 -60 373 -61 376 c 0,62,63
 -61 377 -61 377 -54 384.5 c 0,64,65
 -48 392 -48 392 -48 399 c 0,66,67
 -48 403 -48 403 -49 407 c 0,68,69
 -57 431 -57 431 -75 458 c 128,-1,70
 -93 485 -93 485 -93 501 c 0,71,72
 -93 530 -93 530 -64 561 c 0,73,74
 -22 605 -22 605 -2 645 c 0,75,-1
 13 676 l 2,76,77
 22 695 22 695 37 697 c 1,78,-1
 23 698 l 1,0,1
213 769 m 5,79,-1
 196 791 l 5,80,-1
 92 733 l 5,81,-1
 99 729 l 5,82,-1
 213 769 l 5,79,-1
EndSplineSet
Validated: 524325
EndChar

StartChar: Ucircumflex
Encoding: 219 219 140
Width: 311
Flags: W
LayerCount: 2
Fore
SplineSet
23 698 m 1,0,1
 25 698 25 698 37 697 c 0,2,3
 48 697 48 697 55 697 c 0,4,5
 82 698 82 698 84 697 c 0,6,7
 91 687 91 687 81 678 c 0,8,9
 78 675 78 675 72.5 665.5 c 0,10,11
 69 659 69 659 69 652 c 0,12,13
 69 637 69 637 70 433 c 2,14,-1
 70 139 l 2,15,16
 70 22 70 22 161 17 c 0,17,18
 199 15 199 15 222 40 c 0,19,20
 246 66 246 66 246 118 c 2,21,-1
 246 257 l 2,22,23
 246 425 246 425 222 494 c 0,24,25
 205 541 205 541 139 638 c 1,26,27
 217 582 217 582 252 526 c 0,28,29
 290 464 290 464 304 358 c 1,30,-1
 304 250 l 2,31,32
 304 120 304 120 294 84 c 0,33,34
 268 -10 268 -10 169 -10 c 0,35,36
 82 -10 82 -10 52 59 c 0,37,38
 34 102 34 102 41 136 c 1,39,-1
 41 605 l 2,40,41
 41 618 41 618 38 625 c 0,42,43
 34 635 34 635 25 635 c 0,44,45
 14 635 14 635 -18 576 c 0,46,47
 -25 563 -25 563 -29 558 c 1,48,-1
 -29 558 l 1,49,-1
 -19 573 l 1,50,51
 -32 555 -32 555 -44 537.5 c 128,-1,52
 -56 520 -56 520 -54 487 c 0,53,54
 -53 468 -53 468 -44 446.5 c 128,-1,55
 -35 425 -35 425 -35 414 c 0,56,57
 -35 395 -35 395 -51 376 c 0,58,59
 -57 369 -57 369 -58 371 c 0,60,61
 -60 373 -60 373 -61 376 c 0,62,63
 -61 377 -61 377 -54 384.5 c 0,64,65
 -48 392 -48 392 -48 399 c 0,66,67
 -48 403 -48 403 -49 407 c 0,68,69
 -57 431 -57 431 -75 458 c 128,-1,70
 -93 485 -93 485 -93 501 c 0,71,72
 -93 530 -93 530 -64 561 c 0,73,74
 -22 605 -22 605 -2 645 c 0,75,-1
 13 676 l 2,76,77
 22 695 22 695 37 697 c 1,78,-1
 23 698 l 1,0,1
80 750 m 5,79,-1
 72 755 l 5,80,-1
 143 792 l 5,81,-1
 221 755 l 5,82,-1
 213 749 l 5,83,-1
 143 773 l 5,84,-1
 80 750 l 5,79,-1
EndSplineSet
Validated: 524325
EndChar

